%TF.GenerationSoftware,KiCad,Pcbnew,8.0.8*%
%TF.CreationDate,2025-04-15T16:12:00+02:00*%
%TF.ProjectId,gFocus,67466f63-7573-42e6-9b69-6361645f7063,rev?*%
%TF.SameCoordinates,Original*%
%TF.FileFunction,Soldermask,Top*%
%TF.FilePolarity,Negative*%
%FSLAX46Y46*%
G04 Gerber Fmt 4.6, Leading zero omitted, Abs format (unit mm)*
G04 Created by KiCad (PCBNEW 8.0.8) date 2025-04-15 16:12:00*
%MOMM*%
%LPD*%
G01*
G04 APERTURE LIST*
G04 Aperture macros list*
%AMRoundRect*
0 Rectangle with rounded corners*
0 $1 Rounding radius*
0 $2 $3 $4 $5 $6 $7 $8 $9 X,Y pos of 4 corners*
0 Add a 4 corners polygon primitive as box body*
4,1,4,$2,$3,$4,$5,$6,$7,$8,$9,$2,$3,0*
0 Add four circle primitives for the rounded corners*
1,1,$1+$1,$2,$3*
1,1,$1+$1,$4,$5*
1,1,$1+$1,$6,$7*
1,1,$1+$1,$8,$9*
0 Add four rect primitives between the rounded corners*
20,1,$1+$1,$2,$3,$4,$5,0*
20,1,$1+$1,$4,$5,$6,$7,0*
20,1,$1+$1,$6,$7,$8,$9,0*
20,1,$1+$1,$8,$9,$2,$3,0*%
G04 Aperture macros list end*
%ADD10R,1.500000X1.500000*%
%ADD11O,1.500000X1.500000*%
%ADD12RoundRect,0.250000X0.475000X-0.250000X0.475000X0.250000X-0.475000X0.250000X-0.475000X-0.250000X0*%
%ADD13RoundRect,0.250000X0.250000X0.475000X-0.250000X0.475000X-0.250000X-0.475000X0.250000X-0.475000X0*%
%ADD14RoundRect,0.250000X-0.250000X-0.475000X0.250000X-0.475000X0.250000X0.475000X-0.250000X0.475000X0*%
%ADD15RoundRect,0.250000X0.262500X0.450000X-0.262500X0.450000X-0.262500X-0.450000X0.262500X-0.450000X0*%
%ADD16C,3.200000*%
%ADD17RoundRect,0.250000X-0.475000X0.250000X-0.475000X-0.250000X0.475000X-0.250000X0.475000X0.250000X0*%
%ADD18RoundRect,0.250000X-0.262500X-0.450000X0.262500X-0.450000X0.262500X0.450000X-0.262500X0.450000X0*%
%ADD19R,0.400000X1.350000*%
%ADD20O,1.200000X1.900000*%
%ADD21R,1.200000X1.900000*%
%ADD22C,1.450000*%
%ADD23R,1.500000X1.900000*%
%ADD24RoundRect,0.085500X0.751500X0.256500X-0.751500X0.256500X-0.751500X-0.256500X0.751500X-0.256500X0*%
%ADD25RoundRect,0.102000X0.712500X0.880000X-0.712500X0.880000X-0.712500X-0.880000X0.712500X-0.880000X0*%
%ADD26RoundRect,0.150000X-0.512500X-0.150000X0.512500X-0.150000X0.512500X0.150000X-0.512500X0.150000X0*%
%ADD27RoundRect,0.250000X-0.350000X-0.575000X0.350000X-0.575000X0.350000X0.575000X-0.350000X0.575000X0*%
%ADD28O,1.200000X1.650000*%
%ADD29RoundRect,0.075000X0.075000X-0.662500X0.075000X0.662500X-0.075000X0.662500X-0.075000X-0.662500X0*%
%ADD30RoundRect,0.075000X0.662500X-0.075000X0.662500X0.075000X-0.662500X0.075000X-0.662500X-0.075000X0*%
%ADD31RoundRect,0.102000X1.395000X-0.370000X1.395000X0.370000X-1.395000X0.370000X-1.395000X-0.370000X0*%
%ADD32RoundRect,0.050000X-0.300000X0.150000X-0.300000X-0.150000X0.300000X-0.150000X0.300000X0.150000X0*%
%ADD33RoundRect,0.214900X-0.092100X0.622100X-0.092100X-0.622100X0.092100X-0.622100X0.092100X0.622100X0*%
%ADD34RoundRect,0.218750X-0.381250X0.218750X-0.381250X-0.218750X0.381250X-0.218750X0.381250X0.218750X0*%
%ADD35RoundRect,0.162500X0.617500X0.162500X-0.617500X0.162500X-0.617500X-0.162500X0.617500X-0.162500X0*%
%ADD36R,1.500000X5.080000*%
G04 APERTURE END LIST*
D10*
%TO.C,U1*%
X125500000Y-105382500D03*
D11*
X125500000Y-102842500D03*
X125500000Y-97762500D03*
X125500000Y-95222500D03*
X125500000Y-92682500D03*
%TD*%
D12*
%TO.C,C9*%
X150700000Y-91100000D03*
X150700000Y-89200000D03*
%TD*%
D13*
%TO.C,C7*%
X165850000Y-83400000D03*
X163950000Y-83400000D03*
%TD*%
D14*
%TO.C,C25*%
X146500000Y-77900000D03*
X148400000Y-77900000D03*
%TD*%
D15*
%TO.C,R8*%
X148325000Y-80000000D03*
X146500000Y-80000000D03*
%TD*%
D16*
%TO.C,H2*%
X158650000Y-110400000D03*
%TD*%
D12*
%TO.C,C5*%
X141400000Y-94600000D03*
X141400000Y-92700000D03*
%TD*%
D17*
%TO.C,C10*%
X139900000Y-86550000D03*
X139900000Y-88450000D03*
%TD*%
%TO.C,C12*%
X137700000Y-86550000D03*
X137700000Y-88450000D03*
%TD*%
D12*
%TO.C,C6*%
X141700000Y-103450000D03*
X141700000Y-101550000D03*
%TD*%
D14*
%TO.C,C19*%
X160900000Y-98750000D03*
X162800000Y-98750000D03*
%TD*%
%TO.C,C22*%
X165800000Y-95650000D03*
X163900000Y-95650000D03*
%TD*%
D13*
%TO.C,C17*%
X147250000Y-98750000D03*
X145350000Y-98750000D03*
%TD*%
%TO.C,C23*%
X163850000Y-89100000D03*
X165750000Y-89100000D03*
%TD*%
D18*
%TO.C,R7*%
X145425000Y-94600000D03*
X147250000Y-94600000D03*
%TD*%
D15*
%TO.C,R4*%
X137712500Y-105300000D03*
X135887500Y-105300000D03*
%TD*%
D12*
%TO.C,C14*%
X148300000Y-86950000D03*
X148300000Y-85050000D03*
%TD*%
D19*
%TO.C,J4*%
X155200000Y-79500000D03*
X154550000Y-79500000D03*
X153900000Y-79500000D03*
X153250000Y-79500000D03*
X152600000Y-79500000D03*
D20*
X157400000Y-76800000D03*
D21*
X156800000Y-76800000D03*
D22*
X156400000Y-79500000D03*
D23*
X154900000Y-76800000D03*
X152900000Y-76800000D03*
D22*
X151400000Y-79500000D03*
D21*
X151000000Y-76800000D03*
D20*
X150400000Y-76800000D03*
%TD*%
D12*
%TO.C,C3*%
X131800000Y-94650000D03*
X131800000Y-92750000D03*
%TD*%
D14*
%TO.C,C16*%
X145350000Y-96650000D03*
X147250000Y-96650000D03*
%TD*%
D24*
%TO.C,U3*%
X138600000Y-94650000D03*
X138600000Y-94000000D03*
X138600000Y-93350000D03*
X138600000Y-92700000D03*
X134300000Y-92700000D03*
X134300000Y-93350000D03*
X134300000Y-94000000D03*
X134300000Y-94650000D03*
D25*
X136450000Y-93675000D03*
%TD*%
D17*
%TO.C,C21*%
X152600000Y-109900000D03*
X152600000Y-111800000D03*
%TD*%
D16*
%TO.C,H1*%
X133150000Y-110400000D03*
%TD*%
D26*
%TO.C,U6*%
X151762500Y-83900000D03*
X151762500Y-84850000D03*
X151762500Y-85800000D03*
X154037500Y-85800000D03*
X154037500Y-84850000D03*
X154037500Y-83900000D03*
%TD*%
D14*
%TO.C,C1*%
X131550000Y-90800000D03*
X133450000Y-90800000D03*
%TD*%
D15*
%TO.C,R1*%
X137012500Y-90800000D03*
X135187500Y-90800000D03*
%TD*%
D14*
%TO.C,C8*%
X163950000Y-85500000D03*
X165850000Y-85500000D03*
%TD*%
D17*
%TO.C,C20*%
X154500000Y-106250000D03*
X154500000Y-108150000D03*
%TD*%
D16*
%TO.C,H3*%
X158650000Y-84900000D03*
%TD*%
D12*
%TO.C,C24*%
X161150000Y-91150000D03*
X161150000Y-93050000D03*
%TD*%
D14*
%TO.C,C2*%
X131950000Y-99600000D03*
X133850000Y-99600000D03*
%TD*%
D27*
%TO.C,J3*%
X138945000Y-109400000D03*
D28*
X138945000Y-111400000D03*
X140945000Y-109400000D03*
X140945000Y-111400000D03*
X142945000Y-109400000D03*
X142945000Y-111400000D03*
X144945000Y-109400000D03*
X144945000Y-111400000D03*
X146945000Y-109400000D03*
X146945000Y-111400000D03*
X148945000Y-109400000D03*
X148945000Y-111400000D03*
%TD*%
D16*
%TO.C,H4*%
X133150000Y-84900000D03*
%TD*%
D29*
%TO.C,U5*%
X151650000Y-102162500D03*
X152150000Y-102162500D03*
X152650000Y-102162500D03*
X153150000Y-102162500D03*
X153650000Y-102162500D03*
X154150000Y-102162500D03*
X154650000Y-102162500D03*
X155150000Y-102162500D03*
X155650000Y-102162500D03*
X156150000Y-102162500D03*
X156650000Y-102162500D03*
X157150000Y-102162500D03*
D30*
X158562500Y-100750000D03*
X158562500Y-100250000D03*
X158562500Y-99750000D03*
X158562500Y-99250000D03*
X158562500Y-98750000D03*
X158562500Y-98250000D03*
X158562500Y-97750000D03*
X158562500Y-97250000D03*
X158562500Y-96750000D03*
X158562500Y-96250000D03*
X158562500Y-95750000D03*
X158562500Y-95250000D03*
D29*
X157150000Y-93837500D03*
X156650000Y-93837500D03*
X156150000Y-93837500D03*
X155650000Y-93837500D03*
X155150000Y-93837500D03*
X154650000Y-93837500D03*
X154150000Y-93837500D03*
X153650000Y-93837500D03*
X153150000Y-93837500D03*
X152650000Y-93837500D03*
X152150000Y-93837500D03*
X151650000Y-93837500D03*
D30*
X150237500Y-95250000D03*
X150237500Y-95750000D03*
X150237500Y-96250000D03*
X150237500Y-96750000D03*
X150237500Y-97250000D03*
X150237500Y-97750000D03*
X150237500Y-98250000D03*
X150237500Y-98750000D03*
X150237500Y-99250000D03*
X150237500Y-99750000D03*
X150237500Y-100250000D03*
X150237500Y-100750000D03*
%TD*%
D14*
%TO.C,C18*%
X154250000Y-104450000D03*
X156150000Y-104450000D03*
%TD*%
D31*
%TO.C,J1*%
X165920000Y-106250000D03*
X161850000Y-106250000D03*
X165920000Y-104980000D03*
X161850000Y-104980000D03*
X165920000Y-103710000D03*
X161850000Y-103710000D03*
X165920000Y-102440000D03*
X161850000Y-102440000D03*
X165920000Y-101170000D03*
X161850000Y-101170000D03*
%TD*%
D15*
%TO.C,R2*%
X137112500Y-96500000D03*
X135287500Y-96500000D03*
%TD*%
D32*
%TO.C,D1*%
X150100000Y-84550000D03*
X150100000Y-85250000D03*
%TD*%
D33*
%TO.C,U4*%
X146575000Y-83130000D03*
X145925000Y-83130000D03*
X145275000Y-83130000D03*
X144625000Y-83130000D03*
X143975000Y-83130000D03*
X143325000Y-83130000D03*
X142675000Y-83130000D03*
X142025000Y-83130000D03*
X142025000Y-88870000D03*
X142675000Y-88870000D03*
X143325000Y-88870000D03*
X143975000Y-88870000D03*
X144625000Y-88870000D03*
X145275000Y-88870000D03*
X145925000Y-88870000D03*
X146575000Y-88870000D03*
%TD*%
D18*
%TO.C,R6*%
X145387500Y-100800000D03*
X147212500Y-100800000D03*
%TD*%
D17*
%TO.C,C4*%
X132150000Y-101475000D03*
X132150000Y-103375000D03*
%TD*%
D18*
%TO.C,R5*%
X143887500Y-103700000D03*
X145712500Y-103700000D03*
%TD*%
D34*
%TO.C,L2*%
X152550000Y-106187500D03*
X152550000Y-108312500D03*
%TD*%
D35*
%TO.C,U8*%
X163350000Y-93000000D03*
X163350000Y-91100000D03*
X166050000Y-91100000D03*
X166050000Y-92050000D03*
X166050000Y-93000000D03*
%TD*%
D24*
%TO.C,U2*%
X138950000Y-103475000D03*
X138950000Y-102825000D03*
X138950000Y-102175000D03*
X138950000Y-101525000D03*
X134650000Y-101525000D03*
X134650000Y-102175000D03*
X134650000Y-102825000D03*
X134650000Y-103475000D03*
D25*
X136800000Y-102500000D03*
%TD*%
D15*
%TO.C,R3*%
X137412500Y-99600000D03*
X135587500Y-99600000D03*
%TD*%
D13*
%TO.C,C15*%
X145762500Y-105800000D03*
X143862500Y-105800000D03*
%TD*%
D34*
%TO.C,L1*%
X159900000Y-77037500D03*
X159900000Y-79162500D03*
%TD*%
D36*
%TO.C,J2*%
X138900000Y-78400000D03*
X134650000Y-78400000D03*
X143150000Y-78400000D03*
%TD*%
M02*
