%TF.GenerationSoftware,KiCad,Pcbnew,8.0.8*%
%TF.CreationDate,2025-04-15T16:12:00+02:00*%
%TF.ProjectId,gFocus,67466f63-7573-42e6-9b69-6361645f7063,rev?*%
%TF.SameCoordinates,Original*%
%TF.FileFunction,Legend,Top*%
%TF.FilePolarity,Positive*%
%FSLAX46Y46*%
G04 Gerber Fmt 4.6, Leading zero omitted, Abs format (unit mm)*
G04 Created by KiCad (PCBNEW 8.0.8) date 2025-04-15 16:12:00*
%MOMM*%
%LPD*%
G01*
G04 APERTURE LIST*
%ADD10C,0.150000*%
%ADD11C,0.120191*%
%ADD12C,0.100000*%
%ADD13C,0.120000*%
%ADD14C,0.127000*%
%ADD15C,0.200000*%
G04 APERTURE END LIST*
D10*
X127738095Y-107837319D02*
X127738095Y-108646842D01*
X127738095Y-108646842D02*
X127785714Y-108742080D01*
X127785714Y-108742080D02*
X127833333Y-108789700D01*
X127833333Y-108789700D02*
X127928571Y-108837319D01*
X127928571Y-108837319D02*
X128119047Y-108837319D01*
X128119047Y-108837319D02*
X128214285Y-108789700D01*
X128214285Y-108789700D02*
X128261904Y-108742080D01*
X128261904Y-108742080D02*
X128309523Y-108646842D01*
X128309523Y-108646842D02*
X128309523Y-107837319D01*
X129309523Y-108837319D02*
X128738095Y-108837319D01*
X129023809Y-108837319D02*
X129023809Y-107837319D01*
X129023809Y-107837319D02*
X128928571Y-107980176D01*
X128928571Y-107980176D02*
X128833333Y-108075414D01*
X128833333Y-108075414D02*
X128738095Y-108123033D01*
X149379580Y-90316666D02*
X149427200Y-90364285D01*
X149427200Y-90364285D02*
X149474819Y-90507142D01*
X149474819Y-90507142D02*
X149474819Y-90602380D01*
X149474819Y-90602380D02*
X149427200Y-90745237D01*
X149427200Y-90745237D02*
X149331961Y-90840475D01*
X149331961Y-90840475D02*
X149236723Y-90888094D01*
X149236723Y-90888094D02*
X149046247Y-90935713D01*
X149046247Y-90935713D02*
X148903390Y-90935713D01*
X148903390Y-90935713D02*
X148712914Y-90888094D01*
X148712914Y-90888094D02*
X148617676Y-90840475D01*
X148617676Y-90840475D02*
X148522438Y-90745237D01*
X148522438Y-90745237D02*
X148474819Y-90602380D01*
X148474819Y-90602380D02*
X148474819Y-90507142D01*
X148474819Y-90507142D02*
X148522438Y-90364285D01*
X148522438Y-90364285D02*
X148570057Y-90316666D01*
X149474819Y-89840475D02*
X149474819Y-89649999D01*
X149474819Y-89649999D02*
X149427200Y-89554761D01*
X149427200Y-89554761D02*
X149379580Y-89507142D01*
X149379580Y-89507142D02*
X149236723Y-89411904D01*
X149236723Y-89411904D02*
X149046247Y-89364285D01*
X149046247Y-89364285D02*
X148665295Y-89364285D01*
X148665295Y-89364285D02*
X148570057Y-89411904D01*
X148570057Y-89411904D02*
X148522438Y-89459523D01*
X148522438Y-89459523D02*
X148474819Y-89554761D01*
X148474819Y-89554761D02*
X148474819Y-89745237D01*
X148474819Y-89745237D02*
X148522438Y-89840475D01*
X148522438Y-89840475D02*
X148570057Y-89888094D01*
X148570057Y-89888094D02*
X148665295Y-89935713D01*
X148665295Y-89935713D02*
X148903390Y-89935713D01*
X148903390Y-89935713D02*
X148998628Y-89888094D01*
X148998628Y-89888094D02*
X149046247Y-89840475D01*
X149046247Y-89840475D02*
X149093866Y-89745237D01*
X149093866Y-89745237D02*
X149093866Y-89554761D01*
X149093866Y-89554761D02*
X149046247Y-89459523D01*
X149046247Y-89459523D02*
X148998628Y-89411904D01*
X148998628Y-89411904D02*
X148903390Y-89364285D01*
X167759580Y-83666666D02*
X167807200Y-83714285D01*
X167807200Y-83714285D02*
X167854819Y-83857142D01*
X167854819Y-83857142D02*
X167854819Y-83952380D01*
X167854819Y-83952380D02*
X167807200Y-84095237D01*
X167807200Y-84095237D02*
X167711961Y-84190475D01*
X167711961Y-84190475D02*
X167616723Y-84238094D01*
X167616723Y-84238094D02*
X167426247Y-84285713D01*
X167426247Y-84285713D02*
X167283390Y-84285713D01*
X167283390Y-84285713D02*
X167092914Y-84238094D01*
X167092914Y-84238094D02*
X166997676Y-84190475D01*
X166997676Y-84190475D02*
X166902438Y-84095237D01*
X166902438Y-84095237D02*
X166854819Y-83952380D01*
X166854819Y-83952380D02*
X166854819Y-83857142D01*
X166854819Y-83857142D02*
X166902438Y-83714285D01*
X166902438Y-83714285D02*
X166950057Y-83666666D01*
X166854819Y-83333332D02*
X166854819Y-82666666D01*
X166854819Y-82666666D02*
X167854819Y-83095237D01*
X145509580Y-78242857D02*
X145557200Y-78290476D01*
X145557200Y-78290476D02*
X145604819Y-78433333D01*
X145604819Y-78433333D02*
X145604819Y-78528571D01*
X145604819Y-78528571D02*
X145557200Y-78671428D01*
X145557200Y-78671428D02*
X145461961Y-78766666D01*
X145461961Y-78766666D02*
X145366723Y-78814285D01*
X145366723Y-78814285D02*
X145176247Y-78861904D01*
X145176247Y-78861904D02*
X145033390Y-78861904D01*
X145033390Y-78861904D02*
X144842914Y-78814285D01*
X144842914Y-78814285D02*
X144747676Y-78766666D01*
X144747676Y-78766666D02*
X144652438Y-78671428D01*
X144652438Y-78671428D02*
X144604819Y-78528571D01*
X144604819Y-78528571D02*
X144604819Y-78433333D01*
X144604819Y-78433333D02*
X144652438Y-78290476D01*
X144652438Y-78290476D02*
X144700057Y-78242857D01*
X144700057Y-77861904D02*
X144652438Y-77814285D01*
X144652438Y-77814285D02*
X144604819Y-77719047D01*
X144604819Y-77719047D02*
X144604819Y-77480952D01*
X144604819Y-77480952D02*
X144652438Y-77385714D01*
X144652438Y-77385714D02*
X144700057Y-77338095D01*
X144700057Y-77338095D02*
X144795295Y-77290476D01*
X144795295Y-77290476D02*
X144890533Y-77290476D01*
X144890533Y-77290476D02*
X145033390Y-77338095D01*
X145033390Y-77338095D02*
X145604819Y-77909523D01*
X145604819Y-77909523D02*
X145604819Y-77290476D01*
X144604819Y-76385714D02*
X144604819Y-76861904D01*
X144604819Y-76861904D02*
X145081009Y-76909523D01*
X145081009Y-76909523D02*
X145033390Y-76861904D01*
X145033390Y-76861904D02*
X144985771Y-76766666D01*
X144985771Y-76766666D02*
X144985771Y-76528571D01*
X144985771Y-76528571D02*
X145033390Y-76433333D01*
X145033390Y-76433333D02*
X145081009Y-76385714D01*
X145081009Y-76385714D02*
X145176247Y-76338095D01*
X145176247Y-76338095D02*
X145414342Y-76338095D01*
X145414342Y-76338095D02*
X145509580Y-76385714D01*
X145509580Y-76385714D02*
X145557200Y-76433333D01*
X145557200Y-76433333D02*
X145604819Y-76528571D01*
X145604819Y-76528571D02*
X145604819Y-76766666D01*
X145604819Y-76766666D02*
X145557200Y-76861904D01*
X145557200Y-76861904D02*
X145509580Y-76909523D01*
X145604819Y-80166666D02*
X145128628Y-80499999D01*
X145604819Y-80738094D02*
X144604819Y-80738094D01*
X144604819Y-80738094D02*
X144604819Y-80357142D01*
X144604819Y-80357142D02*
X144652438Y-80261904D01*
X144652438Y-80261904D02*
X144700057Y-80214285D01*
X144700057Y-80214285D02*
X144795295Y-80166666D01*
X144795295Y-80166666D02*
X144938152Y-80166666D01*
X144938152Y-80166666D02*
X145033390Y-80214285D01*
X145033390Y-80214285D02*
X145081009Y-80261904D01*
X145081009Y-80261904D02*
X145128628Y-80357142D01*
X145128628Y-80357142D02*
X145128628Y-80738094D01*
X145033390Y-79595237D02*
X144985771Y-79690475D01*
X144985771Y-79690475D02*
X144938152Y-79738094D01*
X144938152Y-79738094D02*
X144842914Y-79785713D01*
X144842914Y-79785713D02*
X144795295Y-79785713D01*
X144795295Y-79785713D02*
X144700057Y-79738094D01*
X144700057Y-79738094D02*
X144652438Y-79690475D01*
X144652438Y-79690475D02*
X144604819Y-79595237D01*
X144604819Y-79595237D02*
X144604819Y-79404761D01*
X144604819Y-79404761D02*
X144652438Y-79309523D01*
X144652438Y-79309523D02*
X144700057Y-79261904D01*
X144700057Y-79261904D02*
X144795295Y-79214285D01*
X144795295Y-79214285D02*
X144842914Y-79214285D01*
X144842914Y-79214285D02*
X144938152Y-79261904D01*
X144938152Y-79261904D02*
X144985771Y-79309523D01*
X144985771Y-79309523D02*
X145033390Y-79404761D01*
X145033390Y-79404761D02*
X145033390Y-79595237D01*
X145033390Y-79595237D02*
X145081009Y-79690475D01*
X145081009Y-79690475D02*
X145128628Y-79738094D01*
X145128628Y-79738094D02*
X145223866Y-79785713D01*
X145223866Y-79785713D02*
X145414342Y-79785713D01*
X145414342Y-79785713D02*
X145509580Y-79738094D01*
X145509580Y-79738094D02*
X145557200Y-79690475D01*
X145557200Y-79690475D02*
X145604819Y-79595237D01*
X145604819Y-79595237D02*
X145604819Y-79404761D01*
X145604819Y-79404761D02*
X145557200Y-79309523D01*
X145557200Y-79309523D02*
X145509580Y-79261904D01*
X145509580Y-79261904D02*
X145414342Y-79214285D01*
X145414342Y-79214285D02*
X145223866Y-79214285D01*
X145223866Y-79214285D02*
X145128628Y-79261904D01*
X145128628Y-79261904D02*
X145081009Y-79309523D01*
X145081009Y-79309523D02*
X145033390Y-79404761D01*
X157888095Y-106654819D02*
X157888095Y-105654819D01*
X157888095Y-106131009D02*
X158459523Y-106131009D01*
X158459523Y-106654819D02*
X158459523Y-105654819D01*
X158888095Y-105750057D02*
X158935714Y-105702438D01*
X158935714Y-105702438D02*
X159030952Y-105654819D01*
X159030952Y-105654819D02*
X159269047Y-105654819D01*
X159269047Y-105654819D02*
X159364285Y-105702438D01*
X159364285Y-105702438D02*
X159411904Y-105750057D01*
X159411904Y-105750057D02*
X159459523Y-105845295D01*
X159459523Y-105845295D02*
X159459523Y-105940533D01*
X159459523Y-105940533D02*
X159411904Y-106083390D01*
X159411904Y-106083390D02*
X158840476Y-106654819D01*
X158840476Y-106654819D02*
X159459523Y-106654819D01*
X141183333Y-91659580D02*
X141135714Y-91707200D01*
X141135714Y-91707200D02*
X140992857Y-91754819D01*
X140992857Y-91754819D02*
X140897619Y-91754819D01*
X140897619Y-91754819D02*
X140754762Y-91707200D01*
X140754762Y-91707200D02*
X140659524Y-91611961D01*
X140659524Y-91611961D02*
X140611905Y-91516723D01*
X140611905Y-91516723D02*
X140564286Y-91326247D01*
X140564286Y-91326247D02*
X140564286Y-91183390D01*
X140564286Y-91183390D02*
X140611905Y-90992914D01*
X140611905Y-90992914D02*
X140659524Y-90897676D01*
X140659524Y-90897676D02*
X140754762Y-90802438D01*
X140754762Y-90802438D02*
X140897619Y-90754819D01*
X140897619Y-90754819D02*
X140992857Y-90754819D01*
X140992857Y-90754819D02*
X141135714Y-90802438D01*
X141135714Y-90802438D02*
X141183333Y-90850057D01*
X142088095Y-90754819D02*
X141611905Y-90754819D01*
X141611905Y-90754819D02*
X141564286Y-91231009D01*
X141564286Y-91231009D02*
X141611905Y-91183390D01*
X141611905Y-91183390D02*
X141707143Y-91135771D01*
X141707143Y-91135771D02*
X141945238Y-91135771D01*
X141945238Y-91135771D02*
X142040476Y-91183390D01*
X142040476Y-91183390D02*
X142088095Y-91231009D01*
X142088095Y-91231009D02*
X142135714Y-91326247D01*
X142135714Y-91326247D02*
X142135714Y-91564342D01*
X142135714Y-91564342D02*
X142088095Y-91659580D01*
X142088095Y-91659580D02*
X142040476Y-91707200D01*
X142040476Y-91707200D02*
X141945238Y-91754819D01*
X141945238Y-91754819D02*
X141707143Y-91754819D01*
X141707143Y-91754819D02*
X141611905Y-91707200D01*
X141611905Y-91707200D02*
X141564286Y-91659580D01*
X140259580Y-84742857D02*
X140307200Y-84790476D01*
X140307200Y-84790476D02*
X140354819Y-84933333D01*
X140354819Y-84933333D02*
X140354819Y-85028571D01*
X140354819Y-85028571D02*
X140307200Y-85171428D01*
X140307200Y-85171428D02*
X140211961Y-85266666D01*
X140211961Y-85266666D02*
X140116723Y-85314285D01*
X140116723Y-85314285D02*
X139926247Y-85361904D01*
X139926247Y-85361904D02*
X139783390Y-85361904D01*
X139783390Y-85361904D02*
X139592914Y-85314285D01*
X139592914Y-85314285D02*
X139497676Y-85266666D01*
X139497676Y-85266666D02*
X139402438Y-85171428D01*
X139402438Y-85171428D02*
X139354819Y-85028571D01*
X139354819Y-85028571D02*
X139354819Y-84933333D01*
X139354819Y-84933333D02*
X139402438Y-84790476D01*
X139402438Y-84790476D02*
X139450057Y-84742857D01*
X140354819Y-83790476D02*
X140354819Y-84361904D01*
X140354819Y-84076190D02*
X139354819Y-84076190D01*
X139354819Y-84076190D02*
X139497676Y-84171428D01*
X139497676Y-84171428D02*
X139592914Y-84266666D01*
X139592914Y-84266666D02*
X139640533Y-84361904D01*
X139354819Y-83171428D02*
X139354819Y-83076190D01*
X139354819Y-83076190D02*
X139402438Y-82980952D01*
X139402438Y-82980952D02*
X139450057Y-82933333D01*
X139450057Y-82933333D02*
X139545295Y-82885714D01*
X139545295Y-82885714D02*
X139735771Y-82838095D01*
X139735771Y-82838095D02*
X139973866Y-82838095D01*
X139973866Y-82838095D02*
X140164342Y-82885714D01*
X140164342Y-82885714D02*
X140259580Y-82933333D01*
X140259580Y-82933333D02*
X140307200Y-82980952D01*
X140307200Y-82980952D02*
X140354819Y-83076190D01*
X140354819Y-83076190D02*
X140354819Y-83171428D01*
X140354819Y-83171428D02*
X140307200Y-83266666D01*
X140307200Y-83266666D02*
X140259580Y-83314285D01*
X140259580Y-83314285D02*
X140164342Y-83361904D01*
X140164342Y-83361904D02*
X139973866Y-83409523D01*
X139973866Y-83409523D02*
X139735771Y-83409523D01*
X139735771Y-83409523D02*
X139545295Y-83361904D01*
X139545295Y-83361904D02*
X139450057Y-83314285D01*
X139450057Y-83314285D02*
X139402438Y-83266666D01*
X139402438Y-83266666D02*
X139354819Y-83171428D01*
X138059580Y-84842857D02*
X138107200Y-84890476D01*
X138107200Y-84890476D02*
X138154819Y-85033333D01*
X138154819Y-85033333D02*
X138154819Y-85128571D01*
X138154819Y-85128571D02*
X138107200Y-85271428D01*
X138107200Y-85271428D02*
X138011961Y-85366666D01*
X138011961Y-85366666D02*
X137916723Y-85414285D01*
X137916723Y-85414285D02*
X137726247Y-85461904D01*
X137726247Y-85461904D02*
X137583390Y-85461904D01*
X137583390Y-85461904D02*
X137392914Y-85414285D01*
X137392914Y-85414285D02*
X137297676Y-85366666D01*
X137297676Y-85366666D02*
X137202438Y-85271428D01*
X137202438Y-85271428D02*
X137154819Y-85128571D01*
X137154819Y-85128571D02*
X137154819Y-85033333D01*
X137154819Y-85033333D02*
X137202438Y-84890476D01*
X137202438Y-84890476D02*
X137250057Y-84842857D01*
X138154819Y-83890476D02*
X138154819Y-84461904D01*
X138154819Y-84176190D02*
X137154819Y-84176190D01*
X137154819Y-84176190D02*
X137297676Y-84271428D01*
X137297676Y-84271428D02*
X137392914Y-84366666D01*
X137392914Y-84366666D02*
X137440533Y-84461904D01*
X137250057Y-83509523D02*
X137202438Y-83461904D01*
X137202438Y-83461904D02*
X137154819Y-83366666D01*
X137154819Y-83366666D02*
X137154819Y-83128571D01*
X137154819Y-83128571D02*
X137202438Y-83033333D01*
X137202438Y-83033333D02*
X137250057Y-82985714D01*
X137250057Y-82985714D02*
X137345295Y-82938095D01*
X137345295Y-82938095D02*
X137440533Y-82938095D01*
X137440533Y-82938095D02*
X137583390Y-82985714D01*
X137583390Y-82985714D02*
X138154819Y-83557142D01*
X138154819Y-83557142D02*
X138154819Y-82938095D01*
X143633333Y-102459580D02*
X143585714Y-102507200D01*
X143585714Y-102507200D02*
X143442857Y-102554819D01*
X143442857Y-102554819D02*
X143347619Y-102554819D01*
X143347619Y-102554819D02*
X143204762Y-102507200D01*
X143204762Y-102507200D02*
X143109524Y-102411961D01*
X143109524Y-102411961D02*
X143061905Y-102316723D01*
X143061905Y-102316723D02*
X143014286Y-102126247D01*
X143014286Y-102126247D02*
X143014286Y-101983390D01*
X143014286Y-101983390D02*
X143061905Y-101792914D01*
X143061905Y-101792914D02*
X143109524Y-101697676D01*
X143109524Y-101697676D02*
X143204762Y-101602438D01*
X143204762Y-101602438D02*
X143347619Y-101554819D01*
X143347619Y-101554819D02*
X143442857Y-101554819D01*
X143442857Y-101554819D02*
X143585714Y-101602438D01*
X143585714Y-101602438D02*
X143633333Y-101650057D01*
X144490476Y-101554819D02*
X144300000Y-101554819D01*
X144300000Y-101554819D02*
X144204762Y-101602438D01*
X144204762Y-101602438D02*
X144157143Y-101650057D01*
X144157143Y-101650057D02*
X144061905Y-101792914D01*
X144061905Y-101792914D02*
X144014286Y-101983390D01*
X144014286Y-101983390D02*
X144014286Y-102364342D01*
X144014286Y-102364342D02*
X144061905Y-102459580D01*
X144061905Y-102459580D02*
X144109524Y-102507200D01*
X144109524Y-102507200D02*
X144204762Y-102554819D01*
X144204762Y-102554819D02*
X144395238Y-102554819D01*
X144395238Y-102554819D02*
X144490476Y-102507200D01*
X144490476Y-102507200D02*
X144538095Y-102459580D01*
X144538095Y-102459580D02*
X144585714Y-102364342D01*
X144585714Y-102364342D02*
X144585714Y-102126247D01*
X144585714Y-102126247D02*
X144538095Y-102031009D01*
X144538095Y-102031009D02*
X144490476Y-101983390D01*
X144490476Y-101983390D02*
X144395238Y-101935771D01*
X144395238Y-101935771D02*
X144204762Y-101935771D01*
X144204762Y-101935771D02*
X144109524Y-101983390D01*
X144109524Y-101983390D02*
X144061905Y-102031009D01*
X144061905Y-102031009D02*
X144014286Y-102126247D01*
X164507142Y-99109580D02*
X164459523Y-99157200D01*
X164459523Y-99157200D02*
X164316666Y-99204819D01*
X164316666Y-99204819D02*
X164221428Y-99204819D01*
X164221428Y-99204819D02*
X164078571Y-99157200D01*
X164078571Y-99157200D02*
X163983333Y-99061961D01*
X163983333Y-99061961D02*
X163935714Y-98966723D01*
X163935714Y-98966723D02*
X163888095Y-98776247D01*
X163888095Y-98776247D02*
X163888095Y-98633390D01*
X163888095Y-98633390D02*
X163935714Y-98442914D01*
X163935714Y-98442914D02*
X163983333Y-98347676D01*
X163983333Y-98347676D02*
X164078571Y-98252438D01*
X164078571Y-98252438D02*
X164221428Y-98204819D01*
X164221428Y-98204819D02*
X164316666Y-98204819D01*
X164316666Y-98204819D02*
X164459523Y-98252438D01*
X164459523Y-98252438D02*
X164507142Y-98300057D01*
X165459523Y-99204819D02*
X164888095Y-99204819D01*
X165173809Y-99204819D02*
X165173809Y-98204819D01*
X165173809Y-98204819D02*
X165078571Y-98347676D01*
X165078571Y-98347676D02*
X164983333Y-98442914D01*
X164983333Y-98442914D02*
X164888095Y-98490533D01*
X165935714Y-99204819D02*
X166126190Y-99204819D01*
X166126190Y-99204819D02*
X166221428Y-99157200D01*
X166221428Y-99157200D02*
X166269047Y-99109580D01*
X166269047Y-99109580D02*
X166364285Y-98966723D01*
X166364285Y-98966723D02*
X166411904Y-98776247D01*
X166411904Y-98776247D02*
X166411904Y-98395295D01*
X166411904Y-98395295D02*
X166364285Y-98300057D01*
X166364285Y-98300057D02*
X166316666Y-98252438D01*
X166316666Y-98252438D02*
X166221428Y-98204819D01*
X166221428Y-98204819D02*
X166030952Y-98204819D01*
X166030952Y-98204819D02*
X165935714Y-98252438D01*
X165935714Y-98252438D02*
X165888095Y-98300057D01*
X165888095Y-98300057D02*
X165840476Y-98395295D01*
X165840476Y-98395295D02*
X165840476Y-98633390D01*
X165840476Y-98633390D02*
X165888095Y-98728628D01*
X165888095Y-98728628D02*
X165935714Y-98776247D01*
X165935714Y-98776247D02*
X166030952Y-98823866D01*
X166030952Y-98823866D02*
X166221428Y-98823866D01*
X166221428Y-98823866D02*
X166316666Y-98776247D01*
X166316666Y-98776247D02*
X166364285Y-98728628D01*
X166364285Y-98728628D02*
X166411904Y-98633390D01*
X160844642Y-96959580D02*
X160797023Y-97007200D01*
X160797023Y-97007200D02*
X160654166Y-97054819D01*
X160654166Y-97054819D02*
X160558928Y-97054819D01*
X160558928Y-97054819D02*
X160416071Y-97007200D01*
X160416071Y-97007200D02*
X160320833Y-96911961D01*
X160320833Y-96911961D02*
X160273214Y-96816723D01*
X160273214Y-96816723D02*
X160225595Y-96626247D01*
X160225595Y-96626247D02*
X160225595Y-96483390D01*
X160225595Y-96483390D02*
X160273214Y-96292914D01*
X160273214Y-96292914D02*
X160320833Y-96197676D01*
X160320833Y-96197676D02*
X160416071Y-96102438D01*
X160416071Y-96102438D02*
X160558928Y-96054819D01*
X160558928Y-96054819D02*
X160654166Y-96054819D01*
X160654166Y-96054819D02*
X160797023Y-96102438D01*
X160797023Y-96102438D02*
X160844642Y-96150057D01*
X161225595Y-96150057D02*
X161273214Y-96102438D01*
X161273214Y-96102438D02*
X161368452Y-96054819D01*
X161368452Y-96054819D02*
X161606547Y-96054819D01*
X161606547Y-96054819D02*
X161701785Y-96102438D01*
X161701785Y-96102438D02*
X161749404Y-96150057D01*
X161749404Y-96150057D02*
X161797023Y-96245295D01*
X161797023Y-96245295D02*
X161797023Y-96340533D01*
X161797023Y-96340533D02*
X161749404Y-96483390D01*
X161749404Y-96483390D02*
X161177976Y-97054819D01*
X161177976Y-97054819D02*
X161797023Y-97054819D01*
X162177976Y-96150057D02*
X162225595Y-96102438D01*
X162225595Y-96102438D02*
X162320833Y-96054819D01*
X162320833Y-96054819D02*
X162558928Y-96054819D01*
X162558928Y-96054819D02*
X162654166Y-96102438D01*
X162654166Y-96102438D02*
X162701785Y-96150057D01*
X162701785Y-96150057D02*
X162749404Y-96245295D01*
X162749404Y-96245295D02*
X162749404Y-96340533D01*
X162749404Y-96340533D02*
X162701785Y-96483390D01*
X162701785Y-96483390D02*
X162130357Y-97054819D01*
X162130357Y-97054819D02*
X162749404Y-97054819D01*
X142407142Y-99059580D02*
X142359523Y-99107200D01*
X142359523Y-99107200D02*
X142216666Y-99154819D01*
X142216666Y-99154819D02*
X142121428Y-99154819D01*
X142121428Y-99154819D02*
X141978571Y-99107200D01*
X141978571Y-99107200D02*
X141883333Y-99011961D01*
X141883333Y-99011961D02*
X141835714Y-98916723D01*
X141835714Y-98916723D02*
X141788095Y-98726247D01*
X141788095Y-98726247D02*
X141788095Y-98583390D01*
X141788095Y-98583390D02*
X141835714Y-98392914D01*
X141835714Y-98392914D02*
X141883333Y-98297676D01*
X141883333Y-98297676D02*
X141978571Y-98202438D01*
X141978571Y-98202438D02*
X142121428Y-98154819D01*
X142121428Y-98154819D02*
X142216666Y-98154819D01*
X142216666Y-98154819D02*
X142359523Y-98202438D01*
X142359523Y-98202438D02*
X142407142Y-98250057D01*
X143359523Y-99154819D02*
X142788095Y-99154819D01*
X143073809Y-99154819D02*
X143073809Y-98154819D01*
X143073809Y-98154819D02*
X142978571Y-98297676D01*
X142978571Y-98297676D02*
X142883333Y-98392914D01*
X142883333Y-98392914D02*
X142788095Y-98440533D01*
X143692857Y-98154819D02*
X144359523Y-98154819D01*
X144359523Y-98154819D02*
X143930952Y-99154819D01*
X164157142Y-87809580D02*
X164109523Y-87857200D01*
X164109523Y-87857200D02*
X163966666Y-87904819D01*
X163966666Y-87904819D02*
X163871428Y-87904819D01*
X163871428Y-87904819D02*
X163728571Y-87857200D01*
X163728571Y-87857200D02*
X163633333Y-87761961D01*
X163633333Y-87761961D02*
X163585714Y-87666723D01*
X163585714Y-87666723D02*
X163538095Y-87476247D01*
X163538095Y-87476247D02*
X163538095Y-87333390D01*
X163538095Y-87333390D02*
X163585714Y-87142914D01*
X163585714Y-87142914D02*
X163633333Y-87047676D01*
X163633333Y-87047676D02*
X163728571Y-86952438D01*
X163728571Y-86952438D02*
X163871428Y-86904819D01*
X163871428Y-86904819D02*
X163966666Y-86904819D01*
X163966666Y-86904819D02*
X164109523Y-86952438D01*
X164109523Y-86952438D02*
X164157142Y-87000057D01*
X164538095Y-87000057D02*
X164585714Y-86952438D01*
X164585714Y-86952438D02*
X164680952Y-86904819D01*
X164680952Y-86904819D02*
X164919047Y-86904819D01*
X164919047Y-86904819D02*
X165014285Y-86952438D01*
X165014285Y-86952438D02*
X165061904Y-87000057D01*
X165061904Y-87000057D02*
X165109523Y-87095295D01*
X165109523Y-87095295D02*
X165109523Y-87190533D01*
X165109523Y-87190533D02*
X165061904Y-87333390D01*
X165061904Y-87333390D02*
X164490476Y-87904819D01*
X164490476Y-87904819D02*
X165109523Y-87904819D01*
X165442857Y-86904819D02*
X166061904Y-86904819D01*
X166061904Y-86904819D02*
X165728571Y-87285771D01*
X165728571Y-87285771D02*
X165871428Y-87285771D01*
X165871428Y-87285771D02*
X165966666Y-87333390D01*
X165966666Y-87333390D02*
X166014285Y-87381009D01*
X166014285Y-87381009D02*
X166061904Y-87476247D01*
X166061904Y-87476247D02*
X166061904Y-87714342D01*
X166061904Y-87714342D02*
X166014285Y-87809580D01*
X166014285Y-87809580D02*
X165966666Y-87857200D01*
X165966666Y-87857200D02*
X165871428Y-87904819D01*
X165871428Y-87904819D02*
X165585714Y-87904819D01*
X165585714Y-87904819D02*
X165490476Y-87857200D01*
X165490476Y-87857200D02*
X165442857Y-87809580D01*
X143370833Y-95054819D02*
X143037500Y-94578628D01*
X142799405Y-95054819D02*
X142799405Y-94054819D01*
X142799405Y-94054819D02*
X143180357Y-94054819D01*
X143180357Y-94054819D02*
X143275595Y-94102438D01*
X143275595Y-94102438D02*
X143323214Y-94150057D01*
X143323214Y-94150057D02*
X143370833Y-94245295D01*
X143370833Y-94245295D02*
X143370833Y-94388152D01*
X143370833Y-94388152D02*
X143323214Y-94483390D01*
X143323214Y-94483390D02*
X143275595Y-94531009D01*
X143275595Y-94531009D02*
X143180357Y-94578628D01*
X143180357Y-94578628D02*
X142799405Y-94578628D01*
X143704167Y-94054819D02*
X144370833Y-94054819D01*
X144370833Y-94054819D02*
X143942262Y-95054819D01*
X139333333Y-105754819D02*
X139000000Y-105278628D01*
X138761905Y-105754819D02*
X138761905Y-104754819D01*
X138761905Y-104754819D02*
X139142857Y-104754819D01*
X139142857Y-104754819D02*
X139238095Y-104802438D01*
X139238095Y-104802438D02*
X139285714Y-104850057D01*
X139285714Y-104850057D02*
X139333333Y-104945295D01*
X139333333Y-104945295D02*
X139333333Y-105088152D01*
X139333333Y-105088152D02*
X139285714Y-105183390D01*
X139285714Y-105183390D02*
X139238095Y-105231009D01*
X139238095Y-105231009D02*
X139142857Y-105278628D01*
X139142857Y-105278628D02*
X138761905Y-105278628D01*
X140190476Y-105088152D02*
X140190476Y-105754819D01*
X139952381Y-104707200D02*
X139714286Y-105421485D01*
X139714286Y-105421485D02*
X140333333Y-105421485D01*
X149359580Y-83342857D02*
X149407200Y-83390476D01*
X149407200Y-83390476D02*
X149454819Y-83533333D01*
X149454819Y-83533333D02*
X149454819Y-83628571D01*
X149454819Y-83628571D02*
X149407200Y-83771428D01*
X149407200Y-83771428D02*
X149311961Y-83866666D01*
X149311961Y-83866666D02*
X149216723Y-83914285D01*
X149216723Y-83914285D02*
X149026247Y-83961904D01*
X149026247Y-83961904D02*
X148883390Y-83961904D01*
X148883390Y-83961904D02*
X148692914Y-83914285D01*
X148692914Y-83914285D02*
X148597676Y-83866666D01*
X148597676Y-83866666D02*
X148502438Y-83771428D01*
X148502438Y-83771428D02*
X148454819Y-83628571D01*
X148454819Y-83628571D02*
X148454819Y-83533333D01*
X148454819Y-83533333D02*
X148502438Y-83390476D01*
X148502438Y-83390476D02*
X148550057Y-83342857D01*
X149454819Y-82390476D02*
X149454819Y-82961904D01*
X149454819Y-82676190D02*
X148454819Y-82676190D01*
X148454819Y-82676190D02*
X148597676Y-82771428D01*
X148597676Y-82771428D02*
X148692914Y-82866666D01*
X148692914Y-82866666D02*
X148740533Y-82961904D01*
X148788152Y-81533333D02*
X149454819Y-81533333D01*
X148407200Y-81771428D02*
X149121485Y-82009523D01*
X149121485Y-82009523D02*
X149121485Y-81390476D01*
X153566666Y-80604819D02*
X153566666Y-81319104D01*
X153566666Y-81319104D02*
X153519047Y-81461961D01*
X153519047Y-81461961D02*
X153423809Y-81557200D01*
X153423809Y-81557200D02*
X153280952Y-81604819D01*
X153280952Y-81604819D02*
X153185714Y-81604819D01*
X154471428Y-80938152D02*
X154471428Y-81604819D01*
X154233333Y-80557200D02*
X153995238Y-81271485D01*
X153995238Y-81271485D02*
X154614285Y-81271485D01*
X131633333Y-96659580D02*
X131585714Y-96707200D01*
X131585714Y-96707200D02*
X131442857Y-96754819D01*
X131442857Y-96754819D02*
X131347619Y-96754819D01*
X131347619Y-96754819D02*
X131204762Y-96707200D01*
X131204762Y-96707200D02*
X131109524Y-96611961D01*
X131109524Y-96611961D02*
X131061905Y-96516723D01*
X131061905Y-96516723D02*
X131014286Y-96326247D01*
X131014286Y-96326247D02*
X131014286Y-96183390D01*
X131014286Y-96183390D02*
X131061905Y-95992914D01*
X131061905Y-95992914D02*
X131109524Y-95897676D01*
X131109524Y-95897676D02*
X131204762Y-95802438D01*
X131204762Y-95802438D02*
X131347619Y-95754819D01*
X131347619Y-95754819D02*
X131442857Y-95754819D01*
X131442857Y-95754819D02*
X131585714Y-95802438D01*
X131585714Y-95802438D02*
X131633333Y-95850057D01*
X131966667Y-95754819D02*
X132585714Y-95754819D01*
X132585714Y-95754819D02*
X132252381Y-96135771D01*
X132252381Y-96135771D02*
X132395238Y-96135771D01*
X132395238Y-96135771D02*
X132490476Y-96183390D01*
X132490476Y-96183390D02*
X132538095Y-96231009D01*
X132538095Y-96231009D02*
X132585714Y-96326247D01*
X132585714Y-96326247D02*
X132585714Y-96564342D01*
X132585714Y-96564342D02*
X132538095Y-96659580D01*
X132538095Y-96659580D02*
X132490476Y-96707200D01*
X132490476Y-96707200D02*
X132395238Y-96754819D01*
X132395238Y-96754819D02*
X132109524Y-96754819D01*
X132109524Y-96754819D02*
X132014286Y-96707200D01*
X132014286Y-96707200D02*
X131966667Y-96659580D01*
X142507142Y-97009580D02*
X142459523Y-97057200D01*
X142459523Y-97057200D02*
X142316666Y-97104819D01*
X142316666Y-97104819D02*
X142221428Y-97104819D01*
X142221428Y-97104819D02*
X142078571Y-97057200D01*
X142078571Y-97057200D02*
X141983333Y-96961961D01*
X141983333Y-96961961D02*
X141935714Y-96866723D01*
X141935714Y-96866723D02*
X141888095Y-96676247D01*
X141888095Y-96676247D02*
X141888095Y-96533390D01*
X141888095Y-96533390D02*
X141935714Y-96342914D01*
X141935714Y-96342914D02*
X141983333Y-96247676D01*
X141983333Y-96247676D02*
X142078571Y-96152438D01*
X142078571Y-96152438D02*
X142221428Y-96104819D01*
X142221428Y-96104819D02*
X142316666Y-96104819D01*
X142316666Y-96104819D02*
X142459523Y-96152438D01*
X142459523Y-96152438D02*
X142507142Y-96200057D01*
X143459523Y-97104819D02*
X142888095Y-97104819D01*
X143173809Y-97104819D02*
X143173809Y-96104819D01*
X143173809Y-96104819D02*
X143078571Y-96247676D01*
X143078571Y-96247676D02*
X142983333Y-96342914D01*
X142983333Y-96342914D02*
X142888095Y-96390533D01*
X144316666Y-96104819D02*
X144126190Y-96104819D01*
X144126190Y-96104819D02*
X144030952Y-96152438D01*
X144030952Y-96152438D02*
X143983333Y-96200057D01*
X143983333Y-96200057D02*
X143888095Y-96342914D01*
X143888095Y-96342914D02*
X143840476Y-96533390D01*
X143840476Y-96533390D02*
X143840476Y-96914342D01*
X143840476Y-96914342D02*
X143888095Y-97009580D01*
X143888095Y-97009580D02*
X143935714Y-97057200D01*
X143935714Y-97057200D02*
X144030952Y-97104819D01*
X144030952Y-97104819D02*
X144221428Y-97104819D01*
X144221428Y-97104819D02*
X144316666Y-97057200D01*
X144316666Y-97057200D02*
X144364285Y-97009580D01*
X144364285Y-97009580D02*
X144411904Y-96914342D01*
X144411904Y-96914342D02*
X144411904Y-96676247D01*
X144411904Y-96676247D02*
X144364285Y-96581009D01*
X144364285Y-96581009D02*
X144316666Y-96533390D01*
X144316666Y-96533390D02*
X144221428Y-96485771D01*
X144221428Y-96485771D02*
X144030952Y-96485771D01*
X144030952Y-96485771D02*
X143935714Y-96533390D01*
X143935714Y-96533390D02*
X143888095Y-96581009D01*
X143888095Y-96581009D02*
X143840476Y-96676247D01*
X138038095Y-90754819D02*
X138038095Y-91564342D01*
X138038095Y-91564342D02*
X138085714Y-91659580D01*
X138085714Y-91659580D02*
X138133333Y-91707200D01*
X138133333Y-91707200D02*
X138228571Y-91754819D01*
X138228571Y-91754819D02*
X138419047Y-91754819D01*
X138419047Y-91754819D02*
X138514285Y-91707200D01*
X138514285Y-91707200D02*
X138561904Y-91659580D01*
X138561904Y-91659580D02*
X138609523Y-91564342D01*
X138609523Y-91564342D02*
X138609523Y-90754819D01*
X138990476Y-90754819D02*
X139609523Y-90754819D01*
X139609523Y-90754819D02*
X139276190Y-91135771D01*
X139276190Y-91135771D02*
X139419047Y-91135771D01*
X139419047Y-91135771D02*
X139514285Y-91183390D01*
X139514285Y-91183390D02*
X139561904Y-91231009D01*
X139561904Y-91231009D02*
X139609523Y-91326247D01*
X139609523Y-91326247D02*
X139609523Y-91564342D01*
X139609523Y-91564342D02*
X139561904Y-91659580D01*
X139561904Y-91659580D02*
X139514285Y-91707200D01*
X139514285Y-91707200D02*
X139419047Y-91754819D01*
X139419047Y-91754819D02*
X139133333Y-91754819D01*
X139133333Y-91754819D02*
X139038095Y-91707200D01*
X139038095Y-91707200D02*
X138990476Y-91659580D01*
X152307142Y-113859580D02*
X152259523Y-113907200D01*
X152259523Y-113907200D02*
X152116666Y-113954819D01*
X152116666Y-113954819D02*
X152021428Y-113954819D01*
X152021428Y-113954819D02*
X151878571Y-113907200D01*
X151878571Y-113907200D02*
X151783333Y-113811961D01*
X151783333Y-113811961D02*
X151735714Y-113716723D01*
X151735714Y-113716723D02*
X151688095Y-113526247D01*
X151688095Y-113526247D02*
X151688095Y-113383390D01*
X151688095Y-113383390D02*
X151735714Y-113192914D01*
X151735714Y-113192914D02*
X151783333Y-113097676D01*
X151783333Y-113097676D02*
X151878571Y-113002438D01*
X151878571Y-113002438D02*
X152021428Y-112954819D01*
X152021428Y-112954819D02*
X152116666Y-112954819D01*
X152116666Y-112954819D02*
X152259523Y-113002438D01*
X152259523Y-113002438D02*
X152307142Y-113050057D01*
X152688095Y-113050057D02*
X152735714Y-113002438D01*
X152735714Y-113002438D02*
X152830952Y-112954819D01*
X152830952Y-112954819D02*
X153069047Y-112954819D01*
X153069047Y-112954819D02*
X153164285Y-113002438D01*
X153164285Y-113002438D02*
X153211904Y-113050057D01*
X153211904Y-113050057D02*
X153259523Y-113145295D01*
X153259523Y-113145295D02*
X153259523Y-113240533D01*
X153259523Y-113240533D02*
X153211904Y-113383390D01*
X153211904Y-113383390D02*
X152640476Y-113954819D01*
X152640476Y-113954819D02*
X153259523Y-113954819D01*
X154211904Y-113954819D02*
X153640476Y-113954819D01*
X153926190Y-113954819D02*
X153926190Y-112954819D01*
X153926190Y-112954819D02*
X153830952Y-113097676D01*
X153830952Y-113097676D02*
X153735714Y-113192914D01*
X153735714Y-113192914D02*
X153640476Y-113240533D01*
X132388095Y-106654819D02*
X132388095Y-105654819D01*
X132388095Y-106131009D02*
X132959523Y-106131009D01*
X132959523Y-106654819D02*
X132959523Y-105654819D01*
X133959523Y-106654819D02*
X133388095Y-106654819D01*
X133673809Y-106654819D02*
X133673809Y-105654819D01*
X133673809Y-105654819D02*
X133578571Y-105797676D01*
X133578571Y-105797676D02*
X133483333Y-105892914D01*
X133483333Y-105892914D02*
X133388095Y-105940533D01*
X152138095Y-86704819D02*
X152138095Y-87514342D01*
X152138095Y-87514342D02*
X152185714Y-87609580D01*
X152185714Y-87609580D02*
X152233333Y-87657200D01*
X152233333Y-87657200D02*
X152328571Y-87704819D01*
X152328571Y-87704819D02*
X152519047Y-87704819D01*
X152519047Y-87704819D02*
X152614285Y-87657200D01*
X152614285Y-87657200D02*
X152661904Y-87609580D01*
X152661904Y-87609580D02*
X152709523Y-87514342D01*
X152709523Y-87514342D02*
X152709523Y-86704819D01*
X153614285Y-86704819D02*
X153423809Y-86704819D01*
X153423809Y-86704819D02*
X153328571Y-86752438D01*
X153328571Y-86752438D02*
X153280952Y-86800057D01*
X153280952Y-86800057D02*
X153185714Y-86942914D01*
X153185714Y-86942914D02*
X153138095Y-87133390D01*
X153138095Y-87133390D02*
X153138095Y-87514342D01*
X153138095Y-87514342D02*
X153185714Y-87609580D01*
X153185714Y-87609580D02*
X153233333Y-87657200D01*
X153233333Y-87657200D02*
X153328571Y-87704819D01*
X153328571Y-87704819D02*
X153519047Y-87704819D01*
X153519047Y-87704819D02*
X153614285Y-87657200D01*
X153614285Y-87657200D02*
X153661904Y-87609580D01*
X153661904Y-87609580D02*
X153709523Y-87514342D01*
X153709523Y-87514342D02*
X153709523Y-87276247D01*
X153709523Y-87276247D02*
X153661904Y-87181009D01*
X153661904Y-87181009D02*
X153614285Y-87133390D01*
X153614285Y-87133390D02*
X153519047Y-87085771D01*
X153519047Y-87085771D02*
X153328571Y-87085771D01*
X153328571Y-87085771D02*
X153233333Y-87133390D01*
X153233333Y-87133390D02*
X153185714Y-87181009D01*
X153185714Y-87181009D02*
X153138095Y-87276247D01*
X132333333Y-89479580D02*
X132285714Y-89527200D01*
X132285714Y-89527200D02*
X132142857Y-89574819D01*
X132142857Y-89574819D02*
X132047619Y-89574819D01*
X132047619Y-89574819D02*
X131904762Y-89527200D01*
X131904762Y-89527200D02*
X131809524Y-89431961D01*
X131809524Y-89431961D02*
X131761905Y-89336723D01*
X131761905Y-89336723D02*
X131714286Y-89146247D01*
X131714286Y-89146247D02*
X131714286Y-89003390D01*
X131714286Y-89003390D02*
X131761905Y-88812914D01*
X131761905Y-88812914D02*
X131809524Y-88717676D01*
X131809524Y-88717676D02*
X131904762Y-88622438D01*
X131904762Y-88622438D02*
X132047619Y-88574819D01*
X132047619Y-88574819D02*
X132142857Y-88574819D01*
X132142857Y-88574819D02*
X132285714Y-88622438D01*
X132285714Y-88622438D02*
X132333333Y-88670057D01*
X133285714Y-89574819D02*
X132714286Y-89574819D01*
X133000000Y-89574819D02*
X133000000Y-88574819D01*
X133000000Y-88574819D02*
X132904762Y-88717676D01*
X132904762Y-88717676D02*
X132809524Y-88812914D01*
X132809524Y-88812914D02*
X132714286Y-88860533D01*
X135183333Y-89704819D02*
X134850000Y-89228628D01*
X134611905Y-89704819D02*
X134611905Y-88704819D01*
X134611905Y-88704819D02*
X134992857Y-88704819D01*
X134992857Y-88704819D02*
X135088095Y-88752438D01*
X135088095Y-88752438D02*
X135135714Y-88800057D01*
X135135714Y-88800057D02*
X135183333Y-88895295D01*
X135183333Y-88895295D02*
X135183333Y-89038152D01*
X135183333Y-89038152D02*
X135135714Y-89133390D01*
X135135714Y-89133390D02*
X135088095Y-89181009D01*
X135088095Y-89181009D02*
X134992857Y-89228628D01*
X134992857Y-89228628D02*
X134611905Y-89228628D01*
X136135714Y-89704819D02*
X135564286Y-89704819D01*
X135850000Y-89704819D02*
X135850000Y-88704819D01*
X135850000Y-88704819D02*
X135754762Y-88847676D01*
X135754762Y-88847676D02*
X135659524Y-88942914D01*
X135659524Y-88942914D02*
X135564286Y-88990533D01*
X167759580Y-85666666D02*
X167807200Y-85714285D01*
X167807200Y-85714285D02*
X167854819Y-85857142D01*
X167854819Y-85857142D02*
X167854819Y-85952380D01*
X167854819Y-85952380D02*
X167807200Y-86095237D01*
X167807200Y-86095237D02*
X167711961Y-86190475D01*
X167711961Y-86190475D02*
X167616723Y-86238094D01*
X167616723Y-86238094D02*
X167426247Y-86285713D01*
X167426247Y-86285713D02*
X167283390Y-86285713D01*
X167283390Y-86285713D02*
X167092914Y-86238094D01*
X167092914Y-86238094D02*
X166997676Y-86190475D01*
X166997676Y-86190475D02*
X166902438Y-86095237D01*
X166902438Y-86095237D02*
X166854819Y-85952380D01*
X166854819Y-85952380D02*
X166854819Y-85857142D01*
X166854819Y-85857142D02*
X166902438Y-85714285D01*
X166902438Y-85714285D02*
X166950057Y-85666666D01*
X167283390Y-85095237D02*
X167235771Y-85190475D01*
X167235771Y-85190475D02*
X167188152Y-85238094D01*
X167188152Y-85238094D02*
X167092914Y-85285713D01*
X167092914Y-85285713D02*
X167045295Y-85285713D01*
X167045295Y-85285713D02*
X166950057Y-85238094D01*
X166950057Y-85238094D02*
X166902438Y-85190475D01*
X166902438Y-85190475D02*
X166854819Y-85095237D01*
X166854819Y-85095237D02*
X166854819Y-84904761D01*
X166854819Y-84904761D02*
X166902438Y-84809523D01*
X166902438Y-84809523D02*
X166950057Y-84761904D01*
X166950057Y-84761904D02*
X167045295Y-84714285D01*
X167045295Y-84714285D02*
X167092914Y-84714285D01*
X167092914Y-84714285D02*
X167188152Y-84761904D01*
X167188152Y-84761904D02*
X167235771Y-84809523D01*
X167235771Y-84809523D02*
X167283390Y-84904761D01*
X167283390Y-84904761D02*
X167283390Y-85095237D01*
X167283390Y-85095237D02*
X167331009Y-85190475D01*
X167331009Y-85190475D02*
X167378628Y-85238094D01*
X167378628Y-85238094D02*
X167473866Y-85285713D01*
X167473866Y-85285713D02*
X167664342Y-85285713D01*
X167664342Y-85285713D02*
X167759580Y-85238094D01*
X167759580Y-85238094D02*
X167807200Y-85190475D01*
X167807200Y-85190475D02*
X167854819Y-85095237D01*
X167854819Y-85095237D02*
X167854819Y-84904761D01*
X167854819Y-84904761D02*
X167807200Y-84809523D01*
X167807200Y-84809523D02*
X167759580Y-84761904D01*
X167759580Y-84761904D02*
X167664342Y-84714285D01*
X167664342Y-84714285D02*
X167473866Y-84714285D01*
X167473866Y-84714285D02*
X167378628Y-84761904D01*
X167378628Y-84761904D02*
X167331009Y-84809523D01*
X167331009Y-84809523D02*
X167283390Y-84904761D01*
X154759580Y-111042857D02*
X154807200Y-111090476D01*
X154807200Y-111090476D02*
X154854819Y-111233333D01*
X154854819Y-111233333D02*
X154854819Y-111328571D01*
X154854819Y-111328571D02*
X154807200Y-111471428D01*
X154807200Y-111471428D02*
X154711961Y-111566666D01*
X154711961Y-111566666D02*
X154616723Y-111614285D01*
X154616723Y-111614285D02*
X154426247Y-111661904D01*
X154426247Y-111661904D02*
X154283390Y-111661904D01*
X154283390Y-111661904D02*
X154092914Y-111614285D01*
X154092914Y-111614285D02*
X153997676Y-111566666D01*
X153997676Y-111566666D02*
X153902438Y-111471428D01*
X153902438Y-111471428D02*
X153854819Y-111328571D01*
X153854819Y-111328571D02*
X153854819Y-111233333D01*
X153854819Y-111233333D02*
X153902438Y-111090476D01*
X153902438Y-111090476D02*
X153950057Y-111042857D01*
X153950057Y-110661904D02*
X153902438Y-110614285D01*
X153902438Y-110614285D02*
X153854819Y-110519047D01*
X153854819Y-110519047D02*
X153854819Y-110280952D01*
X153854819Y-110280952D02*
X153902438Y-110185714D01*
X153902438Y-110185714D02*
X153950057Y-110138095D01*
X153950057Y-110138095D02*
X154045295Y-110090476D01*
X154045295Y-110090476D02*
X154140533Y-110090476D01*
X154140533Y-110090476D02*
X154283390Y-110138095D01*
X154283390Y-110138095D02*
X154854819Y-110709523D01*
X154854819Y-110709523D02*
X154854819Y-110090476D01*
X153854819Y-109471428D02*
X153854819Y-109376190D01*
X153854819Y-109376190D02*
X153902438Y-109280952D01*
X153902438Y-109280952D02*
X153950057Y-109233333D01*
X153950057Y-109233333D02*
X154045295Y-109185714D01*
X154045295Y-109185714D02*
X154235771Y-109138095D01*
X154235771Y-109138095D02*
X154473866Y-109138095D01*
X154473866Y-109138095D02*
X154664342Y-109185714D01*
X154664342Y-109185714D02*
X154759580Y-109233333D01*
X154759580Y-109233333D02*
X154807200Y-109280952D01*
X154807200Y-109280952D02*
X154854819Y-109376190D01*
X154854819Y-109376190D02*
X154854819Y-109471428D01*
X154854819Y-109471428D02*
X154807200Y-109566666D01*
X154807200Y-109566666D02*
X154759580Y-109614285D01*
X154759580Y-109614285D02*
X154664342Y-109661904D01*
X154664342Y-109661904D02*
X154473866Y-109709523D01*
X154473866Y-109709523D02*
X154235771Y-109709523D01*
X154235771Y-109709523D02*
X154045295Y-109661904D01*
X154045295Y-109661904D02*
X153950057Y-109614285D01*
X153950057Y-109614285D02*
X153902438Y-109566666D01*
X153902438Y-109566666D02*
X153854819Y-109471428D01*
X157888095Y-81104819D02*
X157888095Y-80104819D01*
X157888095Y-80581009D02*
X158459523Y-80581009D01*
X158459523Y-81104819D02*
X158459523Y-80104819D01*
X158840476Y-80104819D02*
X159459523Y-80104819D01*
X159459523Y-80104819D02*
X159126190Y-80485771D01*
X159126190Y-80485771D02*
X159269047Y-80485771D01*
X159269047Y-80485771D02*
X159364285Y-80533390D01*
X159364285Y-80533390D02*
X159411904Y-80581009D01*
X159411904Y-80581009D02*
X159459523Y-80676247D01*
X159459523Y-80676247D02*
X159459523Y-80914342D01*
X159459523Y-80914342D02*
X159411904Y-81009580D01*
X159411904Y-81009580D02*
X159364285Y-81057200D01*
X159364285Y-81057200D02*
X159269047Y-81104819D01*
X159269047Y-81104819D02*
X158983333Y-81104819D01*
X158983333Y-81104819D02*
X158888095Y-81057200D01*
X158888095Y-81057200D02*
X158840476Y-81009580D01*
X160507142Y-89859580D02*
X160459523Y-89907200D01*
X160459523Y-89907200D02*
X160316666Y-89954819D01*
X160316666Y-89954819D02*
X160221428Y-89954819D01*
X160221428Y-89954819D02*
X160078571Y-89907200D01*
X160078571Y-89907200D02*
X159983333Y-89811961D01*
X159983333Y-89811961D02*
X159935714Y-89716723D01*
X159935714Y-89716723D02*
X159888095Y-89526247D01*
X159888095Y-89526247D02*
X159888095Y-89383390D01*
X159888095Y-89383390D02*
X159935714Y-89192914D01*
X159935714Y-89192914D02*
X159983333Y-89097676D01*
X159983333Y-89097676D02*
X160078571Y-89002438D01*
X160078571Y-89002438D02*
X160221428Y-88954819D01*
X160221428Y-88954819D02*
X160316666Y-88954819D01*
X160316666Y-88954819D02*
X160459523Y-89002438D01*
X160459523Y-89002438D02*
X160507142Y-89050057D01*
X160888095Y-89050057D02*
X160935714Y-89002438D01*
X160935714Y-89002438D02*
X161030952Y-88954819D01*
X161030952Y-88954819D02*
X161269047Y-88954819D01*
X161269047Y-88954819D02*
X161364285Y-89002438D01*
X161364285Y-89002438D02*
X161411904Y-89050057D01*
X161411904Y-89050057D02*
X161459523Y-89145295D01*
X161459523Y-89145295D02*
X161459523Y-89240533D01*
X161459523Y-89240533D02*
X161411904Y-89383390D01*
X161411904Y-89383390D02*
X160840476Y-89954819D01*
X160840476Y-89954819D02*
X161459523Y-89954819D01*
X162316666Y-89288152D02*
X162316666Y-89954819D01*
X162078571Y-88907200D02*
X161840476Y-89621485D01*
X161840476Y-89621485D02*
X162459523Y-89621485D01*
X132733333Y-98279580D02*
X132685714Y-98327200D01*
X132685714Y-98327200D02*
X132542857Y-98374819D01*
X132542857Y-98374819D02*
X132447619Y-98374819D01*
X132447619Y-98374819D02*
X132304762Y-98327200D01*
X132304762Y-98327200D02*
X132209524Y-98231961D01*
X132209524Y-98231961D02*
X132161905Y-98136723D01*
X132161905Y-98136723D02*
X132114286Y-97946247D01*
X132114286Y-97946247D02*
X132114286Y-97803390D01*
X132114286Y-97803390D02*
X132161905Y-97612914D01*
X132161905Y-97612914D02*
X132209524Y-97517676D01*
X132209524Y-97517676D02*
X132304762Y-97422438D01*
X132304762Y-97422438D02*
X132447619Y-97374819D01*
X132447619Y-97374819D02*
X132542857Y-97374819D01*
X132542857Y-97374819D02*
X132685714Y-97422438D01*
X132685714Y-97422438D02*
X132733333Y-97470057D01*
X133114286Y-97470057D02*
X133161905Y-97422438D01*
X133161905Y-97422438D02*
X133257143Y-97374819D01*
X133257143Y-97374819D02*
X133495238Y-97374819D01*
X133495238Y-97374819D02*
X133590476Y-97422438D01*
X133590476Y-97422438D02*
X133638095Y-97470057D01*
X133638095Y-97470057D02*
X133685714Y-97565295D01*
X133685714Y-97565295D02*
X133685714Y-97660533D01*
X133685714Y-97660533D02*
X133638095Y-97803390D01*
X133638095Y-97803390D02*
X133066667Y-98374819D01*
X133066667Y-98374819D02*
X133685714Y-98374819D01*
X143666666Y-113654819D02*
X143666666Y-114369104D01*
X143666666Y-114369104D02*
X143619047Y-114511961D01*
X143619047Y-114511961D02*
X143523809Y-114607200D01*
X143523809Y-114607200D02*
X143380952Y-114654819D01*
X143380952Y-114654819D02*
X143285714Y-114654819D01*
X144047619Y-113654819D02*
X144666666Y-113654819D01*
X144666666Y-113654819D02*
X144333333Y-114035771D01*
X144333333Y-114035771D02*
X144476190Y-114035771D01*
X144476190Y-114035771D02*
X144571428Y-114083390D01*
X144571428Y-114083390D02*
X144619047Y-114131009D01*
X144619047Y-114131009D02*
X144666666Y-114226247D01*
X144666666Y-114226247D02*
X144666666Y-114464342D01*
X144666666Y-114464342D02*
X144619047Y-114559580D01*
X144619047Y-114559580D02*
X144571428Y-114607200D01*
X144571428Y-114607200D02*
X144476190Y-114654819D01*
X144476190Y-114654819D02*
X144190476Y-114654819D01*
X144190476Y-114654819D02*
X144095238Y-114607200D01*
X144095238Y-114607200D02*
X144047619Y-114559580D01*
X130988095Y-81304819D02*
X130988095Y-80304819D01*
X130988095Y-80781009D02*
X131559523Y-80781009D01*
X131559523Y-81304819D02*
X131559523Y-80304819D01*
X132464285Y-80638152D02*
X132464285Y-81304819D01*
X132226190Y-80257200D02*
X131988095Y-80971485D01*
X131988095Y-80971485D02*
X132607142Y-80971485D01*
X153638095Y-97454819D02*
X153638095Y-98264342D01*
X153638095Y-98264342D02*
X153685714Y-98359580D01*
X153685714Y-98359580D02*
X153733333Y-98407200D01*
X153733333Y-98407200D02*
X153828571Y-98454819D01*
X153828571Y-98454819D02*
X154019047Y-98454819D01*
X154019047Y-98454819D02*
X154114285Y-98407200D01*
X154114285Y-98407200D02*
X154161904Y-98359580D01*
X154161904Y-98359580D02*
X154209523Y-98264342D01*
X154209523Y-98264342D02*
X154209523Y-97454819D01*
X155161904Y-97454819D02*
X154685714Y-97454819D01*
X154685714Y-97454819D02*
X154638095Y-97931009D01*
X154638095Y-97931009D02*
X154685714Y-97883390D01*
X154685714Y-97883390D02*
X154780952Y-97835771D01*
X154780952Y-97835771D02*
X155019047Y-97835771D01*
X155019047Y-97835771D02*
X155114285Y-97883390D01*
X155114285Y-97883390D02*
X155161904Y-97931009D01*
X155161904Y-97931009D02*
X155209523Y-98026247D01*
X155209523Y-98026247D02*
X155209523Y-98264342D01*
X155209523Y-98264342D02*
X155161904Y-98359580D01*
X155161904Y-98359580D02*
X155114285Y-98407200D01*
X155114285Y-98407200D02*
X155019047Y-98454819D01*
X155019047Y-98454819D02*
X154780952Y-98454819D01*
X154780952Y-98454819D02*
X154685714Y-98407200D01*
X154685714Y-98407200D02*
X154638095Y-98359580D01*
X157907142Y-104809580D02*
X157859523Y-104857200D01*
X157859523Y-104857200D02*
X157716666Y-104904819D01*
X157716666Y-104904819D02*
X157621428Y-104904819D01*
X157621428Y-104904819D02*
X157478571Y-104857200D01*
X157478571Y-104857200D02*
X157383333Y-104761961D01*
X157383333Y-104761961D02*
X157335714Y-104666723D01*
X157335714Y-104666723D02*
X157288095Y-104476247D01*
X157288095Y-104476247D02*
X157288095Y-104333390D01*
X157288095Y-104333390D02*
X157335714Y-104142914D01*
X157335714Y-104142914D02*
X157383333Y-104047676D01*
X157383333Y-104047676D02*
X157478571Y-103952438D01*
X157478571Y-103952438D02*
X157621428Y-103904819D01*
X157621428Y-103904819D02*
X157716666Y-103904819D01*
X157716666Y-103904819D02*
X157859523Y-103952438D01*
X157859523Y-103952438D02*
X157907142Y-104000057D01*
X158859523Y-104904819D02*
X158288095Y-104904819D01*
X158573809Y-104904819D02*
X158573809Y-103904819D01*
X158573809Y-103904819D02*
X158478571Y-104047676D01*
X158478571Y-104047676D02*
X158383333Y-104142914D01*
X158383333Y-104142914D02*
X158288095Y-104190533D01*
X159430952Y-104333390D02*
X159335714Y-104285771D01*
X159335714Y-104285771D02*
X159288095Y-104238152D01*
X159288095Y-104238152D02*
X159240476Y-104142914D01*
X159240476Y-104142914D02*
X159240476Y-104095295D01*
X159240476Y-104095295D02*
X159288095Y-104000057D01*
X159288095Y-104000057D02*
X159335714Y-103952438D01*
X159335714Y-103952438D02*
X159430952Y-103904819D01*
X159430952Y-103904819D02*
X159621428Y-103904819D01*
X159621428Y-103904819D02*
X159716666Y-103952438D01*
X159716666Y-103952438D02*
X159764285Y-104000057D01*
X159764285Y-104000057D02*
X159811904Y-104095295D01*
X159811904Y-104095295D02*
X159811904Y-104142914D01*
X159811904Y-104142914D02*
X159764285Y-104238152D01*
X159764285Y-104238152D02*
X159716666Y-104285771D01*
X159716666Y-104285771D02*
X159621428Y-104333390D01*
X159621428Y-104333390D02*
X159430952Y-104333390D01*
X159430952Y-104333390D02*
X159335714Y-104381009D01*
X159335714Y-104381009D02*
X159288095Y-104428628D01*
X159288095Y-104428628D02*
X159240476Y-104523866D01*
X159240476Y-104523866D02*
X159240476Y-104714342D01*
X159240476Y-104714342D02*
X159288095Y-104809580D01*
X159288095Y-104809580D02*
X159335714Y-104857200D01*
X159335714Y-104857200D02*
X159430952Y-104904819D01*
X159430952Y-104904819D02*
X159621428Y-104904819D01*
X159621428Y-104904819D02*
X159716666Y-104857200D01*
X159716666Y-104857200D02*
X159764285Y-104809580D01*
X159764285Y-104809580D02*
X159811904Y-104714342D01*
X159811904Y-104714342D02*
X159811904Y-104523866D01*
X159811904Y-104523866D02*
X159764285Y-104428628D01*
X159764285Y-104428628D02*
X159716666Y-104381009D01*
X159716666Y-104381009D02*
X159621428Y-104333390D01*
X163566666Y-107354819D02*
X163566666Y-108069104D01*
X163566666Y-108069104D02*
X163519047Y-108211961D01*
X163519047Y-108211961D02*
X163423809Y-108307200D01*
X163423809Y-108307200D02*
X163280952Y-108354819D01*
X163280952Y-108354819D02*
X163185714Y-108354819D01*
X164566666Y-108354819D02*
X163995238Y-108354819D01*
X164280952Y-108354819D02*
X164280952Y-107354819D01*
X164280952Y-107354819D02*
X164185714Y-107497676D01*
X164185714Y-107497676D02*
X164090476Y-107592914D01*
X164090476Y-107592914D02*
X163995238Y-107640533D01*
X138733333Y-96854819D02*
X138400000Y-96378628D01*
X138161905Y-96854819D02*
X138161905Y-95854819D01*
X138161905Y-95854819D02*
X138542857Y-95854819D01*
X138542857Y-95854819D02*
X138638095Y-95902438D01*
X138638095Y-95902438D02*
X138685714Y-95950057D01*
X138685714Y-95950057D02*
X138733333Y-96045295D01*
X138733333Y-96045295D02*
X138733333Y-96188152D01*
X138733333Y-96188152D02*
X138685714Y-96283390D01*
X138685714Y-96283390D02*
X138638095Y-96331009D01*
X138638095Y-96331009D02*
X138542857Y-96378628D01*
X138542857Y-96378628D02*
X138161905Y-96378628D01*
X139114286Y-95950057D02*
X139161905Y-95902438D01*
X139161905Y-95902438D02*
X139257143Y-95854819D01*
X139257143Y-95854819D02*
X139495238Y-95854819D01*
X139495238Y-95854819D02*
X139590476Y-95902438D01*
X139590476Y-95902438D02*
X139638095Y-95950057D01*
X139638095Y-95950057D02*
X139685714Y-96045295D01*
X139685714Y-96045295D02*
X139685714Y-96140533D01*
X139685714Y-96140533D02*
X139638095Y-96283390D01*
X139638095Y-96283390D02*
X139066667Y-96854819D01*
X139066667Y-96854819D02*
X139685714Y-96854819D01*
X149461905Y-86954819D02*
X149461905Y-85954819D01*
X149461905Y-85954819D02*
X149700000Y-85954819D01*
X149700000Y-85954819D02*
X149842857Y-86002438D01*
X149842857Y-86002438D02*
X149938095Y-86097676D01*
X149938095Y-86097676D02*
X149985714Y-86192914D01*
X149985714Y-86192914D02*
X150033333Y-86383390D01*
X150033333Y-86383390D02*
X150033333Y-86526247D01*
X150033333Y-86526247D02*
X149985714Y-86716723D01*
X149985714Y-86716723D02*
X149938095Y-86811961D01*
X149938095Y-86811961D02*
X149842857Y-86907200D01*
X149842857Y-86907200D02*
X149700000Y-86954819D01*
X149700000Y-86954819D02*
X149461905Y-86954819D01*
X150985714Y-86954819D02*
X150414286Y-86954819D01*
X150700000Y-86954819D02*
X150700000Y-85954819D01*
X150700000Y-85954819D02*
X150604762Y-86097676D01*
X150604762Y-86097676D02*
X150509524Y-86192914D01*
X150509524Y-86192914D02*
X150414286Y-86240533D01*
D11*
X140683705Y-84285398D02*
X140683705Y-84674586D01*
X140683705Y-84674586D02*
X140706598Y-84720373D01*
X140706598Y-84720373D02*
X140729492Y-84743267D01*
X140729492Y-84743267D02*
X140775278Y-84766160D01*
X140775278Y-84766160D02*
X140866852Y-84766160D01*
X140866852Y-84766160D02*
X140912639Y-84743267D01*
X140912639Y-84743267D02*
X140935532Y-84720373D01*
X140935532Y-84720373D02*
X140958426Y-84674586D01*
X140958426Y-84674586D02*
X140958426Y-84285398D01*
X141393401Y-84445652D02*
X141393401Y-84766160D01*
X141278933Y-84262505D02*
X141164466Y-84605906D01*
X141164466Y-84605906D02*
X141462081Y-84605906D01*
D10*
X143333333Y-100904819D02*
X143000000Y-100428628D01*
X142761905Y-100904819D02*
X142761905Y-99904819D01*
X142761905Y-99904819D02*
X143142857Y-99904819D01*
X143142857Y-99904819D02*
X143238095Y-99952438D01*
X143238095Y-99952438D02*
X143285714Y-100000057D01*
X143285714Y-100000057D02*
X143333333Y-100095295D01*
X143333333Y-100095295D02*
X143333333Y-100238152D01*
X143333333Y-100238152D02*
X143285714Y-100333390D01*
X143285714Y-100333390D02*
X143238095Y-100381009D01*
X143238095Y-100381009D02*
X143142857Y-100428628D01*
X143142857Y-100428628D02*
X142761905Y-100428628D01*
X144190476Y-99904819D02*
X144000000Y-99904819D01*
X144000000Y-99904819D02*
X143904762Y-99952438D01*
X143904762Y-99952438D02*
X143857143Y-100000057D01*
X143857143Y-100000057D02*
X143761905Y-100142914D01*
X143761905Y-100142914D02*
X143714286Y-100333390D01*
X143714286Y-100333390D02*
X143714286Y-100714342D01*
X143714286Y-100714342D02*
X143761905Y-100809580D01*
X143761905Y-100809580D02*
X143809524Y-100857200D01*
X143809524Y-100857200D02*
X143904762Y-100904819D01*
X143904762Y-100904819D02*
X144095238Y-100904819D01*
X144095238Y-100904819D02*
X144190476Y-100857200D01*
X144190476Y-100857200D02*
X144238095Y-100809580D01*
X144238095Y-100809580D02*
X144285714Y-100714342D01*
X144285714Y-100714342D02*
X144285714Y-100476247D01*
X144285714Y-100476247D02*
X144238095Y-100381009D01*
X144238095Y-100381009D02*
X144190476Y-100333390D01*
X144190476Y-100333390D02*
X144095238Y-100285771D01*
X144095238Y-100285771D02*
X143904762Y-100285771D01*
X143904762Y-100285771D02*
X143809524Y-100333390D01*
X143809524Y-100333390D02*
X143761905Y-100381009D01*
X143761905Y-100381009D02*
X143714286Y-100476247D01*
X132083333Y-105209580D02*
X132035714Y-105257200D01*
X132035714Y-105257200D02*
X131892857Y-105304819D01*
X131892857Y-105304819D02*
X131797619Y-105304819D01*
X131797619Y-105304819D02*
X131654762Y-105257200D01*
X131654762Y-105257200D02*
X131559524Y-105161961D01*
X131559524Y-105161961D02*
X131511905Y-105066723D01*
X131511905Y-105066723D02*
X131464286Y-104876247D01*
X131464286Y-104876247D02*
X131464286Y-104733390D01*
X131464286Y-104733390D02*
X131511905Y-104542914D01*
X131511905Y-104542914D02*
X131559524Y-104447676D01*
X131559524Y-104447676D02*
X131654762Y-104352438D01*
X131654762Y-104352438D02*
X131797619Y-104304819D01*
X131797619Y-104304819D02*
X131892857Y-104304819D01*
X131892857Y-104304819D02*
X132035714Y-104352438D01*
X132035714Y-104352438D02*
X132083333Y-104400057D01*
X132940476Y-104638152D02*
X132940476Y-105304819D01*
X132702381Y-104257200D02*
X132464286Y-104971485D01*
X132464286Y-104971485D02*
X133083333Y-104971485D01*
X147283333Y-104104819D02*
X146950000Y-103628628D01*
X146711905Y-104104819D02*
X146711905Y-103104819D01*
X146711905Y-103104819D02*
X147092857Y-103104819D01*
X147092857Y-103104819D02*
X147188095Y-103152438D01*
X147188095Y-103152438D02*
X147235714Y-103200057D01*
X147235714Y-103200057D02*
X147283333Y-103295295D01*
X147283333Y-103295295D02*
X147283333Y-103438152D01*
X147283333Y-103438152D02*
X147235714Y-103533390D01*
X147235714Y-103533390D02*
X147188095Y-103581009D01*
X147188095Y-103581009D02*
X147092857Y-103628628D01*
X147092857Y-103628628D02*
X146711905Y-103628628D01*
X148188095Y-103104819D02*
X147711905Y-103104819D01*
X147711905Y-103104819D02*
X147664286Y-103581009D01*
X147664286Y-103581009D02*
X147711905Y-103533390D01*
X147711905Y-103533390D02*
X147807143Y-103485771D01*
X147807143Y-103485771D02*
X148045238Y-103485771D01*
X148045238Y-103485771D02*
X148140476Y-103533390D01*
X148140476Y-103533390D02*
X148188095Y-103581009D01*
X148188095Y-103581009D02*
X148235714Y-103676247D01*
X148235714Y-103676247D02*
X148235714Y-103914342D01*
X148235714Y-103914342D02*
X148188095Y-104009580D01*
X148188095Y-104009580D02*
X148140476Y-104057200D01*
X148140476Y-104057200D02*
X148045238Y-104104819D01*
X148045238Y-104104819D02*
X147807143Y-104104819D01*
X147807143Y-104104819D02*
X147711905Y-104057200D01*
X147711905Y-104057200D02*
X147664286Y-104009580D01*
X152383333Y-105254819D02*
X151907143Y-105254819D01*
X151907143Y-105254819D02*
X151907143Y-104254819D01*
X152669048Y-104350057D02*
X152716667Y-104302438D01*
X152716667Y-104302438D02*
X152811905Y-104254819D01*
X152811905Y-104254819D02*
X153050000Y-104254819D01*
X153050000Y-104254819D02*
X153145238Y-104302438D01*
X153145238Y-104302438D02*
X153192857Y-104350057D01*
X153192857Y-104350057D02*
X153240476Y-104445295D01*
X153240476Y-104445295D02*
X153240476Y-104540533D01*
X153240476Y-104540533D02*
X153192857Y-104683390D01*
X153192857Y-104683390D02*
X152621429Y-105254819D01*
X152621429Y-105254819D02*
X153240476Y-105254819D01*
X160888095Y-94104819D02*
X160888095Y-94914342D01*
X160888095Y-94914342D02*
X160935714Y-95009580D01*
X160935714Y-95009580D02*
X160983333Y-95057200D01*
X160983333Y-95057200D02*
X161078571Y-95104819D01*
X161078571Y-95104819D02*
X161269047Y-95104819D01*
X161269047Y-95104819D02*
X161364285Y-95057200D01*
X161364285Y-95057200D02*
X161411904Y-95009580D01*
X161411904Y-95009580D02*
X161459523Y-94914342D01*
X161459523Y-94914342D02*
X161459523Y-94104819D01*
X162078571Y-94533390D02*
X161983333Y-94485771D01*
X161983333Y-94485771D02*
X161935714Y-94438152D01*
X161935714Y-94438152D02*
X161888095Y-94342914D01*
X161888095Y-94342914D02*
X161888095Y-94295295D01*
X161888095Y-94295295D02*
X161935714Y-94200057D01*
X161935714Y-94200057D02*
X161983333Y-94152438D01*
X161983333Y-94152438D02*
X162078571Y-94104819D01*
X162078571Y-94104819D02*
X162269047Y-94104819D01*
X162269047Y-94104819D02*
X162364285Y-94152438D01*
X162364285Y-94152438D02*
X162411904Y-94200057D01*
X162411904Y-94200057D02*
X162459523Y-94295295D01*
X162459523Y-94295295D02*
X162459523Y-94342914D01*
X162459523Y-94342914D02*
X162411904Y-94438152D01*
X162411904Y-94438152D02*
X162364285Y-94485771D01*
X162364285Y-94485771D02*
X162269047Y-94533390D01*
X162269047Y-94533390D02*
X162078571Y-94533390D01*
X162078571Y-94533390D02*
X161983333Y-94581009D01*
X161983333Y-94581009D02*
X161935714Y-94628628D01*
X161935714Y-94628628D02*
X161888095Y-94723866D01*
X161888095Y-94723866D02*
X161888095Y-94914342D01*
X161888095Y-94914342D02*
X161935714Y-95009580D01*
X161935714Y-95009580D02*
X161983333Y-95057200D01*
X161983333Y-95057200D02*
X162078571Y-95104819D01*
X162078571Y-95104819D02*
X162269047Y-95104819D01*
X162269047Y-95104819D02*
X162364285Y-95057200D01*
X162364285Y-95057200D02*
X162411904Y-95009580D01*
X162411904Y-95009580D02*
X162459523Y-94914342D01*
X162459523Y-94914342D02*
X162459523Y-94723866D01*
X162459523Y-94723866D02*
X162411904Y-94628628D01*
X162411904Y-94628628D02*
X162364285Y-94581009D01*
X162364285Y-94581009D02*
X162269047Y-94533390D01*
X138538095Y-99554819D02*
X138538095Y-100364342D01*
X138538095Y-100364342D02*
X138585714Y-100459580D01*
X138585714Y-100459580D02*
X138633333Y-100507200D01*
X138633333Y-100507200D02*
X138728571Y-100554819D01*
X138728571Y-100554819D02*
X138919047Y-100554819D01*
X138919047Y-100554819D02*
X139014285Y-100507200D01*
X139014285Y-100507200D02*
X139061904Y-100459580D01*
X139061904Y-100459580D02*
X139109523Y-100364342D01*
X139109523Y-100364342D02*
X139109523Y-99554819D01*
X139538095Y-99650057D02*
X139585714Y-99602438D01*
X139585714Y-99602438D02*
X139680952Y-99554819D01*
X139680952Y-99554819D02*
X139919047Y-99554819D01*
X139919047Y-99554819D02*
X140014285Y-99602438D01*
X140014285Y-99602438D02*
X140061904Y-99650057D01*
X140061904Y-99650057D02*
X140109523Y-99745295D01*
X140109523Y-99745295D02*
X140109523Y-99840533D01*
X140109523Y-99840533D02*
X140061904Y-99983390D01*
X140061904Y-99983390D02*
X139490476Y-100554819D01*
X139490476Y-100554819D02*
X140109523Y-100554819D01*
X139133333Y-99154819D02*
X138800000Y-98678628D01*
X138561905Y-99154819D02*
X138561905Y-98154819D01*
X138561905Y-98154819D02*
X138942857Y-98154819D01*
X138942857Y-98154819D02*
X139038095Y-98202438D01*
X139038095Y-98202438D02*
X139085714Y-98250057D01*
X139085714Y-98250057D02*
X139133333Y-98345295D01*
X139133333Y-98345295D02*
X139133333Y-98488152D01*
X139133333Y-98488152D02*
X139085714Y-98583390D01*
X139085714Y-98583390D02*
X139038095Y-98631009D01*
X139038095Y-98631009D02*
X138942857Y-98678628D01*
X138942857Y-98678628D02*
X138561905Y-98678628D01*
X139466667Y-98154819D02*
X140085714Y-98154819D01*
X140085714Y-98154819D02*
X139752381Y-98535771D01*
X139752381Y-98535771D02*
X139895238Y-98535771D01*
X139895238Y-98535771D02*
X139990476Y-98583390D01*
X139990476Y-98583390D02*
X140038095Y-98631009D01*
X140038095Y-98631009D02*
X140085714Y-98726247D01*
X140085714Y-98726247D02*
X140085714Y-98964342D01*
X140085714Y-98964342D02*
X140038095Y-99059580D01*
X140038095Y-99059580D02*
X139990476Y-99107200D01*
X139990476Y-99107200D02*
X139895238Y-99154819D01*
X139895238Y-99154819D02*
X139609524Y-99154819D01*
X139609524Y-99154819D02*
X139514286Y-99107200D01*
X139514286Y-99107200D02*
X139466667Y-99059580D01*
X147407142Y-106109580D02*
X147359523Y-106157200D01*
X147359523Y-106157200D02*
X147216666Y-106204819D01*
X147216666Y-106204819D02*
X147121428Y-106204819D01*
X147121428Y-106204819D02*
X146978571Y-106157200D01*
X146978571Y-106157200D02*
X146883333Y-106061961D01*
X146883333Y-106061961D02*
X146835714Y-105966723D01*
X146835714Y-105966723D02*
X146788095Y-105776247D01*
X146788095Y-105776247D02*
X146788095Y-105633390D01*
X146788095Y-105633390D02*
X146835714Y-105442914D01*
X146835714Y-105442914D02*
X146883333Y-105347676D01*
X146883333Y-105347676D02*
X146978571Y-105252438D01*
X146978571Y-105252438D02*
X147121428Y-105204819D01*
X147121428Y-105204819D02*
X147216666Y-105204819D01*
X147216666Y-105204819D02*
X147359523Y-105252438D01*
X147359523Y-105252438D02*
X147407142Y-105300057D01*
X148359523Y-106204819D02*
X147788095Y-106204819D01*
X148073809Y-106204819D02*
X148073809Y-105204819D01*
X148073809Y-105204819D02*
X147978571Y-105347676D01*
X147978571Y-105347676D02*
X147883333Y-105442914D01*
X147883333Y-105442914D02*
X147788095Y-105490533D01*
X149264285Y-105204819D02*
X148788095Y-105204819D01*
X148788095Y-105204819D02*
X148740476Y-105681009D01*
X148740476Y-105681009D02*
X148788095Y-105633390D01*
X148788095Y-105633390D02*
X148883333Y-105585771D01*
X148883333Y-105585771D02*
X149121428Y-105585771D01*
X149121428Y-105585771D02*
X149216666Y-105633390D01*
X149216666Y-105633390D02*
X149264285Y-105681009D01*
X149264285Y-105681009D02*
X149311904Y-105776247D01*
X149311904Y-105776247D02*
X149311904Y-106014342D01*
X149311904Y-106014342D02*
X149264285Y-106109580D01*
X149264285Y-106109580D02*
X149216666Y-106157200D01*
X149216666Y-106157200D02*
X149121428Y-106204819D01*
X149121428Y-106204819D02*
X148883333Y-106204819D01*
X148883333Y-106204819D02*
X148788095Y-106157200D01*
X148788095Y-106157200D02*
X148740476Y-106109580D01*
X160533333Y-81254819D02*
X160057143Y-81254819D01*
X160057143Y-81254819D02*
X160057143Y-80254819D01*
X161390476Y-81254819D02*
X160819048Y-81254819D01*
X161104762Y-81254819D02*
X161104762Y-80254819D01*
X161104762Y-80254819D02*
X161009524Y-80397676D01*
X161009524Y-80397676D02*
X160914286Y-80492914D01*
X160914286Y-80492914D02*
X160819048Y-80540533D01*
X136716666Y-81604819D02*
X136716666Y-82319104D01*
X136716666Y-82319104D02*
X136669047Y-82461961D01*
X136669047Y-82461961D02*
X136573809Y-82557200D01*
X136573809Y-82557200D02*
X136430952Y-82604819D01*
X136430952Y-82604819D02*
X136335714Y-82604819D01*
X137145238Y-81700057D02*
X137192857Y-81652438D01*
X137192857Y-81652438D02*
X137288095Y-81604819D01*
X137288095Y-81604819D02*
X137526190Y-81604819D01*
X137526190Y-81604819D02*
X137621428Y-81652438D01*
X137621428Y-81652438D02*
X137669047Y-81700057D01*
X137669047Y-81700057D02*
X137716666Y-81795295D01*
X137716666Y-81795295D02*
X137716666Y-81890533D01*
X137716666Y-81890533D02*
X137669047Y-82033390D01*
X137669047Y-82033390D02*
X137097619Y-82604819D01*
X137097619Y-82604819D02*
X137716666Y-82604819D01*
D12*
%TO.C,U1*%
X123770000Y-107912500D02*
X123770000Y-105882500D01*
X123770000Y-107912500D02*
X125000000Y-107912500D01*
D13*
X124150000Y-87792500D02*
X124150000Y-107532500D01*
X124150000Y-107532500D02*
X130390000Y-107532500D01*
X130390000Y-87792500D02*
X124170000Y-87792500D01*
X130390000Y-107532500D02*
X130390000Y-87792500D01*
%TO.C,C9*%
X149965000Y-90411252D02*
X149965000Y-89888748D01*
X151435000Y-90411252D02*
X151435000Y-89888748D01*
%TO.C,C7*%
X165161252Y-82665000D02*
X164638748Y-82665000D01*
X165161252Y-84135000D02*
X164638748Y-84135000D01*
%TO.C,C25*%
X147188748Y-77165000D02*
X147711252Y-77165000D01*
X147188748Y-78635000D02*
X147711252Y-78635000D01*
%TO.C,R8*%
X147639564Y-79265000D02*
X147185436Y-79265000D01*
X147639564Y-80735000D02*
X147185436Y-80735000D01*
%TO.C,C5*%
X140665000Y-93911252D02*
X140665000Y-93388748D01*
X142135000Y-93911252D02*
X142135000Y-93388748D01*
%TO.C,C10*%
X139165000Y-87238748D02*
X139165000Y-87761252D01*
X140635000Y-87238748D02*
X140635000Y-87761252D01*
%TO.C,C12*%
X136965000Y-87238748D02*
X136965000Y-87761252D01*
X138435000Y-87238748D02*
X138435000Y-87761252D01*
%TO.C,C6*%
X140965000Y-102761252D02*
X140965000Y-102238748D01*
X142435000Y-102761252D02*
X142435000Y-102238748D01*
%TO.C,C19*%
X161588748Y-98015000D02*
X162111252Y-98015000D01*
X161588748Y-99485000D02*
X162111252Y-99485000D01*
%TO.C,C22*%
X164588748Y-96385000D02*
X165111252Y-96385000D01*
X164588748Y-94915000D02*
X165111252Y-94915000D01*
%TO.C,C17*%
X146561252Y-98015000D02*
X146038748Y-98015000D01*
X146561252Y-99485000D02*
X146038748Y-99485000D01*
%TO.C,C23*%
X165061252Y-89835000D02*
X164538748Y-89835000D01*
X165061252Y-88365000D02*
X164538748Y-88365000D01*
%TO.C,R7*%
X146110436Y-93865000D02*
X146564564Y-93865000D01*
X146110436Y-95335000D02*
X146564564Y-95335000D01*
%TO.C,R4*%
X137027064Y-104565000D02*
X136572936Y-104565000D01*
X137027064Y-106035000D02*
X136572936Y-106035000D01*
%TO.C,C14*%
X147565000Y-86261252D02*
X147565000Y-85738748D01*
X149035000Y-86261252D02*
X149035000Y-85738748D01*
%TO.C,J4*%
X150000000Y-75400000D02*
X150000000Y-75650000D01*
X150000000Y-77950000D02*
X150000000Y-79800000D01*
X150000000Y-79800000D02*
X150450000Y-79800000D01*
X155600000Y-80350000D02*
X155150000Y-80350000D01*
X155600000Y-80350000D02*
X155600000Y-79900000D01*
X157800000Y-75400000D02*
X157800000Y-75650000D01*
X157800000Y-77950000D02*
X157800000Y-79800000D01*
X157800000Y-79800000D02*
X157350000Y-79800000D01*
%TO.C,C3*%
X131065000Y-93961252D02*
X131065000Y-93438748D01*
X132535000Y-93961252D02*
X132535000Y-93438748D01*
%TO.C,C16*%
X146038748Y-95915000D02*
X146561252Y-95915000D01*
X146038748Y-97385000D02*
X146561252Y-97385000D01*
D14*
%TO.C,U3*%
X137950000Y-92140000D02*
X134950000Y-92140000D01*
X137950000Y-95210000D02*
X134950000Y-95210000D01*
D15*
X140170000Y-95130000D02*
G75*
G02*
X139970000Y-95130000I-100000J0D01*
G01*
X139970000Y-95130000D02*
G75*
G02*
X140170000Y-95130000I100000J0D01*
G01*
D13*
%TO.C,C21*%
X151865000Y-110588748D02*
X151865000Y-111111252D01*
X153335000Y-110588748D02*
X153335000Y-111111252D01*
%TO.C,U6*%
X152900000Y-83290000D02*
X152100000Y-83290000D01*
X152900000Y-83290000D02*
X153700000Y-83290000D01*
X152900000Y-86410000D02*
X152100000Y-86410000D01*
X152900000Y-86410000D02*
X153700000Y-86410000D01*
X151600000Y-83340000D02*
X151360000Y-83010000D01*
X151840000Y-83010000D01*
X151600000Y-83340000D01*
G36*
X151600000Y-83340000D02*
G01*
X151360000Y-83010000D01*
X151840000Y-83010000D01*
X151600000Y-83340000D01*
G37*
%TO.C,C1*%
X132238748Y-90065000D02*
X132761252Y-90065000D01*
X132238748Y-91535000D02*
X132761252Y-91535000D01*
%TO.C,R1*%
X136327064Y-90065000D02*
X135872936Y-90065000D01*
X136327064Y-91535000D02*
X135872936Y-91535000D01*
%TO.C,C8*%
X164638748Y-84765000D02*
X165161252Y-84765000D01*
X164638748Y-86235000D02*
X165161252Y-86235000D01*
%TO.C,C20*%
X153765000Y-106938748D02*
X153765000Y-107461252D01*
X155235000Y-106938748D02*
X155235000Y-107461252D01*
%TO.C,C24*%
X161885000Y-92361252D02*
X161885000Y-91838748D01*
X160415000Y-92361252D02*
X160415000Y-91838748D01*
%TO.C,C2*%
X132638748Y-98865000D02*
X133161252Y-98865000D01*
X132638748Y-100335000D02*
X133161252Y-100335000D01*
%TO.C,J3*%
X136535000Y-107490000D02*
X138445000Y-107490000D01*
X136535000Y-109400000D02*
X136535000Y-107490000D01*
X136845000Y-107800000D02*
X136845000Y-113000000D01*
X136845000Y-110400000D02*
X137245000Y-110400000D01*
X136845000Y-111400000D02*
X137245000Y-111400000D01*
X136845000Y-113000000D02*
X151045000Y-113000000D01*
X137245000Y-108200000D02*
X139445000Y-108200000D01*
X137245000Y-110400000D02*
X137245000Y-108200000D01*
X137245000Y-111400000D02*
X137245000Y-112600000D01*
X137245000Y-112600000D02*
X150645000Y-112600000D01*
X139445000Y-108200000D02*
X139445000Y-107800000D01*
X140445000Y-107800000D02*
X140445000Y-108200000D01*
X140445000Y-108200000D02*
X147445000Y-108200000D01*
X147445000Y-108200000D02*
X147445000Y-107800000D01*
X148445000Y-108200000D02*
X148445000Y-107800000D01*
X150645000Y-108200000D02*
X148445000Y-108200000D01*
X150645000Y-110400000D02*
X150645000Y-108200000D01*
X150645000Y-111400000D02*
X151045000Y-111400000D01*
X150645000Y-112600000D02*
X150645000Y-111400000D01*
X151045000Y-107800000D02*
X136845000Y-107800000D01*
X151045000Y-110400000D02*
X150645000Y-110400000D01*
X151045000Y-113000000D02*
X151045000Y-107800000D01*
%TO.C,U5*%
X150790000Y-94390000D02*
X151240000Y-94390000D01*
X150790000Y-94840000D02*
X150790000Y-94390000D01*
X150790000Y-101160000D02*
X150790000Y-101610000D01*
X150790000Y-101610000D02*
X151240000Y-101610000D01*
X158010000Y-94390000D02*
X157560000Y-94390000D01*
X158010000Y-94840000D02*
X158010000Y-94390000D01*
X158010000Y-101160000D02*
X158010000Y-101610000D01*
X158010000Y-101610000D02*
X157560000Y-101610000D01*
X151240000Y-102200000D02*
X150770000Y-102540000D01*
X150770000Y-101860000D01*
X151240000Y-102200000D01*
G36*
X151240000Y-102200000D02*
G01*
X150770000Y-102540000D01*
X150770000Y-101860000D01*
X151240000Y-102200000D01*
G37*
%TO.C,C18*%
X154938748Y-103715000D02*
X155461252Y-103715000D01*
X154938748Y-105185000D02*
X155461252Y-105185000D01*
D15*
%TO.C,J1*%
X162170000Y-100450000D02*
X162170000Y-100450000D01*
X162170000Y-100450000D02*
X165600000Y-100450000D01*
X162170000Y-106970000D02*
X162170000Y-106970000D01*
X165600000Y-100450000D02*
X165600000Y-100450000D01*
X165600000Y-106970000D02*
X162170000Y-106970000D01*
X165600000Y-106970000D02*
X165600000Y-106970000D01*
X166020000Y-107535000D02*
G75*
G02*
X165820000Y-107535000I-100000J0D01*
G01*
X165820000Y-107535000D02*
G75*
G02*
X166020000Y-107535000I100000J0D01*
G01*
D13*
%TO.C,R2*%
X136427064Y-95765000D02*
X135972936Y-95765000D01*
X136427064Y-97235000D02*
X135972936Y-97235000D01*
%TO.C,D1*%
X149490000Y-84090000D02*
X149490000Y-85400000D01*
X150710000Y-84090000D02*
X149490000Y-84090000D01*
X150710000Y-84090000D02*
X150710000Y-85400000D01*
D14*
%TO.C,U4*%
X141800000Y-84100000D02*
X146800000Y-84100000D01*
X141800000Y-87900000D02*
X141800000Y-84100000D01*
X146800000Y-84100000D02*
X146800000Y-87900000D01*
X146800000Y-87900000D02*
X141800000Y-87900000D01*
D15*
X147200000Y-82900000D02*
G75*
G02*
X147000000Y-82900000I-100000J0D01*
G01*
X147000000Y-82900000D02*
G75*
G02*
X147200000Y-82900000I100000J0D01*
G01*
D13*
%TO.C,R6*%
X146072936Y-100065000D02*
X146527064Y-100065000D01*
X146072936Y-101535000D02*
X146527064Y-101535000D01*
%TO.C,C4*%
X131415000Y-102163748D02*
X131415000Y-102686252D01*
X132885000Y-102163748D02*
X132885000Y-102686252D01*
%TO.C,R5*%
X144572936Y-102965000D02*
X145027064Y-102965000D01*
X144572936Y-104435000D02*
X145027064Y-104435000D01*
%TO.C,L2*%
X151990000Y-106850378D02*
X151990000Y-107649622D01*
X153110000Y-106850378D02*
X153110000Y-107649622D01*
%TO.C,U8*%
X166140000Y-93940000D02*
X165660000Y-93940000D01*
X165900000Y-93610000D01*
X166140000Y-93940000D01*
G36*
X166140000Y-93940000D02*
G01*
X165660000Y-93940000D01*
X165900000Y-93610000D01*
X166140000Y-93940000D01*
G37*
X165600000Y-90440000D02*
X163800000Y-90440000D01*
X164600000Y-93660000D02*
X165400000Y-93660000D01*
X164600000Y-93660000D02*
X163800000Y-93660000D01*
D14*
%TO.C,U2*%
X138300000Y-100965000D02*
X135300000Y-100965000D01*
X138300000Y-104035000D02*
X135300000Y-104035000D01*
D15*
X140520000Y-103955000D02*
G75*
G02*
X140320000Y-103955000I-100000J0D01*
G01*
X140320000Y-103955000D02*
G75*
G02*
X140520000Y-103955000I100000J0D01*
G01*
D13*
%TO.C,R3*%
X136727064Y-98865000D02*
X136272936Y-98865000D01*
X136727064Y-100335000D02*
X136272936Y-100335000D01*
%TO.C,C15*%
X145073752Y-105065000D02*
X144551248Y-105065000D01*
X145073752Y-106535000D02*
X144551248Y-106535000D01*
%TO.C,L1*%
X159340000Y-77700378D02*
X159340000Y-78499622D01*
X160460000Y-77700378D02*
X160460000Y-78499622D01*
%TO.C,J2*%
X138650000Y-82110000D02*
X139150000Y-82110000D01*
X138900000Y-81610000D02*
X138650000Y-82110000D01*
X139150000Y-82110000D02*
X138900000Y-81610000D01*
%TD*%
M02*
