M48
; DRILL file {KiCad 8.0.8} date 2025-04-15T16:11:56+0200
; FORMAT={-:-/ absolute / metric / decimal}
; #@! TF.CreationDate,2025-04-15T16:11:56+02:00
; #@! TF.GenerationSoftware,Kicad,Pcbnew,8.0.8
; #@! TF.FileFunction,Plated,1,2,PTH
FMAT,2
METRIC
; #@! TA.AperFunction,Plated,PTH,ViaDrill
T1C0.300
; #@! TA.AperFunction,Plated,PTH,ComponentDrill
T2C0.600
; #@! TA.AperFunction,Plated,PTH,ComponentDrill
T3C0.700
; #@! TA.AperFunction,Plated,PTH,ComponentDrill
T4C0.850
%
G90
G05
T1
X131.8Y-92.7
X132.1Y-103.4
X133.4Y-90.8
X133.9Y-99.6
X134.6Y-78.0
X135.1Y-90.8
X135.9Y-105.4
X136.45Y-93.675
X136.8Y-102.5
X137.112Y-96.5
X137.412Y-99.6
X137.7Y-86.55
X137.7Y-88.5
X138.6Y-91.5
X139.0Y-100.35
X139.9Y-86.55
X139.9Y-88.5
X141.4Y-92.7
X141.7Y-101.55
X143.1Y-78.0
X143.887Y-103.7
X143.9Y-106.3
X144.0Y-84.7
X145.35Y-96.65
X145.35Y-98.75
X146.5Y-77.9
X146.5Y-80.0
X147.42Y-88.87
X148.3Y-85.1
X148.9Y-90.75
X148.9Y-91.55
X148.9Y-92.35
X148.9Y-93.15
X148.9Y-97.3
X150.3Y-80.7
X150.7Y-89.25
X151.45Y-104.05
X151.762Y-84.9
X151.85Y-96.75
X151.85Y-99.25
X151.85Y-100.05
X151.95Y-88.3
X152.0Y-90.15
X152.4Y-95.1
X152.55Y-111.8
X152.9Y-103.6
X153.85Y-88.3
X154.4Y-108.2
X154.55Y-92.45
X155.15Y-91.1
X155.65Y-95.15
X155.65Y-100.75
X156.15Y-104.45
X156.75Y-91.1
X157.3Y-91.7
X160.0Y-97.25
X161.15Y-93.05
X161.85Y-101.17
X161.85Y-104.98
X161.85Y-106.25
X162.8Y-98.75
X163.95Y-95.65
X165.8Y-85.5
X165.8Y-89.1
X165.9Y-83.4
X165.92Y-103.69
X165.935Y-104.977
X166.05Y-92.05
T3
X125.5Y-92.682
X125.5Y-95.222
X125.5Y-97.762
X125.5Y-102.843
X125.5Y-105.382
T4
X138.945Y-109.4
X138.945Y-111.4
X140.945Y-109.4
X140.945Y-111.4
X142.945Y-109.4
X142.945Y-111.4
X144.945Y-109.4
X144.945Y-111.4
X146.945Y-109.4
X146.945Y-111.4
X148.945Y-109.4
X148.945Y-111.4
X151.4Y-79.5
X156.4Y-79.5
T2
G00X150.4Y-77.15
M15
G01X150.4Y-76.45
M16
G05
G00X157.4Y-76.45
M15
G01X157.4Y-77.15
M16
G05
M30
