%TF.GenerationSoftware,KiCad,Pcbnew,8.0.8*%
%TF.CreationDate,2025-05-27T15:12:43+02:00*%
%TF.ProjectId,gFocus,67466f63-7573-42e6-9b69-6361645f7063,rev?*%
%TF.SameCoordinates,Original*%
%TF.FileFunction,Drillmap*%
%TF.FilePolarity,Positive*%
%FSLAX45Y45*%
G04 Gerber Fmt 4.5, Leading zero omitted, Abs format (unit mm)*
G04 Created by KiCad (PCBNEW 8.0.8) date 2025-05-27 15:12:43*
%MOMM*%
%LPD*%
G01*
G04 APERTURE LIST*
%ADD10C,0.050000*%
%ADD11C,0.200000*%
%ADD12C,0.320000*%
G04 APERTURE END LIST*
D10*
X16175000Y-11995000D02*
X16175000Y-11350000D01*
X16820000Y-8180000D02*
X16820000Y-11350000D01*
X16175000Y-11350000D02*
X16820000Y-11350000D01*
X12360000Y-11350000D02*
X12360000Y-8180000D01*
X13005000Y-7535000D02*
X16175000Y-7535000D01*
X16820000Y-8180000D02*
X16175000Y-8180000D01*
X16175000Y-7535000D02*
X16175000Y-8180000D01*
X16175000Y-11995000D02*
X13005000Y-11995000D01*
X12360000Y-8180000D02*
X13005000Y-8180000D01*
X13005000Y-7535000D02*
X13005000Y-8180000D01*
X13005000Y-11995000D02*
X13005000Y-11350000D01*
X12360000Y-11350000D02*
X13005000Y-11350000D01*
D11*
D12*
X13155000Y-8330000D02*
X13475000Y-8650000D01*
X13475000Y-8330000D02*
X13155000Y-8650000D01*
X13155000Y-10880000D02*
X13475000Y-11200000D01*
X13475000Y-10880000D02*
X13155000Y-11200000D01*
X15705000Y-8330000D02*
X16025000Y-8650000D01*
X16025000Y-8330000D02*
X15705000Y-8650000D01*
X15705000Y-10880000D02*
X16025000Y-11200000D01*
X16025000Y-10880000D02*
X15705000Y-11200000D01*
D11*
X12618277Y-12308984D02*
X12618277Y-12108984D01*
X12618277Y-12108984D02*
X12665896Y-12108984D01*
X12665896Y-12108984D02*
X12694467Y-12118508D01*
X12694467Y-12118508D02*
X12713515Y-12137555D01*
X12713515Y-12137555D02*
X12723039Y-12156603D01*
X12723039Y-12156603D02*
X12732562Y-12194698D01*
X12732562Y-12194698D02*
X12732562Y-12223269D01*
X12732562Y-12223269D02*
X12723039Y-12261365D01*
X12723039Y-12261365D02*
X12713515Y-12280412D01*
X12713515Y-12280412D02*
X12694467Y-12299460D01*
X12694467Y-12299460D02*
X12665896Y-12308984D01*
X12665896Y-12308984D02*
X12618277Y-12308984D01*
X12818277Y-12308984D02*
X12818277Y-12175650D01*
X12818277Y-12213746D02*
X12827801Y-12194698D01*
X12827801Y-12194698D02*
X12837324Y-12185174D01*
X12837324Y-12185174D02*
X12856372Y-12175650D01*
X12856372Y-12175650D02*
X12875420Y-12175650D01*
X12942086Y-12308984D02*
X12942086Y-12175650D01*
X12942086Y-12108984D02*
X12932562Y-12118508D01*
X12932562Y-12118508D02*
X12942086Y-12128031D01*
X12942086Y-12128031D02*
X12951610Y-12118508D01*
X12951610Y-12118508D02*
X12942086Y-12108984D01*
X12942086Y-12108984D02*
X12942086Y-12128031D01*
X13065896Y-12308984D02*
X13046848Y-12299460D01*
X13046848Y-12299460D02*
X13037324Y-12280412D01*
X13037324Y-12280412D02*
X13037324Y-12108984D01*
X13170658Y-12308984D02*
X13151610Y-12299460D01*
X13151610Y-12299460D02*
X13142086Y-12280412D01*
X13142086Y-12280412D02*
X13142086Y-12108984D01*
X13399229Y-12308984D02*
X13399229Y-12108984D01*
X13399229Y-12108984D02*
X13465896Y-12251841D01*
X13465896Y-12251841D02*
X13532562Y-12108984D01*
X13532562Y-12108984D02*
X13532562Y-12308984D01*
X13713515Y-12308984D02*
X13713515Y-12204222D01*
X13713515Y-12204222D02*
X13703991Y-12185174D01*
X13703991Y-12185174D02*
X13684943Y-12175650D01*
X13684943Y-12175650D02*
X13646848Y-12175650D01*
X13646848Y-12175650D02*
X13627801Y-12185174D01*
X13713515Y-12299460D02*
X13694467Y-12308984D01*
X13694467Y-12308984D02*
X13646848Y-12308984D01*
X13646848Y-12308984D02*
X13627801Y-12299460D01*
X13627801Y-12299460D02*
X13618277Y-12280412D01*
X13618277Y-12280412D02*
X13618277Y-12261365D01*
X13618277Y-12261365D02*
X13627801Y-12242317D01*
X13627801Y-12242317D02*
X13646848Y-12232793D01*
X13646848Y-12232793D02*
X13694467Y-12232793D01*
X13694467Y-12232793D02*
X13713515Y-12223269D01*
X13808753Y-12175650D02*
X13808753Y-12375650D01*
X13808753Y-12185174D02*
X13827801Y-12175650D01*
X13827801Y-12175650D02*
X13865896Y-12175650D01*
X13865896Y-12175650D02*
X13884943Y-12185174D01*
X13884943Y-12185174D02*
X13894467Y-12194698D01*
X13894467Y-12194698D02*
X13903991Y-12213746D01*
X13903991Y-12213746D02*
X13903991Y-12270888D01*
X13903991Y-12270888D02*
X13894467Y-12289936D01*
X13894467Y-12289936D02*
X13884943Y-12299460D01*
X13884943Y-12299460D02*
X13865896Y-12308984D01*
X13865896Y-12308984D02*
X13827801Y-12308984D01*
X13827801Y-12308984D02*
X13808753Y-12299460D01*
X13989705Y-12289936D02*
X13999229Y-12299460D01*
X13999229Y-12299460D02*
X13989705Y-12308984D01*
X13989705Y-12308984D02*
X13980182Y-12299460D01*
X13980182Y-12299460D02*
X13989705Y-12289936D01*
X13989705Y-12289936D02*
X13989705Y-12308984D01*
X13989705Y-12185174D02*
X13999229Y-12194698D01*
X13999229Y-12194698D02*
X13989705Y-12204222D01*
X13989705Y-12204222D02*
X13980182Y-12194698D01*
X13980182Y-12194698D02*
X13989705Y-12185174D01*
X13989705Y-12185174D02*
X13989705Y-12204222D01*
X12157500Y-12537500D02*
X12357500Y-12737500D01*
X12357500Y-12537500D02*
X12157500Y-12737500D01*
X12599229Y-12528984D02*
X12723039Y-12528984D01*
X12723039Y-12528984D02*
X12656372Y-12605174D01*
X12656372Y-12605174D02*
X12684943Y-12605174D01*
X12684943Y-12605174D02*
X12703991Y-12614698D01*
X12703991Y-12614698D02*
X12713515Y-12624222D01*
X12713515Y-12624222D02*
X12723039Y-12643269D01*
X12723039Y-12643269D02*
X12723039Y-12690888D01*
X12723039Y-12690888D02*
X12713515Y-12709936D01*
X12713515Y-12709936D02*
X12703991Y-12719460D01*
X12703991Y-12719460D02*
X12684943Y-12728984D01*
X12684943Y-12728984D02*
X12627801Y-12728984D01*
X12627801Y-12728984D02*
X12608753Y-12719460D01*
X12608753Y-12719460D02*
X12599229Y-12709936D01*
X12808753Y-12709936D02*
X12818277Y-12719460D01*
X12818277Y-12719460D02*
X12808753Y-12728984D01*
X12808753Y-12728984D02*
X12799229Y-12719460D01*
X12799229Y-12719460D02*
X12808753Y-12709936D01*
X12808753Y-12709936D02*
X12808753Y-12728984D01*
X12894467Y-12548031D02*
X12903991Y-12538508D01*
X12903991Y-12538508D02*
X12923039Y-12528984D01*
X12923039Y-12528984D02*
X12970658Y-12528984D01*
X12970658Y-12528984D02*
X12989705Y-12538508D01*
X12989705Y-12538508D02*
X12999229Y-12548031D01*
X12999229Y-12548031D02*
X13008753Y-12567079D01*
X13008753Y-12567079D02*
X13008753Y-12586127D01*
X13008753Y-12586127D02*
X12999229Y-12614698D01*
X12999229Y-12614698D02*
X12884943Y-12728984D01*
X12884943Y-12728984D02*
X13008753Y-12728984D01*
X13132562Y-12528984D02*
X13151610Y-12528984D01*
X13151610Y-12528984D02*
X13170658Y-12538508D01*
X13170658Y-12538508D02*
X13180182Y-12548031D01*
X13180182Y-12548031D02*
X13189705Y-12567079D01*
X13189705Y-12567079D02*
X13199229Y-12605174D01*
X13199229Y-12605174D02*
X13199229Y-12652793D01*
X13199229Y-12652793D02*
X13189705Y-12690888D01*
X13189705Y-12690888D02*
X13180182Y-12709936D01*
X13180182Y-12709936D02*
X13170658Y-12719460D01*
X13170658Y-12719460D02*
X13151610Y-12728984D01*
X13151610Y-12728984D02*
X13132562Y-12728984D01*
X13132562Y-12728984D02*
X13113515Y-12719460D01*
X13113515Y-12719460D02*
X13103991Y-12709936D01*
X13103991Y-12709936D02*
X13094467Y-12690888D01*
X13094467Y-12690888D02*
X13084943Y-12652793D01*
X13084943Y-12652793D02*
X13084943Y-12605174D01*
X13084943Y-12605174D02*
X13094467Y-12567079D01*
X13094467Y-12567079D02*
X13103991Y-12548031D01*
X13103991Y-12548031D02*
X13113515Y-12538508D01*
X13113515Y-12538508D02*
X13132562Y-12528984D01*
X13323039Y-12528984D02*
X13342086Y-12528984D01*
X13342086Y-12528984D02*
X13361134Y-12538508D01*
X13361134Y-12538508D02*
X13370658Y-12548031D01*
X13370658Y-12548031D02*
X13380182Y-12567079D01*
X13380182Y-12567079D02*
X13389705Y-12605174D01*
X13389705Y-12605174D02*
X13389705Y-12652793D01*
X13389705Y-12652793D02*
X13380182Y-12690888D01*
X13380182Y-12690888D02*
X13370658Y-12709936D01*
X13370658Y-12709936D02*
X13361134Y-12719460D01*
X13361134Y-12719460D02*
X13342086Y-12728984D01*
X13342086Y-12728984D02*
X13323039Y-12728984D01*
X13323039Y-12728984D02*
X13303991Y-12719460D01*
X13303991Y-12719460D02*
X13294467Y-12709936D01*
X13294467Y-12709936D02*
X13284943Y-12690888D01*
X13284943Y-12690888D02*
X13275420Y-12652793D01*
X13275420Y-12652793D02*
X13275420Y-12605174D01*
X13275420Y-12605174D02*
X13284943Y-12567079D01*
X13284943Y-12567079D02*
X13294467Y-12548031D01*
X13294467Y-12548031D02*
X13303991Y-12538508D01*
X13303991Y-12538508D02*
X13323039Y-12528984D01*
X13475420Y-12728984D02*
X13475420Y-12595650D01*
X13475420Y-12614698D02*
X13484943Y-12605174D01*
X13484943Y-12605174D02*
X13503991Y-12595650D01*
X13503991Y-12595650D02*
X13532563Y-12595650D01*
X13532563Y-12595650D02*
X13551610Y-12605174D01*
X13551610Y-12605174D02*
X13561134Y-12624222D01*
X13561134Y-12624222D02*
X13561134Y-12728984D01*
X13561134Y-12624222D02*
X13570658Y-12605174D01*
X13570658Y-12605174D02*
X13589705Y-12595650D01*
X13589705Y-12595650D02*
X13618277Y-12595650D01*
X13618277Y-12595650D02*
X13637324Y-12605174D01*
X13637324Y-12605174D02*
X13646848Y-12624222D01*
X13646848Y-12624222D02*
X13646848Y-12728984D01*
X13742086Y-12728984D02*
X13742086Y-12595650D01*
X13742086Y-12614698D02*
X13751610Y-12605174D01*
X13751610Y-12605174D02*
X13770658Y-12595650D01*
X13770658Y-12595650D02*
X13799229Y-12595650D01*
X13799229Y-12595650D02*
X13818277Y-12605174D01*
X13818277Y-12605174D02*
X13827801Y-12624222D01*
X13827801Y-12624222D02*
X13827801Y-12728984D01*
X13827801Y-12624222D02*
X13837324Y-12605174D01*
X13837324Y-12605174D02*
X13856372Y-12595650D01*
X13856372Y-12595650D02*
X13884943Y-12595650D01*
X13884943Y-12595650D02*
X13903991Y-12605174D01*
X13903991Y-12605174D02*
X13913515Y-12624222D01*
X13913515Y-12624222D02*
X13913515Y-12728984D01*
X14303991Y-12519460D02*
X14132563Y-12776603D01*
X14561134Y-12528984D02*
X14580182Y-12528984D01*
X14580182Y-12528984D02*
X14599229Y-12538508D01*
X14599229Y-12538508D02*
X14608753Y-12548031D01*
X14608753Y-12548031D02*
X14618277Y-12567079D01*
X14618277Y-12567079D02*
X14627801Y-12605174D01*
X14627801Y-12605174D02*
X14627801Y-12652793D01*
X14627801Y-12652793D02*
X14618277Y-12690888D01*
X14618277Y-12690888D02*
X14608753Y-12709936D01*
X14608753Y-12709936D02*
X14599229Y-12719460D01*
X14599229Y-12719460D02*
X14580182Y-12728984D01*
X14580182Y-12728984D02*
X14561134Y-12728984D01*
X14561134Y-12728984D02*
X14542086Y-12719460D01*
X14542086Y-12719460D02*
X14532563Y-12709936D01*
X14532563Y-12709936D02*
X14523039Y-12690888D01*
X14523039Y-12690888D02*
X14513515Y-12652793D01*
X14513515Y-12652793D02*
X14513515Y-12605174D01*
X14513515Y-12605174D02*
X14523039Y-12567079D01*
X14523039Y-12567079D02*
X14532563Y-12548031D01*
X14532563Y-12548031D02*
X14542086Y-12538508D01*
X14542086Y-12538508D02*
X14561134Y-12528984D01*
X14713515Y-12709936D02*
X14723039Y-12719460D01*
X14723039Y-12719460D02*
X14713515Y-12728984D01*
X14713515Y-12728984D02*
X14703991Y-12719460D01*
X14703991Y-12719460D02*
X14713515Y-12709936D01*
X14713515Y-12709936D02*
X14713515Y-12728984D01*
X14913515Y-12728984D02*
X14799229Y-12728984D01*
X14856372Y-12728984D02*
X14856372Y-12528984D01*
X14856372Y-12528984D02*
X14837325Y-12557555D01*
X14837325Y-12557555D02*
X14818277Y-12576603D01*
X14818277Y-12576603D02*
X14799229Y-12586127D01*
X14989706Y-12548031D02*
X14999229Y-12538508D01*
X14999229Y-12538508D02*
X15018277Y-12528984D01*
X15018277Y-12528984D02*
X15065896Y-12528984D01*
X15065896Y-12528984D02*
X15084944Y-12538508D01*
X15084944Y-12538508D02*
X15094467Y-12548031D01*
X15094467Y-12548031D02*
X15103991Y-12567079D01*
X15103991Y-12567079D02*
X15103991Y-12586127D01*
X15103991Y-12586127D02*
X15094467Y-12614698D01*
X15094467Y-12614698D02*
X14980182Y-12728984D01*
X14980182Y-12728984D02*
X15103991Y-12728984D01*
X15275420Y-12528984D02*
X15237325Y-12528984D01*
X15237325Y-12528984D02*
X15218277Y-12538508D01*
X15218277Y-12538508D02*
X15208753Y-12548031D01*
X15208753Y-12548031D02*
X15189706Y-12576603D01*
X15189706Y-12576603D02*
X15180182Y-12614698D01*
X15180182Y-12614698D02*
X15180182Y-12690888D01*
X15180182Y-12690888D02*
X15189706Y-12709936D01*
X15189706Y-12709936D02*
X15199229Y-12719460D01*
X15199229Y-12719460D02*
X15218277Y-12728984D01*
X15218277Y-12728984D02*
X15256372Y-12728984D01*
X15256372Y-12728984D02*
X15275420Y-12719460D01*
X15275420Y-12719460D02*
X15284944Y-12709936D01*
X15284944Y-12709936D02*
X15294467Y-12690888D01*
X15294467Y-12690888D02*
X15294467Y-12643269D01*
X15294467Y-12643269D02*
X15284944Y-12624222D01*
X15284944Y-12624222D02*
X15275420Y-12614698D01*
X15275420Y-12614698D02*
X15256372Y-12605174D01*
X15256372Y-12605174D02*
X15218277Y-12605174D01*
X15218277Y-12605174D02*
X15199229Y-12614698D01*
X15199229Y-12614698D02*
X15189706Y-12624222D01*
X15189706Y-12624222D02*
X15180182Y-12643269D01*
X15418277Y-12528984D02*
X15437325Y-12528984D01*
X15437325Y-12528984D02*
X15456372Y-12538508D01*
X15456372Y-12538508D02*
X15465896Y-12548031D01*
X15465896Y-12548031D02*
X15475420Y-12567079D01*
X15475420Y-12567079D02*
X15484944Y-12605174D01*
X15484944Y-12605174D02*
X15484944Y-12652793D01*
X15484944Y-12652793D02*
X15475420Y-12690888D01*
X15475420Y-12690888D02*
X15465896Y-12709936D01*
X15465896Y-12709936D02*
X15456372Y-12719460D01*
X15456372Y-12719460D02*
X15437325Y-12728984D01*
X15437325Y-12728984D02*
X15418277Y-12728984D01*
X15418277Y-12728984D02*
X15399229Y-12719460D01*
X15399229Y-12719460D02*
X15389706Y-12709936D01*
X15389706Y-12709936D02*
X15380182Y-12690888D01*
X15380182Y-12690888D02*
X15370658Y-12652793D01*
X15370658Y-12652793D02*
X15370658Y-12605174D01*
X15370658Y-12605174D02*
X15380182Y-12567079D01*
X15380182Y-12567079D02*
X15389706Y-12548031D01*
X15389706Y-12548031D02*
X15399229Y-12538508D01*
X15399229Y-12538508D02*
X15418277Y-12528984D01*
X15561134Y-12528984D02*
X15561134Y-12567079D01*
X15637325Y-12528984D02*
X15637325Y-12567079D01*
X15932563Y-12805174D02*
X15923039Y-12795650D01*
X15923039Y-12795650D02*
X15903991Y-12767079D01*
X15903991Y-12767079D02*
X15894468Y-12748031D01*
X15894468Y-12748031D02*
X15884944Y-12719460D01*
X15884944Y-12719460D02*
X15875420Y-12671841D01*
X15875420Y-12671841D02*
X15875420Y-12633746D01*
X15875420Y-12633746D02*
X15884944Y-12586127D01*
X15884944Y-12586127D02*
X15894468Y-12557555D01*
X15894468Y-12557555D02*
X15903991Y-12538508D01*
X15903991Y-12538508D02*
X15923039Y-12509936D01*
X15923039Y-12509936D02*
X15932563Y-12500412D01*
X16094468Y-12595650D02*
X16094468Y-12728984D01*
X16046848Y-12519460D02*
X15999229Y-12662317D01*
X15999229Y-12662317D02*
X16123039Y-12662317D01*
X16351610Y-12728984D02*
X16351610Y-12528984D01*
X16437325Y-12728984D02*
X16437325Y-12624222D01*
X16437325Y-12624222D02*
X16427801Y-12605174D01*
X16427801Y-12605174D02*
X16408753Y-12595650D01*
X16408753Y-12595650D02*
X16380182Y-12595650D01*
X16380182Y-12595650D02*
X16361134Y-12605174D01*
X16361134Y-12605174D02*
X16351610Y-12614698D01*
X16561134Y-12728984D02*
X16542087Y-12719460D01*
X16542087Y-12719460D02*
X16532563Y-12709936D01*
X16532563Y-12709936D02*
X16523039Y-12690888D01*
X16523039Y-12690888D02*
X16523039Y-12633746D01*
X16523039Y-12633746D02*
X16532563Y-12614698D01*
X16532563Y-12614698D02*
X16542087Y-12605174D01*
X16542087Y-12605174D02*
X16561134Y-12595650D01*
X16561134Y-12595650D02*
X16589706Y-12595650D01*
X16589706Y-12595650D02*
X16608753Y-12605174D01*
X16608753Y-12605174D02*
X16618277Y-12614698D01*
X16618277Y-12614698D02*
X16627801Y-12633746D01*
X16627801Y-12633746D02*
X16627801Y-12690888D01*
X16627801Y-12690888D02*
X16618277Y-12709936D01*
X16618277Y-12709936D02*
X16608753Y-12719460D01*
X16608753Y-12719460D02*
X16589706Y-12728984D01*
X16589706Y-12728984D02*
X16561134Y-12728984D01*
X16742087Y-12728984D02*
X16723039Y-12719460D01*
X16723039Y-12719460D02*
X16713515Y-12700412D01*
X16713515Y-12700412D02*
X16713515Y-12528984D01*
X16894468Y-12719460D02*
X16875420Y-12728984D01*
X16875420Y-12728984D02*
X16837325Y-12728984D01*
X16837325Y-12728984D02*
X16818277Y-12719460D01*
X16818277Y-12719460D02*
X16808753Y-12700412D01*
X16808753Y-12700412D02*
X16808753Y-12624222D01*
X16808753Y-12624222D02*
X16818277Y-12605174D01*
X16818277Y-12605174D02*
X16837325Y-12595650D01*
X16837325Y-12595650D02*
X16875420Y-12595650D01*
X16875420Y-12595650D02*
X16894468Y-12605174D01*
X16894468Y-12605174D02*
X16903992Y-12624222D01*
X16903992Y-12624222D02*
X16903992Y-12643269D01*
X16903992Y-12643269D02*
X16808753Y-12662317D01*
X16980182Y-12719460D02*
X16999230Y-12728984D01*
X16999230Y-12728984D02*
X17037325Y-12728984D01*
X17037325Y-12728984D02*
X17056373Y-12719460D01*
X17056373Y-12719460D02*
X17065896Y-12700412D01*
X17065896Y-12700412D02*
X17065896Y-12690888D01*
X17065896Y-12690888D02*
X17056373Y-12671841D01*
X17056373Y-12671841D02*
X17037325Y-12662317D01*
X17037325Y-12662317D02*
X17008753Y-12662317D01*
X17008753Y-12662317D02*
X16989706Y-12652793D01*
X16989706Y-12652793D02*
X16980182Y-12633746D01*
X16980182Y-12633746D02*
X16980182Y-12624222D01*
X16980182Y-12624222D02*
X16989706Y-12605174D01*
X16989706Y-12605174D02*
X17008753Y-12595650D01*
X17008753Y-12595650D02*
X17037325Y-12595650D01*
X17037325Y-12595650D02*
X17056373Y-12605174D01*
X17132563Y-12805174D02*
X17142087Y-12795650D01*
X17142087Y-12795650D02*
X17161134Y-12767079D01*
X17161134Y-12767079D02*
X17170658Y-12748031D01*
X17170658Y-12748031D02*
X17180182Y-12719460D01*
X17180182Y-12719460D02*
X17189706Y-12671841D01*
X17189706Y-12671841D02*
X17189706Y-12633746D01*
X17189706Y-12633746D02*
X17180182Y-12586127D01*
X17180182Y-12586127D02*
X17170658Y-12557555D01*
X17170658Y-12557555D02*
X17161134Y-12538508D01*
X17161134Y-12538508D02*
X17142087Y-12509936D01*
X17142087Y-12509936D02*
X17132563Y-12500412D01*
X17494468Y-12805174D02*
X17484944Y-12795650D01*
X17484944Y-12795650D02*
X17465896Y-12767079D01*
X17465896Y-12767079D02*
X17456373Y-12748031D01*
X17456373Y-12748031D02*
X17446849Y-12719460D01*
X17446849Y-12719460D02*
X17437325Y-12671841D01*
X17437325Y-12671841D02*
X17437325Y-12633746D01*
X17437325Y-12633746D02*
X17446849Y-12586127D01*
X17446849Y-12586127D02*
X17456373Y-12557555D01*
X17456373Y-12557555D02*
X17465896Y-12538508D01*
X17465896Y-12538508D02*
X17484944Y-12509936D01*
X17484944Y-12509936D02*
X17494468Y-12500412D01*
X17570658Y-12595650D02*
X17570658Y-12728984D01*
X17570658Y-12614698D02*
X17580182Y-12605174D01*
X17580182Y-12605174D02*
X17599230Y-12595650D01*
X17599230Y-12595650D02*
X17627801Y-12595650D01*
X17627801Y-12595650D02*
X17646849Y-12605174D01*
X17646849Y-12605174D02*
X17656373Y-12624222D01*
X17656373Y-12624222D02*
X17656373Y-12728984D01*
X17780182Y-12728984D02*
X17761134Y-12719460D01*
X17761134Y-12719460D02*
X17751611Y-12709936D01*
X17751611Y-12709936D02*
X17742087Y-12690888D01*
X17742087Y-12690888D02*
X17742087Y-12633746D01*
X17742087Y-12633746D02*
X17751611Y-12614698D01*
X17751611Y-12614698D02*
X17761134Y-12605174D01*
X17761134Y-12605174D02*
X17780182Y-12595650D01*
X17780182Y-12595650D02*
X17808754Y-12595650D01*
X17808754Y-12595650D02*
X17827801Y-12605174D01*
X17827801Y-12605174D02*
X17837325Y-12614698D01*
X17837325Y-12614698D02*
X17846849Y-12633746D01*
X17846849Y-12633746D02*
X17846849Y-12690888D01*
X17846849Y-12690888D02*
X17837325Y-12709936D01*
X17837325Y-12709936D02*
X17827801Y-12719460D01*
X17827801Y-12719460D02*
X17808754Y-12728984D01*
X17808754Y-12728984D02*
X17780182Y-12728984D01*
X17903992Y-12595650D02*
X17980182Y-12595650D01*
X17932563Y-12528984D02*
X17932563Y-12700412D01*
X17932563Y-12700412D02*
X17942087Y-12719460D01*
X17942087Y-12719460D02*
X17961134Y-12728984D01*
X17961134Y-12728984D02*
X17980182Y-12728984D01*
X18199230Y-12595650D02*
X18199230Y-12795650D01*
X18199230Y-12605174D02*
X18218277Y-12595650D01*
X18218277Y-12595650D02*
X18256373Y-12595650D01*
X18256373Y-12595650D02*
X18275420Y-12605174D01*
X18275420Y-12605174D02*
X18284944Y-12614698D01*
X18284944Y-12614698D02*
X18294468Y-12633746D01*
X18294468Y-12633746D02*
X18294468Y-12690888D01*
X18294468Y-12690888D02*
X18284944Y-12709936D01*
X18284944Y-12709936D02*
X18275420Y-12719460D01*
X18275420Y-12719460D02*
X18256373Y-12728984D01*
X18256373Y-12728984D02*
X18218277Y-12728984D01*
X18218277Y-12728984D02*
X18199230Y-12719460D01*
X18408754Y-12728984D02*
X18389706Y-12719460D01*
X18389706Y-12719460D02*
X18380182Y-12700412D01*
X18380182Y-12700412D02*
X18380182Y-12528984D01*
X18570658Y-12728984D02*
X18570658Y-12624222D01*
X18570658Y-12624222D02*
X18561135Y-12605174D01*
X18561135Y-12605174D02*
X18542087Y-12595650D01*
X18542087Y-12595650D02*
X18503992Y-12595650D01*
X18503992Y-12595650D02*
X18484944Y-12605174D01*
X18570658Y-12719460D02*
X18551611Y-12728984D01*
X18551611Y-12728984D02*
X18503992Y-12728984D01*
X18503992Y-12728984D02*
X18484944Y-12719460D01*
X18484944Y-12719460D02*
X18475420Y-12700412D01*
X18475420Y-12700412D02*
X18475420Y-12681365D01*
X18475420Y-12681365D02*
X18484944Y-12662317D01*
X18484944Y-12662317D02*
X18503992Y-12652793D01*
X18503992Y-12652793D02*
X18551611Y-12652793D01*
X18551611Y-12652793D02*
X18570658Y-12643269D01*
X18637325Y-12595650D02*
X18713515Y-12595650D01*
X18665896Y-12528984D02*
X18665896Y-12700412D01*
X18665896Y-12700412D02*
X18675420Y-12719460D01*
X18675420Y-12719460D02*
X18694468Y-12728984D01*
X18694468Y-12728984D02*
X18713515Y-12728984D01*
X18856373Y-12719460D02*
X18837325Y-12728984D01*
X18837325Y-12728984D02*
X18799230Y-12728984D01*
X18799230Y-12728984D02*
X18780182Y-12719460D01*
X18780182Y-12719460D02*
X18770658Y-12700412D01*
X18770658Y-12700412D02*
X18770658Y-12624222D01*
X18770658Y-12624222D02*
X18780182Y-12605174D01*
X18780182Y-12605174D02*
X18799230Y-12595650D01*
X18799230Y-12595650D02*
X18837325Y-12595650D01*
X18837325Y-12595650D02*
X18856373Y-12605174D01*
X18856373Y-12605174D02*
X18865896Y-12624222D01*
X18865896Y-12624222D02*
X18865896Y-12643269D01*
X18865896Y-12643269D02*
X18770658Y-12662317D01*
X19037325Y-12728984D02*
X19037325Y-12528984D01*
X19037325Y-12719460D02*
X19018277Y-12728984D01*
X19018277Y-12728984D02*
X18980182Y-12728984D01*
X18980182Y-12728984D02*
X18961135Y-12719460D01*
X18961135Y-12719460D02*
X18951611Y-12709936D01*
X18951611Y-12709936D02*
X18942087Y-12690888D01*
X18942087Y-12690888D02*
X18942087Y-12633746D01*
X18942087Y-12633746D02*
X18951611Y-12614698D01*
X18951611Y-12614698D02*
X18961135Y-12605174D01*
X18961135Y-12605174D02*
X18980182Y-12595650D01*
X18980182Y-12595650D02*
X19018277Y-12595650D01*
X19018277Y-12595650D02*
X19037325Y-12605174D01*
X19113516Y-12805174D02*
X19123039Y-12795650D01*
X19123039Y-12795650D02*
X19142087Y-12767079D01*
X19142087Y-12767079D02*
X19151611Y-12748031D01*
X19151611Y-12748031D02*
X19161135Y-12719460D01*
X19161135Y-12719460D02*
X19170658Y-12671841D01*
X19170658Y-12671841D02*
X19170658Y-12633746D01*
X19170658Y-12633746D02*
X19161135Y-12586127D01*
X19161135Y-12586127D02*
X19151611Y-12557555D01*
X19151611Y-12557555D02*
X19142087Y-12538508D01*
X19142087Y-12538508D02*
X19123039Y-12509936D01*
X19123039Y-12509936D02*
X19113516Y-12500412D01*
M02*
