%TF.GenerationSoftware,KiCad,Pcbnew,8.0.8*%
%TF.CreationDate,2025-05-27T15:32:41+02:00*%
%TF.ProjectId,gFocus,67466f63-7573-42e6-9b69-6361645f7063,rev?*%
%TF.SameCoordinates,Original*%
%TF.FileFunction,Copper,L1,Top*%
%TF.FilePolarity,Positive*%
%FSLAX46Y46*%
G04 Gerber Fmt 4.6, Leading zero omitted, Abs format (unit mm)*
G04 Created by KiCad (PCBNEW 8.0.8) date 2025-05-27 15:32:41*
%MOMM*%
%LPD*%
G01*
G04 APERTURE LIST*
G04 Aperture macros list*
%AMRoundRect*
0 Rectangle with rounded corners*
0 $1 Rounding radius*
0 $2 $3 $4 $5 $6 $7 $8 $9 X,Y pos of 4 corners*
0 Add a 4 corners polygon primitive as box body*
4,1,4,$2,$3,$4,$5,$6,$7,$8,$9,$2,$3,0*
0 Add four circle primitives for the rounded corners*
1,1,$1+$1,$2,$3*
1,1,$1+$1,$4,$5*
1,1,$1+$1,$6,$7*
1,1,$1+$1,$8,$9*
0 Add four rect primitives between the rounded corners*
20,1,$1+$1,$2,$3,$4,$5,0*
20,1,$1+$1,$4,$5,$6,$7,0*
20,1,$1+$1,$6,$7,$8,$9,0*
20,1,$1+$1,$8,$9,$2,$3,0*%
G04 Aperture macros list end*
%TA.AperFunction,SMDPad,CuDef*%
%ADD10RoundRect,0.500000X-0.875000X-0.500000X0.875000X-0.500000X0.875000X0.500000X-0.875000X0.500000X0*%
%TD*%
%TA.AperFunction,SMDPad,CuDef*%
%ADD11RoundRect,0.275000X0.275000X-0.975000X0.275000X0.975000X-0.275000X0.975000X-0.275000X-0.975000X0*%
%TD*%
%TA.AperFunction,SMDPad,CuDef*%
%ADD12C,1.700000*%
%TD*%
%TA.AperFunction,SMDPad,CuDef*%
%ADD13RoundRect,0.250000X0.262500X0.450000X-0.262500X0.450000X-0.262500X-0.450000X0.262500X-0.450000X0*%
%TD*%
%TA.AperFunction,SMDPad,CuDef*%
%ADD14R,2.790000X0.740000*%
%TD*%
%TA.AperFunction,SMDPad,CuDef*%
%ADD15RoundRect,0.250000X-0.262500X-0.450000X0.262500X-0.450000X0.262500X0.450000X-0.262500X0.450000X0*%
%TD*%
%TA.AperFunction,SMDPad,CuDef*%
%ADD16RoundRect,0.250000X0.250000X0.475000X-0.250000X0.475000X-0.250000X-0.475000X0.250000X-0.475000X0*%
%TD*%
%TA.AperFunction,ComponentPad*%
%ADD17RoundRect,0.250000X-0.350000X-0.575000X0.350000X-0.575000X0.350000X0.575000X-0.350000X0.575000X0*%
%TD*%
%TA.AperFunction,ComponentPad*%
%ADD18O,1.200000X1.650000*%
%TD*%
%TA.AperFunction,ViaPad*%
%ADD19C,0.600000*%
%TD*%
%TA.AperFunction,Conductor*%
%ADD20C,0.200000*%
%TD*%
G04 APERTURE END LIST*
D10*
%TO.P,U7,1,PA02_A0_D0*%
%TO.N,S_OUT*%
X137812006Y-78280000D03*
%TO.P,U7,2,PA4_A1_D1*%
%TO.N,unconnected-(U7-PA4_A1_D1-Pad2)*%
X137812006Y-80820000D03*
%TO.P,U7,3,PA10_A2_D2*%
%TO.N,unconnected-(U7-PA10_A2_D2-Pad3)*%
X137812006Y-83360000D03*
%TO.P,U7,4,PA11_A3_D3*%
%TO.N,unconnected-(U7-PA11_A3_D3-Pad4)*%
X137812006Y-85900000D03*
%TO.P,U7,5,PA8_A4_D4_SDA*%
%TO.N,unconnected-(U7-PA8_A4_D4_SDA-Pad5)*%
X137812006Y-88440000D03*
%TO.P,U7,6,PA9_A5_D5_SCL*%
%TO.N,unconnected-(U7-PA9_A5_D5_SCL-Pad6)*%
X137812006Y-90980000D03*
%TO.P,U7,7,PB08_A6_D6_TX*%
%TO.N,unconnected-(U7-PB08_A6_D6_TX-Pad7)*%
X137812006Y-93520000D03*
%TO.P,U7,8,PB09_A7_D7_RX*%
%TO.N,unconnected-(U7-PB09_A7_D7_RX-Pad8)*%
X153977006Y-93520000D03*
%TO.P,U7,9,PA7_A8_D8_SCK*%
%TO.N,S_DIN*%
X153977006Y-90980000D03*
%TO.P,U7,10,PA5_A9_D9_MISO*%
%TO.N,S_CLK*%
X153977006Y-88440000D03*
%TO.P,U7,11,PA6_A10_D10_MOSI*%
%TO.N,unconnected-(U7-PA6_A10_D10_MOSI-Pad11)*%
X153977006Y-85900000D03*
%TO.P,U7,12,3V3*%
%TO.N,VDD*%
X153977006Y-83360000D03*
%TO.P,U7,13,GND*%
%TO.N,GND*%
X153977006Y-80820000D03*
%TO.P,U7,14,5V*%
%TO.N,+5V*%
X153977006Y-78280000D03*
D11*
%TO.P,U7,15,VIN*%
%TO.N,unconnected-(U7-VIN-Pad15)*%
X144724006Y-94539700D03*
%TO.P,U7,16,GND*%
%TO.N,GND*%
X147264006Y-94539700D03*
D12*
%TO.P,U7,17,PA31_SWDIO*%
%TO.N,SWDIO*%
X144724006Y-77521700D03*
%TO.P,U7,18,PA30_SWCLK*%
%TO.N,SWDCLK*%
X147264006Y-77521700D03*
%TO.P,U7,19,RESET*%
%TO.N,RESET*%
X144724006Y-80061700D03*
%TO.P,U7,20,GND*%
%TO.N,GND*%
X147264006Y-80061700D03*
%TD*%
D13*
%TO.P,R7,2*%
%TO.N,RESET*%
X162225000Y-93025000D03*
%TO.P,R7,1*%
%TO.N,VDD*%
X164050000Y-93025000D03*
%TD*%
D14*
%TO.P,J1,10,10*%
%TO.N,RESET*%
X161337500Y-95195000D03*
%TO.P,J1,09,09*%
%TO.N,unconnected-(J1-Pad09)*%
X165407500Y-95195000D03*
%TO.P,J1,08,08*%
%TO.N,unconnected-(J1-Pad08)*%
X161337500Y-96465000D03*
%TO.P,J1,07,07*%
%TO.N,unconnected-(J1-Pad07)*%
X165407500Y-96465000D03*
%TO.P,J1,06,06*%
%TO.N,unconnected-(J1-Pad06)*%
X161337500Y-97735000D03*
%TO.P,J1,05,05*%
%TO.N,GND*%
X165407500Y-97735000D03*
%TO.P,J1,04,04*%
%TO.N,SWDCLK*%
X161337500Y-99005000D03*
%TO.P,J1,03,03*%
%TO.N,GND*%
X165407500Y-99005000D03*
%TO.P,J1,02,02*%
%TO.N,SWDIO*%
X161337500Y-100275000D03*
%TO.P,J1,01,01*%
%TO.N,VDD*%
X165407500Y-100275000D03*
%TD*%
D13*
%TO.P,R6,2*%
%TO.N,SWDCLK*%
X162475000Y-102500000D03*
%TO.P,R6,1*%
%TO.N,VDD*%
X164300000Y-102500000D03*
%TD*%
D15*
%TO.P,R5,1*%
%TO.N,Net-(J3-Pin_4)*%
X138825000Y-103500000D03*
%TO.P,R5,2*%
%TO.N,S_OUT*%
X140650000Y-103500000D03*
%TD*%
D16*
%TO.P,C15,1*%
%TO.N,S_OUT*%
X140700000Y-105600000D03*
%TO.P,C15,2*%
%TO.N,GND*%
X138800000Y-105600000D03*
%TD*%
D17*
%TO.P,J3,1,Pin_1*%
%TO.N,unconnected-(J3-Pin_1-Pad1)*%
X138945000Y-109400000D03*
D18*
%TO.P,J3,2,Pin_2*%
%TO.N,unconnected-(J3-Pin_2-Pad2)*%
X138945000Y-111400000D03*
%TO.P,J3,3,Pin_3*%
%TO.N,S_DIN*%
X140945000Y-109400000D03*
%TO.P,J3,4,Pin_4*%
%TO.N,Net-(J3-Pin_4)*%
X140945000Y-111400000D03*
%TO.P,J3,5,Pin_5*%
%TO.N,unconnected-(J3-Pin_5-Pad5)*%
X142945000Y-109400000D03*
%TO.P,J3,6,Pin_6*%
%TO.N,S_CLK*%
X142945000Y-111400000D03*
%TO.P,J3,7,Pin_7*%
%TO.N,unconnected-(J3-Pin_7-Pad7)*%
X144945000Y-109400000D03*
%TO.P,J3,8,Pin_8*%
%TO.N,unconnected-(J3-Pin_8-Pad8)*%
X144945000Y-111400000D03*
%TO.P,J3,9,Pin_9*%
%TO.N,unconnected-(J3-Pin_9-Pad9)*%
X146945000Y-109400000D03*
%TO.P,J3,10,Pin_10*%
%TO.N,unconnected-(J3-Pin_10-Pad10)*%
X146945000Y-111400000D03*
%TO.P,J3,11,Pin_11*%
%TO.N,VDD*%
X148945000Y-109400000D03*
%TO.P,J3,12,Pin_12*%
%TO.N,GND*%
X148945000Y-111400000D03*
%TD*%
D19*
%TO.N,RESET*%
X160300000Y-93100000D03*
X144700000Y-80100000D03*
%TO.N,SWDCLK*%
X147200000Y-77500000D03*
%TO.N,SWDIO*%
X144724006Y-77521700D03*
%TO.N,S_CLK*%
X154000000Y-88400000D03*
X142900000Y-93200000D03*
%TO.N,GND*%
X147300000Y-94600000D03*
X154000000Y-80900000D03*
X147300000Y-80000000D03*
X165407500Y-97715000D03*
X165422500Y-99002500D03*
X138837500Y-106100000D03*
%TO.N,SWDIO*%
X161337500Y-100275000D03*
%TO.N,SWDCLK*%
X161337500Y-99005000D03*
%TO.N,Net-(J3-Pin_4)*%
X138825000Y-103500000D03*
%TD*%
D20*
%TO.N,RESET*%
X160525000Y-93100000D02*
X161337500Y-93912500D01*
X160300000Y-93100000D02*
X160525000Y-93100000D01*
X144724006Y-80075994D02*
X144700000Y-80100000D01*
X144724006Y-80061700D02*
X144724006Y-80075994D01*
%TO.N,SWDCLK*%
X147221700Y-77521700D02*
X147200000Y-77500000D01*
X147264006Y-77521700D02*
X147221700Y-77521700D01*
X162305000Y-99005000D02*
X161337500Y-99005000D01*
X163032500Y-99732500D02*
X162305000Y-99005000D01*
X163032500Y-101942500D02*
X163032500Y-99732500D01*
X162475000Y-102500000D02*
X163032500Y-101942500D01*
%TO.N,S_CLK*%
X142045000Y-108802208D02*
X142045000Y-110500000D01*
X142900000Y-107947208D02*
X142045000Y-108802208D01*
X142900000Y-93200000D02*
X142900000Y-107947208D01*
X142045000Y-110500000D02*
X142945000Y-111400000D01*
%TO.N,RESET*%
X161337500Y-93912500D02*
X162225000Y-93025000D01*
X161337500Y-95195000D02*
X161337500Y-93912500D01*
%TO.N,S_CLK*%
X153977006Y-88422994D02*
X154000000Y-88400000D01*
X153977006Y-88440000D02*
X153977006Y-88422994D01*
%TO.N,S_DIN*%
X143820000Y-90980000D02*
X153977006Y-90980000D01*
X142000000Y-92800000D02*
X143820000Y-90980000D01*
X142000000Y-108345000D02*
X142000000Y-92800000D01*
X140945000Y-109400000D02*
X142000000Y-108345000D01*
%TO.N,S_OUT*%
X140650000Y-81117994D02*
X140650000Y-103500000D01*
X137812006Y-78280000D02*
X140650000Y-81117994D01*
%TO.N,Net-(J3-Pin_4)*%
X139900000Y-110355000D02*
X140945000Y-111400000D01*
X139900000Y-104575000D02*
X139900000Y-110355000D01*
X138825000Y-103500000D02*
X139900000Y-104575000D01*
%TO.N,S_OUT*%
X140700000Y-103550000D02*
X140650000Y-103500000D01*
X140700000Y-105600000D02*
X140700000Y-103550000D01*
X140700000Y-106000000D02*
X140700000Y-105421814D01*
%TD*%
%TA.AperFunction,Conductor*%
%TO.N,VDD*%
G36*
X161235148Y-75864852D02*
G01*
X161249500Y-75899500D01*
X161249500Y-81865895D01*
X161283607Y-81993184D01*
X161283608Y-81993188D01*
X161349500Y-82107314D01*
X161442686Y-82200500D01*
X161463299Y-82212401D01*
X161556811Y-82266391D01*
X161556813Y-82266391D01*
X161556814Y-82266392D01*
X161657207Y-82293292D01*
X161684104Y-82300499D01*
X161684105Y-82300500D01*
X161684108Y-82300500D01*
X161815892Y-82300500D01*
X167650500Y-82300500D01*
X167685148Y-82314852D01*
X167699500Y-82349500D01*
X167699500Y-112950500D01*
X167685148Y-112985148D01*
X167650500Y-112999500D01*
X161684105Y-112999500D01*
X161556815Y-113033607D01*
X161556811Y-113033608D01*
X161442685Y-113099500D01*
X161442685Y-113099501D01*
X161349501Y-113192685D01*
X161349500Y-113192685D01*
X161283608Y-113306811D01*
X161283607Y-113306815D01*
X161249500Y-113434104D01*
X161249500Y-119400500D01*
X161235148Y-119435148D01*
X161200500Y-119449500D01*
X130599500Y-119449500D01*
X130564852Y-119435148D01*
X130550500Y-119400500D01*
X130550500Y-113434105D01*
X130550499Y-113434104D01*
X130516392Y-113306815D01*
X130516391Y-113306811D01*
X130450499Y-113192685D01*
X130357314Y-113099500D01*
X130243188Y-113033608D01*
X130243184Y-113033607D01*
X130115895Y-112999500D01*
X130115892Y-112999500D01*
X124149500Y-112999500D01*
X124114852Y-112985148D01*
X124100500Y-112950500D01*
X124100500Y-110278712D01*
X131299500Y-110278712D01*
X131299500Y-110521288D01*
X131331162Y-110761789D01*
X131331163Y-110761793D01*
X131331164Y-110761800D01*
X131393944Y-110996095D01*
X131393946Y-110996101D01*
X131486776Y-111220213D01*
X131608062Y-111430286D01*
X131608072Y-111430301D01*
X131755730Y-111622732D01*
X131755740Y-111622744D01*
X131927255Y-111794259D01*
X131927267Y-111794269D01*
X132119698Y-111941927D01*
X132119707Y-111941933D01*
X132119711Y-111941936D01*
X132329788Y-112063224D01*
X132553900Y-112156054D01*
X132553904Y-112156055D01*
X132788199Y-112218835D01*
X132788200Y-112218835D01*
X132788211Y-112218838D01*
X133028712Y-112250500D01*
X133028716Y-112250500D01*
X133271284Y-112250500D01*
X133271288Y-112250500D01*
X133511789Y-112218838D01*
X133746100Y-112156054D01*
X133970212Y-112063224D01*
X134180289Y-111941936D01*
X134372738Y-111794265D01*
X134544265Y-111622738D01*
X134691936Y-111430289D01*
X134813224Y-111220212D01*
X134906054Y-110996100D01*
X134968838Y-110761789D01*
X135000500Y-110521288D01*
X135000500Y-110278712D01*
X134968838Y-110038211D01*
X134959622Y-110003818D01*
X134906055Y-109803904D01*
X134906053Y-109803898D01*
X134879621Y-109740084D01*
X134813224Y-109579788D01*
X134691936Y-109369711D01*
X134691933Y-109369707D01*
X134691927Y-109369698D01*
X134544269Y-109177267D01*
X134544259Y-109177255D01*
X134372744Y-109005740D01*
X134372732Y-109005730D01*
X134180301Y-108858072D01*
X134180286Y-108858062D01*
X133970212Y-108736776D01*
X133970213Y-108736776D01*
X133746101Y-108643946D01*
X133746095Y-108643944D01*
X133511800Y-108581164D01*
X133511793Y-108581163D01*
X133511789Y-108581162D01*
X133271288Y-108549500D01*
X133028712Y-108549500D01*
X132788211Y-108581162D01*
X132788207Y-108581162D01*
X132788199Y-108581164D01*
X132553904Y-108643944D01*
X132553898Y-108643946D01*
X132329786Y-108736776D01*
X132119713Y-108858062D01*
X132119698Y-108858072D01*
X131927267Y-109005730D01*
X131927255Y-109005740D01*
X131755740Y-109177255D01*
X131755730Y-109177267D01*
X131608072Y-109369698D01*
X131608062Y-109369713D01*
X131486776Y-109579786D01*
X131393946Y-109803898D01*
X131393944Y-109803904D01*
X131331164Y-110038199D01*
X131331162Y-110038207D01*
X131331162Y-110038211D01*
X131299500Y-110278712D01*
X124100500Y-110278712D01*
X124100500Y-105093482D01*
X138149500Y-105093482D01*
X138149500Y-106106517D01*
X138164353Y-106200303D01*
X138221945Y-106313335D01*
X138221950Y-106313342D01*
X138311657Y-106403049D01*
X138311664Y-106403054D01*
X138424691Y-106460644D01*
X138424692Y-106460644D01*
X138424696Y-106460646D01*
X138518481Y-106475500D01*
X138574128Y-106475499D01*
X138600620Y-106483278D01*
X138633014Y-106504096D01*
X138648431Y-106514004D01*
X138723185Y-106535953D01*
X138772723Y-106550499D01*
X138772728Y-106550500D01*
X138902272Y-106550500D01*
X138902276Y-106550499D01*
X138930745Y-106542139D01*
X139026569Y-106514004D01*
X139079451Y-106480018D01*
X139098271Y-106472845D01*
X139175304Y-106460646D01*
X139236387Y-106429522D01*
X139288335Y-106403054D01*
X139288337Y-106403052D01*
X139288342Y-106403050D01*
X139378050Y-106313342D01*
X139378054Y-106313335D01*
X139435644Y-106200309D01*
X139435644Y-106200307D01*
X139435646Y-106200304D01*
X139450500Y-106106519D01*
X139450499Y-105093482D01*
X139435646Y-104999696D01*
X139435643Y-104999690D01*
X139378054Y-104886664D01*
X139378049Y-104886657D01*
X139288342Y-104796950D01*
X139288335Y-104796945D01*
X139175308Y-104739355D01*
X139175305Y-104739354D01*
X139175304Y-104739354D01*
X139081519Y-104724500D01*
X139081517Y-104724500D01*
X138518482Y-104724500D01*
X138424696Y-104739353D01*
X138311664Y-104796945D01*
X138311657Y-104796950D01*
X138221950Y-104886657D01*
X138221945Y-104886664D01*
X138164355Y-104999690D01*
X138164355Y-104999692D01*
X138149500Y-105093482D01*
X124100500Y-105093482D01*
X124100500Y-92954303D01*
X136286506Y-92954303D01*
X136286506Y-94085696D01*
X136289407Y-94122567D01*
X136289407Y-94122569D01*
X136335262Y-94280399D01*
X136418923Y-94421862D01*
X136418925Y-94421865D01*
X136535141Y-94538081D01*
X136676606Y-94621743D01*
X136676607Y-94621743D01*
X136676608Y-94621744D01*
X136834437Y-94667598D01*
X136871312Y-94670500D01*
X136871323Y-94670500D01*
X138752689Y-94670500D01*
X138752700Y-94670500D01*
X138789575Y-94667598D01*
X138947404Y-94621744D01*
X139088871Y-94538081D01*
X139205087Y-94421865D01*
X139288750Y-94280398D01*
X139334604Y-94122569D01*
X139337506Y-94085694D01*
X139337506Y-92954306D01*
X139334604Y-92917431D01*
X139326462Y-92889408D01*
X139296418Y-92785995D01*
X139288750Y-92759602D01*
X139205087Y-92618135D01*
X139088871Y-92501919D01*
X139000566Y-92449696D01*
X138947404Y-92418256D01*
X138947406Y-92418256D01*
X138789574Y-92372401D01*
X138752702Y-92369500D01*
X138752700Y-92369500D01*
X136871312Y-92369500D01*
X136871309Y-92369500D01*
X136834438Y-92372401D01*
X136834436Y-92372401D01*
X136676606Y-92418256D01*
X136535143Y-92501917D01*
X136535138Y-92501921D01*
X136418927Y-92618132D01*
X136418923Y-92618137D01*
X136335262Y-92759600D01*
X136289407Y-92917430D01*
X136289407Y-92917432D01*
X136286506Y-92954303D01*
X124100500Y-92954303D01*
X124100500Y-90414303D01*
X136286506Y-90414303D01*
X136286506Y-91545696D01*
X136289407Y-91582567D01*
X136289407Y-91582569D01*
X136335262Y-91740399D01*
X136418923Y-91881862D01*
X136418925Y-91881865D01*
X136535141Y-91998081D01*
X136676606Y-92081743D01*
X136676607Y-92081743D01*
X136676608Y-92081744D01*
X136834437Y-92127598D01*
X136871312Y-92130500D01*
X136871323Y-92130500D01*
X138752689Y-92130500D01*
X138752700Y-92130500D01*
X138789575Y-92127598D01*
X138947404Y-92081744D01*
X139088871Y-91998081D01*
X139205087Y-91881865D01*
X139288750Y-91740398D01*
X139334604Y-91582569D01*
X139337506Y-91545694D01*
X139337506Y-90414306D01*
X139334604Y-90377431D01*
X139288750Y-90219602D01*
X139205087Y-90078135D01*
X139088871Y-89961919D01*
X138947404Y-89878256D01*
X138947406Y-89878256D01*
X138789574Y-89832401D01*
X138752702Y-89829500D01*
X138752700Y-89829500D01*
X136871312Y-89829500D01*
X136871309Y-89829500D01*
X136834438Y-89832401D01*
X136834436Y-89832401D01*
X136676606Y-89878256D01*
X136535143Y-89961917D01*
X136535138Y-89961921D01*
X136418927Y-90078132D01*
X136418923Y-90078137D01*
X136335262Y-90219600D01*
X136289407Y-90377430D01*
X136289407Y-90377432D01*
X136286506Y-90414303D01*
X124100500Y-90414303D01*
X124100500Y-87874303D01*
X136286506Y-87874303D01*
X136286506Y-89005696D01*
X136289407Y-89042567D01*
X136289407Y-89042569D01*
X136335262Y-89200399D01*
X136418923Y-89341862D01*
X136418925Y-89341865D01*
X136535141Y-89458081D01*
X136676606Y-89541743D01*
X136676607Y-89541743D01*
X136676608Y-89541744D01*
X136834437Y-89587598D01*
X136871312Y-89590500D01*
X136871323Y-89590500D01*
X138752689Y-89590500D01*
X138752700Y-89590500D01*
X138789575Y-89587598D01*
X138947404Y-89541744D01*
X139088871Y-89458081D01*
X139205087Y-89341865D01*
X139288750Y-89200398D01*
X139334604Y-89042569D01*
X139337506Y-89005694D01*
X139337506Y-87874306D01*
X139334604Y-87837431D01*
X139288750Y-87679602D01*
X139205087Y-87538135D01*
X139088871Y-87421919D01*
X138947404Y-87338256D01*
X138947406Y-87338256D01*
X138789574Y-87292401D01*
X138752702Y-87289500D01*
X138752700Y-87289500D01*
X136871312Y-87289500D01*
X136871309Y-87289500D01*
X136834438Y-87292401D01*
X136834436Y-87292401D01*
X136676606Y-87338256D01*
X136535143Y-87421917D01*
X136535138Y-87421921D01*
X136418927Y-87538132D01*
X136418923Y-87538137D01*
X136335262Y-87679600D01*
X136289407Y-87837430D01*
X136289407Y-87837432D01*
X136286506Y-87874303D01*
X124100500Y-87874303D01*
X124100500Y-84778712D01*
X131299500Y-84778712D01*
X131299500Y-85021288D01*
X131331162Y-85261789D01*
X131331163Y-85261793D01*
X131331164Y-85261800D01*
X131393944Y-85496095D01*
X131393946Y-85496101D01*
X131486776Y-85720213D01*
X131608062Y-85930286D01*
X131608072Y-85930301D01*
X131755730Y-86122732D01*
X131755740Y-86122744D01*
X131927255Y-86294259D01*
X131927267Y-86294269D01*
X132119698Y-86441927D01*
X132119707Y-86441933D01*
X132119711Y-86441936D01*
X132329788Y-86563224D01*
X132553900Y-86656054D01*
X132553904Y-86656055D01*
X132788199Y-86718835D01*
X132788200Y-86718835D01*
X132788211Y-86718838D01*
X133028712Y-86750500D01*
X133028716Y-86750500D01*
X133271284Y-86750500D01*
X133271288Y-86750500D01*
X133511789Y-86718838D01*
X133746100Y-86656054D01*
X133970212Y-86563224D01*
X134180289Y-86441936D01*
X134372738Y-86294265D01*
X134544265Y-86122738D01*
X134691936Y-85930289D01*
X134813224Y-85720212D01*
X134906054Y-85496100D01*
X134949408Y-85334303D01*
X136286506Y-85334303D01*
X136286506Y-86465696D01*
X136289407Y-86502567D01*
X136289407Y-86502569D01*
X136335262Y-86660399D01*
X136369821Y-86718835D01*
X136418925Y-86801865D01*
X136535141Y-86918081D01*
X136676606Y-87001743D01*
X136676607Y-87001743D01*
X136676608Y-87001744D01*
X136834437Y-87047598D01*
X136871312Y-87050500D01*
X136871323Y-87050500D01*
X138752689Y-87050500D01*
X138752700Y-87050500D01*
X138789575Y-87047598D01*
X138947404Y-87001744D01*
X139088871Y-86918081D01*
X139205087Y-86801865D01*
X139288750Y-86660398D01*
X139334604Y-86502569D01*
X139337506Y-86465694D01*
X139337506Y-85334306D01*
X139334604Y-85297431D01*
X139288750Y-85139602D01*
X139205087Y-84998135D01*
X139088871Y-84881919D01*
X138947404Y-84798256D01*
X138947406Y-84798256D01*
X138789574Y-84752401D01*
X138752702Y-84749500D01*
X138752700Y-84749500D01*
X136871312Y-84749500D01*
X136871309Y-84749500D01*
X136834438Y-84752401D01*
X136834436Y-84752401D01*
X136676606Y-84798256D01*
X136535143Y-84881917D01*
X136535138Y-84881921D01*
X136418927Y-84998132D01*
X136418923Y-84998137D01*
X136335262Y-85139600D01*
X136289407Y-85297430D01*
X136289407Y-85297432D01*
X136286506Y-85334303D01*
X134949408Y-85334303D01*
X134968838Y-85261789D01*
X135000500Y-85021288D01*
X135000500Y-84778712D01*
X134968838Y-84538211D01*
X134906054Y-84303900D01*
X134813224Y-84079788D01*
X134691936Y-83869711D01*
X134691933Y-83869707D01*
X134691927Y-83869698D01*
X134544269Y-83677267D01*
X134544259Y-83677255D01*
X134372744Y-83505740D01*
X134372732Y-83505730D01*
X134180301Y-83358072D01*
X134180286Y-83358062D01*
X133970212Y-83236776D01*
X133970213Y-83236776D01*
X133746101Y-83143946D01*
X133746095Y-83143944D01*
X133511800Y-83081164D01*
X133511793Y-83081163D01*
X133511789Y-83081162D01*
X133271288Y-83049500D01*
X133028712Y-83049500D01*
X132788211Y-83081162D01*
X132788207Y-83081162D01*
X132788199Y-83081164D01*
X132553904Y-83143944D01*
X132553898Y-83143946D01*
X132329786Y-83236776D01*
X132119713Y-83358062D01*
X132119698Y-83358072D01*
X131927267Y-83505730D01*
X131927255Y-83505740D01*
X131755740Y-83677255D01*
X131755730Y-83677267D01*
X131608072Y-83869698D01*
X131608062Y-83869713D01*
X131486776Y-84079786D01*
X131393946Y-84303898D01*
X131393944Y-84303904D01*
X131331164Y-84538199D01*
X131331162Y-84538207D01*
X131331162Y-84538211D01*
X131299500Y-84778712D01*
X124100500Y-84778712D01*
X124100500Y-82794303D01*
X136286506Y-82794303D01*
X136286506Y-83925696D01*
X136289407Y-83962567D01*
X136289407Y-83962569D01*
X136335262Y-84120399D01*
X136418923Y-84261862D01*
X136418925Y-84261865D01*
X136535141Y-84378081D01*
X136676606Y-84461743D01*
X136676607Y-84461743D01*
X136676608Y-84461744D01*
X136834437Y-84507598D01*
X136871312Y-84510500D01*
X136871323Y-84510500D01*
X138752689Y-84510500D01*
X138752700Y-84510500D01*
X138789575Y-84507598D01*
X138947404Y-84461744D01*
X139088871Y-84378081D01*
X139205087Y-84261865D01*
X139288750Y-84120398D01*
X139334604Y-83962569D01*
X139337506Y-83925694D01*
X139337506Y-82794306D01*
X139334604Y-82757431D01*
X139288750Y-82599602D01*
X139205087Y-82458135D01*
X139088871Y-82341919D01*
X139018833Y-82300499D01*
X138947404Y-82258256D01*
X138947406Y-82258256D01*
X138789574Y-82212401D01*
X138752702Y-82209500D01*
X138752700Y-82209500D01*
X136871312Y-82209500D01*
X136871309Y-82209500D01*
X136834438Y-82212401D01*
X136834436Y-82212401D01*
X136676606Y-82258256D01*
X136535143Y-82341917D01*
X136535138Y-82341921D01*
X136418927Y-82458132D01*
X136418923Y-82458137D01*
X136335262Y-82599600D01*
X136289407Y-82757430D01*
X136289407Y-82757432D01*
X136286506Y-82794303D01*
X124100500Y-82794303D01*
X124100500Y-82349500D01*
X124114852Y-82314852D01*
X124149500Y-82300500D01*
X130115895Y-82300500D01*
X130115895Y-82300499D01*
X130243186Y-82266392D01*
X130357314Y-82200500D01*
X130450500Y-82107314D01*
X130516392Y-81993186D01*
X130550499Y-81865895D01*
X130550500Y-81865895D01*
X130550500Y-77714303D01*
X136286506Y-77714303D01*
X136286506Y-78845696D01*
X136289407Y-78882567D01*
X136289407Y-78882569D01*
X136335262Y-79040399D01*
X136344701Y-79056359D01*
X136418925Y-79181865D01*
X136535141Y-79298081D01*
X136676606Y-79381743D01*
X136676607Y-79381743D01*
X136676608Y-79381744D01*
X136834437Y-79427598D01*
X136871312Y-79430500D01*
X138587949Y-79430500D01*
X138622597Y-79444852D01*
X138763597Y-79585852D01*
X138777949Y-79620500D01*
X138763597Y-79655148D01*
X138728949Y-79669500D01*
X136871309Y-79669500D01*
X136834438Y-79672401D01*
X136834436Y-79672401D01*
X136676606Y-79718256D01*
X136535143Y-79801917D01*
X136535138Y-79801921D01*
X136418927Y-79918132D01*
X136418923Y-79918137D01*
X136335262Y-80059600D01*
X136289407Y-80217430D01*
X136289407Y-80217432D01*
X136286506Y-80254303D01*
X136286506Y-81385696D01*
X136289407Y-81422567D01*
X136289407Y-81422569D01*
X136335262Y-81580399D01*
X136350884Y-81606814D01*
X136418925Y-81721865D01*
X136535141Y-81838081D01*
X136676606Y-81921743D01*
X136676607Y-81921743D01*
X136676608Y-81921744D01*
X136834437Y-81967598D01*
X136871312Y-81970500D01*
X136871323Y-81970500D01*
X138752689Y-81970500D01*
X138752700Y-81970500D01*
X138789575Y-81967598D01*
X138947404Y-81921744D01*
X139088871Y-81838081D01*
X139205087Y-81721865D01*
X139288750Y-81580398D01*
X139334604Y-81422569D01*
X139337506Y-81385694D01*
X139337506Y-80278056D01*
X139351858Y-80243408D01*
X139386506Y-80229056D01*
X139421154Y-80243408D01*
X140385148Y-81207402D01*
X140399500Y-81242050D01*
X140399500Y-102600780D01*
X140385148Y-102635428D01*
X140357712Y-102648123D01*
X140357883Y-102649200D01*
X140262195Y-102664353D01*
X140149164Y-102721945D01*
X140149157Y-102721950D01*
X140059450Y-102811657D01*
X140059445Y-102811664D01*
X140001855Y-102924690D01*
X140001855Y-102924692D01*
X140001854Y-102924694D01*
X140001854Y-102924696D01*
X139992854Y-102981519D01*
X139987000Y-103018482D01*
X139987000Y-103981517D01*
X140001853Y-104075303D01*
X140059445Y-104188335D01*
X140059450Y-104188342D01*
X140149157Y-104278049D01*
X140149164Y-104278054D01*
X140262191Y-104335644D01*
X140262192Y-104335644D01*
X140262196Y-104335646D01*
X140355981Y-104350500D01*
X140400500Y-104350499D01*
X140435147Y-104364850D01*
X140449500Y-104399498D01*
X140449500Y-104677737D01*
X140435148Y-104712385D01*
X140408165Y-104726134D01*
X140324695Y-104739353D01*
X140221745Y-104791809D01*
X140184358Y-104794752D01*
X140155841Y-104770395D01*
X140150500Y-104748150D01*
X140150500Y-104630537D01*
X140150501Y-104630528D01*
X140150501Y-104525175D01*
X140150500Y-104525171D01*
X140112364Y-104433104D01*
X140112363Y-104433102D01*
X140039107Y-104359846D01*
X140039100Y-104359840D01*
X139502351Y-103823091D01*
X139487999Y-103788443D01*
X139487999Y-103018482D01*
X139473146Y-102924696D01*
X139415554Y-102811664D01*
X139415549Y-102811657D01*
X139325842Y-102721950D01*
X139325835Y-102721945D01*
X139212808Y-102664355D01*
X139212805Y-102664354D01*
X139212804Y-102664354D01*
X139119019Y-102649500D01*
X139119017Y-102649500D01*
X138530982Y-102649500D01*
X138437196Y-102664353D01*
X138324164Y-102721945D01*
X138324157Y-102721950D01*
X138234450Y-102811657D01*
X138234445Y-102811664D01*
X138176855Y-102924690D01*
X138176855Y-102924692D01*
X138176854Y-102924694D01*
X138176854Y-102924696D01*
X138167854Y-102981519D01*
X138162000Y-103018482D01*
X138162000Y-103981517D01*
X138176853Y-104075303D01*
X138234445Y-104188335D01*
X138234450Y-104188342D01*
X138324157Y-104278049D01*
X138324164Y-104278054D01*
X138437191Y-104335644D01*
X138437192Y-104335644D01*
X138437196Y-104335646D01*
X138530981Y-104350500D01*
X139119018Y-104350499D01*
X139212804Y-104335646D01*
X139243076Y-104320220D01*
X139280462Y-104317277D01*
X139299970Y-104329231D01*
X139635148Y-104664408D01*
X139649500Y-104699056D01*
X139649500Y-108494812D01*
X139635148Y-108529460D01*
X139600500Y-108543812D01*
X139565852Y-108529460D01*
X139533342Y-108496950D01*
X139533335Y-108496945D01*
X139420308Y-108439355D01*
X139420305Y-108439354D01*
X139420304Y-108439354D01*
X139326519Y-108424500D01*
X139326517Y-108424500D01*
X138563482Y-108424500D01*
X138469696Y-108439353D01*
X138356664Y-108496945D01*
X138356657Y-108496950D01*
X138266950Y-108586657D01*
X138266945Y-108586664D01*
X138209355Y-108699690D01*
X138209355Y-108699692D01*
X138209354Y-108699694D01*
X138209354Y-108699696D01*
X138194500Y-108793481D01*
X138194500Y-108793482D01*
X138194500Y-110006517D01*
X138209353Y-110100303D01*
X138266945Y-110213335D01*
X138266950Y-110213342D01*
X138356657Y-110303049D01*
X138356664Y-110303054D01*
X138469691Y-110360644D01*
X138469692Y-110360644D01*
X138469696Y-110360646D01*
X138563481Y-110375500D01*
X138667677Y-110375499D01*
X138702323Y-110389850D01*
X138716675Y-110424499D01*
X138702324Y-110459147D01*
X138686427Y-110469769D01*
X138589506Y-110509915D01*
X138466584Y-110592048D01*
X138362048Y-110696584D01*
X138279914Y-110819508D01*
X138223342Y-110956084D01*
X138223340Y-110956093D01*
X138194500Y-111101078D01*
X138194500Y-111698921D01*
X138223340Y-111843906D01*
X138223342Y-111843915D01*
X138279914Y-111980491D01*
X138279916Y-111980495D01*
X138362049Y-112103416D01*
X138466584Y-112207951D01*
X138589505Y-112290084D01*
X138657796Y-112318371D01*
X138726084Y-112346657D01*
X138726085Y-112346657D01*
X138726087Y-112346658D01*
X138871082Y-112375500D01*
X139018918Y-112375500D01*
X139163913Y-112346658D01*
X139300495Y-112290084D01*
X139423416Y-112207951D01*
X139527951Y-112103416D01*
X139610084Y-111980495D01*
X139666658Y-111843913D01*
X139695500Y-111698918D01*
X139695500Y-111101082D01*
X139666658Y-110956087D01*
X139610084Y-110819505D01*
X139527951Y-110696584D01*
X139423416Y-110592049D01*
X139401131Y-110577159D01*
X139375158Y-110559804D01*
X139300495Y-110509916D01*
X139300492Y-110509914D01*
X139300491Y-110509914D01*
X139203572Y-110469769D01*
X139177053Y-110443251D01*
X139177053Y-110405748D01*
X139203571Y-110379229D01*
X139222322Y-110375499D01*
X139326518Y-110375499D01*
X139420304Y-110360646D01*
X139481387Y-110329522D01*
X139533335Y-110303054D01*
X139533337Y-110303052D01*
X139533342Y-110303050D01*
X139565852Y-110270540D01*
X139600500Y-110256188D01*
X139635148Y-110270540D01*
X139649500Y-110305188D01*
X139649500Y-110404828D01*
X139687636Y-110496897D01*
X139687637Y-110496898D01*
X139687637Y-110496899D01*
X140192125Y-111001386D01*
X140206477Y-111036034D01*
X140205536Y-111045592D01*
X140194500Y-111101083D01*
X140194500Y-111698921D01*
X140223340Y-111843906D01*
X140223342Y-111843915D01*
X140279914Y-111980491D01*
X140279916Y-111980495D01*
X140362049Y-112103416D01*
X140466584Y-112207951D01*
X140589505Y-112290084D01*
X140657796Y-112318371D01*
X140726084Y-112346657D01*
X140726085Y-112346657D01*
X140726087Y-112346658D01*
X140871082Y-112375500D01*
X141018918Y-112375500D01*
X141163913Y-112346658D01*
X141300495Y-112290084D01*
X141423416Y-112207951D01*
X141527951Y-112103416D01*
X141610084Y-111980495D01*
X141666658Y-111843913D01*
X141695500Y-111698918D01*
X141695500Y-111101082D01*
X141666658Y-110956087D01*
X141610084Y-110819505D01*
X141527951Y-110696584D01*
X141423416Y-110592049D01*
X141401131Y-110577159D01*
X141375158Y-110559804D01*
X141300495Y-110509916D01*
X141300492Y-110509914D01*
X141300491Y-110509914D01*
X141163915Y-110453342D01*
X141163906Y-110453340D01*
X141137352Y-110448058D01*
X141106170Y-110427223D01*
X141098854Y-110390440D01*
X141119689Y-110359258D01*
X141137352Y-110351942D01*
X141152966Y-110348835D01*
X141163913Y-110346658D01*
X141300495Y-110290084D01*
X141423416Y-110207951D01*
X141527951Y-110103416D01*
X141610084Y-109980495D01*
X141666658Y-109843913D01*
X141695500Y-109698918D01*
X141695500Y-109101082D01*
X141684462Y-109045593D01*
X141691777Y-109008813D01*
X141697863Y-109001397D01*
X141710855Y-108988405D01*
X141745502Y-108974056D01*
X141780150Y-108988409D01*
X141794500Y-109023056D01*
X141794500Y-110549829D01*
X141805820Y-110577158D01*
X141832636Y-110641897D01*
X141832637Y-110641898D01*
X141832637Y-110641899D01*
X142192125Y-111001386D01*
X142206477Y-111036034D01*
X142205536Y-111045592D01*
X142194500Y-111101083D01*
X142194500Y-111698921D01*
X142223340Y-111843906D01*
X142223342Y-111843915D01*
X142279914Y-111980491D01*
X142279916Y-111980495D01*
X142362049Y-112103416D01*
X142466584Y-112207951D01*
X142589505Y-112290084D01*
X142657796Y-112318371D01*
X142726084Y-112346657D01*
X142726085Y-112346657D01*
X142726087Y-112346658D01*
X142871082Y-112375500D01*
X143018918Y-112375500D01*
X143163913Y-112346658D01*
X143300495Y-112290084D01*
X143423416Y-112207951D01*
X143527951Y-112103416D01*
X143610084Y-111980495D01*
X143666658Y-111843913D01*
X143695500Y-111698918D01*
X143695500Y-111101082D01*
X143666658Y-110956087D01*
X143610084Y-110819505D01*
X143527951Y-110696584D01*
X143423416Y-110592049D01*
X143401131Y-110577159D01*
X143375158Y-110559804D01*
X143300495Y-110509916D01*
X143300492Y-110509914D01*
X143300491Y-110509914D01*
X143163915Y-110453342D01*
X143163906Y-110453340D01*
X143137352Y-110448058D01*
X143106170Y-110427223D01*
X143098854Y-110390440D01*
X143119689Y-110359258D01*
X143137352Y-110351942D01*
X143152966Y-110348835D01*
X143163913Y-110346658D01*
X143300495Y-110290084D01*
X143423416Y-110207951D01*
X143527951Y-110103416D01*
X143610084Y-109980495D01*
X143666658Y-109843913D01*
X143695500Y-109698918D01*
X143695500Y-109101082D01*
X143695499Y-109101078D01*
X144194500Y-109101078D01*
X144194500Y-109698921D01*
X144223340Y-109843906D01*
X144223342Y-109843915D01*
X144279914Y-109980491D01*
X144279916Y-109980495D01*
X144318481Y-110038211D01*
X144359969Y-110100304D01*
X144362049Y-110103416D01*
X144466584Y-110207951D01*
X144589505Y-110290084D01*
X144657796Y-110318371D01*
X144726084Y-110346657D01*
X144726093Y-110346660D01*
X144752647Y-110351942D01*
X144783829Y-110372777D01*
X144791145Y-110409560D01*
X144770310Y-110440742D01*
X144752647Y-110448058D01*
X144726093Y-110453339D01*
X144726084Y-110453342D01*
X144589508Y-110509914D01*
X144466584Y-110592048D01*
X144362048Y-110696584D01*
X144279914Y-110819508D01*
X144223342Y-110956084D01*
X144223340Y-110956093D01*
X144194500Y-111101078D01*
X144194500Y-111698921D01*
X144223340Y-111843906D01*
X144223342Y-111843915D01*
X144279914Y-111980491D01*
X144279916Y-111980495D01*
X144362049Y-112103416D01*
X144466584Y-112207951D01*
X144589505Y-112290084D01*
X144657796Y-112318371D01*
X144726084Y-112346657D01*
X144726085Y-112346657D01*
X144726087Y-112346658D01*
X144871082Y-112375500D01*
X145018918Y-112375500D01*
X145163913Y-112346658D01*
X145300495Y-112290084D01*
X145423416Y-112207951D01*
X145527951Y-112103416D01*
X145610084Y-111980495D01*
X145666658Y-111843913D01*
X145695500Y-111698918D01*
X145695500Y-111101082D01*
X145666658Y-110956087D01*
X145610084Y-110819505D01*
X145527951Y-110696584D01*
X145423416Y-110592049D01*
X145401131Y-110577159D01*
X145375158Y-110559804D01*
X145300495Y-110509916D01*
X145300492Y-110509914D01*
X145300491Y-110509914D01*
X145163915Y-110453342D01*
X145163906Y-110453340D01*
X145137352Y-110448058D01*
X145106170Y-110427223D01*
X145098854Y-110390440D01*
X145119689Y-110359258D01*
X145137352Y-110351942D01*
X145152966Y-110348835D01*
X145163913Y-110346658D01*
X145300495Y-110290084D01*
X145423416Y-110207951D01*
X145527951Y-110103416D01*
X145610084Y-109980495D01*
X145666658Y-109843913D01*
X145695500Y-109698918D01*
X145695500Y-109101082D01*
X145695499Y-109101078D01*
X146194500Y-109101078D01*
X146194500Y-109698921D01*
X146223340Y-109843906D01*
X146223342Y-109843915D01*
X146279914Y-109980491D01*
X146279916Y-109980495D01*
X146318481Y-110038211D01*
X146359969Y-110100304D01*
X146362049Y-110103416D01*
X146466584Y-110207951D01*
X146589505Y-110290084D01*
X146657796Y-110318371D01*
X146726084Y-110346657D01*
X146726093Y-110346660D01*
X146752647Y-110351942D01*
X146783829Y-110372777D01*
X146791145Y-110409560D01*
X146770310Y-110440742D01*
X146752647Y-110448058D01*
X146726093Y-110453339D01*
X146726084Y-110453342D01*
X146589508Y-110509914D01*
X146466584Y-110592048D01*
X146362048Y-110696584D01*
X146279914Y-110819508D01*
X146223342Y-110956084D01*
X146223340Y-110956093D01*
X146194500Y-111101078D01*
X146194500Y-111698921D01*
X146223340Y-111843906D01*
X146223342Y-111843915D01*
X146279914Y-111980491D01*
X146279916Y-111980495D01*
X146362049Y-112103416D01*
X146466584Y-112207951D01*
X146589505Y-112290084D01*
X146657796Y-112318371D01*
X146726084Y-112346657D01*
X146726085Y-112346657D01*
X146726087Y-112346658D01*
X146871082Y-112375500D01*
X147018918Y-112375500D01*
X147163913Y-112346658D01*
X147300495Y-112290084D01*
X147423416Y-112207951D01*
X147527951Y-112103416D01*
X147610084Y-111980495D01*
X147666658Y-111843913D01*
X147695500Y-111698918D01*
X147695500Y-111101082D01*
X147666658Y-110956087D01*
X147610084Y-110819505D01*
X147527951Y-110696584D01*
X147423416Y-110592049D01*
X147401131Y-110577159D01*
X147375158Y-110559804D01*
X147300495Y-110509916D01*
X147300492Y-110509914D01*
X147300491Y-110509914D01*
X147163915Y-110453342D01*
X147163906Y-110453340D01*
X147137352Y-110448058D01*
X147106170Y-110427223D01*
X147098854Y-110390440D01*
X147119689Y-110359258D01*
X147137352Y-110351942D01*
X147152966Y-110348835D01*
X147163913Y-110346658D01*
X147300495Y-110290084D01*
X147423416Y-110207951D01*
X147527951Y-110103416D01*
X147610084Y-109980495D01*
X147666658Y-109843913D01*
X147695500Y-109698918D01*
X147695500Y-109101082D01*
X147692983Y-109088428D01*
X147845000Y-109088428D01*
X147845000Y-109150000D01*
X148598590Y-109150000D01*
X148548963Y-109235956D01*
X148520000Y-109344048D01*
X148520000Y-109455952D01*
X148548963Y-109564044D01*
X148598590Y-109650000D01*
X147845000Y-109650000D01*
X147845000Y-109711571D01*
X147872085Y-109882581D01*
X147872086Y-109882584D01*
X147925589Y-110047251D01*
X148004197Y-110201527D01*
X148004199Y-110201530D01*
X148105968Y-110341603D01*
X148105972Y-110341608D01*
X148228392Y-110464028D01*
X148228396Y-110464031D01*
X148368469Y-110565800D01*
X148368471Y-110565802D01*
X148390761Y-110577158D01*
X148415118Y-110605674D01*
X148412177Y-110643062D01*
X148403166Y-110655466D01*
X148362049Y-110696583D01*
X148279914Y-110819508D01*
X148223342Y-110956084D01*
X148223340Y-110956093D01*
X148194500Y-111101078D01*
X148194500Y-111698921D01*
X148223340Y-111843906D01*
X148223342Y-111843915D01*
X148279914Y-111980491D01*
X148279916Y-111980495D01*
X148362049Y-112103416D01*
X148466584Y-112207951D01*
X148589505Y-112290084D01*
X148657796Y-112318371D01*
X148726084Y-112346657D01*
X148726085Y-112346657D01*
X148726087Y-112346658D01*
X148871082Y-112375500D01*
X149018918Y-112375500D01*
X149163913Y-112346658D01*
X149300495Y-112290084D01*
X149423416Y-112207951D01*
X149527951Y-112103416D01*
X149610084Y-111980495D01*
X149666658Y-111843913D01*
X149695500Y-111698918D01*
X149695500Y-111101082D01*
X149666658Y-110956087D01*
X149610084Y-110819505D01*
X149527951Y-110696584D01*
X149486834Y-110655467D01*
X149472482Y-110620819D01*
X149486834Y-110586171D01*
X149499237Y-110577159D01*
X149521531Y-110565799D01*
X149661603Y-110464031D01*
X149661608Y-110464028D01*
X149784028Y-110341608D01*
X149784031Y-110341603D01*
X149829724Y-110278712D01*
X156799500Y-110278712D01*
X156799500Y-110521288D01*
X156831162Y-110761789D01*
X156831163Y-110761793D01*
X156831164Y-110761800D01*
X156893944Y-110996095D01*
X156893946Y-110996101D01*
X156986776Y-111220213D01*
X157108062Y-111430286D01*
X157108072Y-111430301D01*
X157255730Y-111622732D01*
X157255740Y-111622744D01*
X157427255Y-111794259D01*
X157427267Y-111794269D01*
X157619698Y-111941927D01*
X157619707Y-111941933D01*
X157619711Y-111941936D01*
X157829788Y-112063224D01*
X158053900Y-112156054D01*
X158053904Y-112156055D01*
X158288199Y-112218835D01*
X158288200Y-112218835D01*
X158288211Y-112218838D01*
X158528712Y-112250500D01*
X158528716Y-112250500D01*
X158771284Y-112250500D01*
X158771288Y-112250500D01*
X159011789Y-112218838D01*
X159246100Y-112156054D01*
X159470212Y-112063224D01*
X159680289Y-111941936D01*
X159872738Y-111794265D01*
X160044265Y-111622738D01*
X160191936Y-111430289D01*
X160313224Y-111220212D01*
X160406054Y-110996100D01*
X160468838Y-110761789D01*
X160500500Y-110521288D01*
X160500500Y-110278712D01*
X160468838Y-110038211D01*
X160459622Y-110003818D01*
X160406055Y-109803904D01*
X160406053Y-109803898D01*
X160379621Y-109740084D01*
X160313224Y-109579788D01*
X160191936Y-109369711D01*
X160191933Y-109369707D01*
X160191927Y-109369698D01*
X160044269Y-109177267D01*
X160044259Y-109177255D01*
X159872744Y-109005740D01*
X159872732Y-109005730D01*
X159680301Y-108858072D01*
X159680286Y-108858062D01*
X159470212Y-108736776D01*
X159470213Y-108736776D01*
X159246101Y-108643946D01*
X159246095Y-108643944D01*
X159011800Y-108581164D01*
X159011793Y-108581163D01*
X159011789Y-108581162D01*
X158771288Y-108549500D01*
X158528712Y-108549500D01*
X158288211Y-108581162D01*
X158288207Y-108581162D01*
X158288199Y-108581164D01*
X158053904Y-108643944D01*
X158053898Y-108643946D01*
X157829786Y-108736776D01*
X157619713Y-108858062D01*
X157619698Y-108858072D01*
X157427267Y-109005730D01*
X157427255Y-109005740D01*
X157255740Y-109177255D01*
X157255730Y-109177267D01*
X157108072Y-109369698D01*
X157108062Y-109369713D01*
X156986776Y-109579786D01*
X156893946Y-109803898D01*
X156893944Y-109803904D01*
X156831164Y-110038199D01*
X156831162Y-110038207D01*
X156831162Y-110038211D01*
X156799500Y-110278712D01*
X149829724Y-110278712D01*
X149885800Y-110201530D01*
X149885802Y-110201527D01*
X149964410Y-110047251D01*
X150017913Y-109882584D01*
X150017914Y-109882581D01*
X150045000Y-109711571D01*
X150045000Y-109650000D01*
X149291410Y-109650000D01*
X149341037Y-109564044D01*
X149370000Y-109455952D01*
X149370000Y-109344048D01*
X149341037Y-109235956D01*
X149291410Y-109150000D01*
X150045000Y-109150000D01*
X150045000Y-109088428D01*
X150017914Y-108917418D01*
X150017913Y-108917415D01*
X149964410Y-108752748D01*
X149885802Y-108598472D01*
X149885800Y-108598469D01*
X149784031Y-108458396D01*
X149784028Y-108458392D01*
X149661608Y-108335972D01*
X149661603Y-108335968D01*
X149521530Y-108234199D01*
X149521527Y-108234197D01*
X149367251Y-108155589D01*
X149202580Y-108102085D01*
X149202577Y-108102084D01*
X149195000Y-108100883D01*
X149195000Y-109053590D01*
X149109044Y-109003963D01*
X149000952Y-108975000D01*
X148889048Y-108975000D01*
X148780956Y-109003963D01*
X148695000Y-109053590D01*
X148695000Y-108100884D01*
X148694999Y-108100883D01*
X148687422Y-108102084D01*
X148687419Y-108102085D01*
X148522748Y-108155589D01*
X148368472Y-108234197D01*
X148368469Y-108234199D01*
X148228396Y-108335968D01*
X148105968Y-108458396D01*
X148004199Y-108598469D01*
X148004197Y-108598472D01*
X147925589Y-108752748D01*
X147872086Y-108917415D01*
X147872085Y-108917418D01*
X147845000Y-109088428D01*
X147692983Y-109088428D01*
X147666658Y-108956087D01*
X147610084Y-108819505D01*
X147527951Y-108696584D01*
X147423416Y-108592049D01*
X147415346Y-108586657D01*
X147366036Y-108553709D01*
X147300495Y-108509916D01*
X147300492Y-108509914D01*
X147300491Y-108509914D01*
X147163915Y-108453342D01*
X147163906Y-108453340D01*
X147018921Y-108424500D01*
X147018918Y-108424500D01*
X146871082Y-108424500D01*
X146871078Y-108424500D01*
X146726093Y-108453340D01*
X146726084Y-108453342D01*
X146589508Y-108509914D01*
X146466584Y-108592048D01*
X146362048Y-108696584D01*
X146279914Y-108819508D01*
X146223342Y-108956084D01*
X146223340Y-108956093D01*
X146194500Y-109101078D01*
X145695499Y-109101078D01*
X145666658Y-108956087D01*
X145610084Y-108819505D01*
X145527951Y-108696584D01*
X145423416Y-108592049D01*
X145415346Y-108586657D01*
X145366036Y-108553709D01*
X145300495Y-108509916D01*
X145300492Y-108509914D01*
X145300491Y-108509914D01*
X145163915Y-108453342D01*
X145163906Y-108453340D01*
X145018921Y-108424500D01*
X145018918Y-108424500D01*
X144871082Y-108424500D01*
X144871078Y-108424500D01*
X144726093Y-108453340D01*
X144726084Y-108453342D01*
X144589508Y-108509914D01*
X144466584Y-108592048D01*
X144362048Y-108696584D01*
X144279914Y-108819508D01*
X144223342Y-108956084D01*
X144223340Y-108956093D01*
X144194500Y-109101078D01*
X143695499Y-109101078D01*
X143666658Y-108956087D01*
X143610084Y-108819505D01*
X143527951Y-108696584D01*
X143423416Y-108592049D01*
X143415346Y-108586657D01*
X143366036Y-108553709D01*
X143300495Y-108509916D01*
X143300492Y-108509914D01*
X143300491Y-108509914D01*
X143163915Y-108453342D01*
X143163906Y-108453340D01*
X143018921Y-108424500D01*
X143018918Y-108424500D01*
X142895263Y-108424500D01*
X142860615Y-108410148D01*
X142846263Y-108375500D01*
X142860615Y-108340852D01*
X142945877Y-108255590D01*
X143035004Y-108166463D01*
X143035007Y-108166461D01*
X143041896Y-108159572D01*
X143041897Y-108159572D01*
X143112364Y-108089105D01*
X143128160Y-108050968D01*
X143150501Y-107997035D01*
X143150501Y-107897380D01*
X143150501Y-107893437D01*
X143150500Y-107893423D01*
X143150500Y-98620176D01*
X159792000Y-98620176D01*
X159792000Y-99389823D01*
X159800732Y-99433721D01*
X159833995Y-99483504D01*
X159883778Y-99516767D01*
X159927680Y-99525500D01*
X162450943Y-99525500D01*
X162485591Y-99539852D01*
X162616591Y-99670852D01*
X162630943Y-99705500D01*
X162616591Y-99740148D01*
X162581943Y-99754500D01*
X159927676Y-99754500D01*
X159883778Y-99763232D01*
X159833995Y-99796495D01*
X159800732Y-99846278D01*
X159792000Y-99890176D01*
X159792000Y-100659823D01*
X159800732Y-100703721D01*
X159833995Y-100753504D01*
X159883778Y-100786767D01*
X159927680Y-100795500D01*
X162733000Y-100795500D01*
X162767648Y-100809852D01*
X162782000Y-100844500D01*
X162782000Y-101600500D01*
X162767648Y-101635148D01*
X162733000Y-101649500D01*
X162180982Y-101649500D01*
X162087196Y-101664353D01*
X161974164Y-101721945D01*
X161974157Y-101721950D01*
X161884450Y-101811657D01*
X161884445Y-101811664D01*
X161826855Y-101924690D01*
X161826855Y-101924692D01*
X161812000Y-102018482D01*
X161812000Y-102981517D01*
X161826853Y-103075303D01*
X161884445Y-103188335D01*
X161884450Y-103188342D01*
X161974157Y-103278049D01*
X161974164Y-103278054D01*
X162087191Y-103335644D01*
X162087192Y-103335644D01*
X162087196Y-103335646D01*
X162180981Y-103350500D01*
X162769018Y-103350499D01*
X162862804Y-103335646D01*
X162923887Y-103304522D01*
X162975835Y-103278054D01*
X162975837Y-103278052D01*
X162975842Y-103278050D01*
X163065550Y-103188342D01*
X163109191Y-103102693D01*
X163123144Y-103075309D01*
X163123144Y-103075307D01*
X163123146Y-103075304D01*
X163135076Y-102999980D01*
X163287501Y-102999980D01*
X163297993Y-103102693D01*
X163353142Y-103269122D01*
X163445182Y-103418343D01*
X163569156Y-103542317D01*
X163718377Y-103634357D01*
X163884806Y-103689506D01*
X163987518Y-103699999D01*
X164049999Y-103699999D01*
X164550000Y-103699999D01*
X164612480Y-103699999D01*
X164715193Y-103689506D01*
X164881622Y-103634357D01*
X165030843Y-103542317D01*
X165154817Y-103418343D01*
X165246857Y-103269122D01*
X165302006Y-103102693D01*
X165312500Y-102999981D01*
X165312500Y-102750000D01*
X164550000Y-102750000D01*
X164550000Y-103699999D01*
X164049999Y-103699999D01*
X164050000Y-103699998D01*
X164050000Y-102750000D01*
X163287501Y-102750000D01*
X163287501Y-102999980D01*
X163135076Y-102999980D01*
X163138000Y-102981519D01*
X163137999Y-102211556D01*
X163152351Y-102176909D01*
X163203853Y-102125407D01*
X163238500Y-102111057D01*
X163273149Y-102125409D01*
X163287500Y-102160057D01*
X163287500Y-102250000D01*
X164050000Y-102250000D01*
X164550000Y-102250000D01*
X165312499Y-102250000D01*
X165312499Y-102000019D01*
X165302006Y-101897306D01*
X165246857Y-101730877D01*
X165154817Y-101581656D01*
X165030843Y-101457682D01*
X164881622Y-101365642D01*
X164715193Y-101310493D01*
X164612481Y-101300000D01*
X164550000Y-101300000D01*
X164550000Y-102250000D01*
X164050000Y-102250000D01*
X164050000Y-101300000D01*
X163987519Y-101300000D01*
X163884806Y-101310493D01*
X163718377Y-101365642D01*
X163569156Y-101457682D01*
X163445182Y-101581656D01*
X163373705Y-101697540D01*
X163343300Y-101719495D01*
X163306276Y-101713521D01*
X163284321Y-101683116D01*
X163283000Y-101671816D01*
X163283000Y-100692834D01*
X163512500Y-100692834D01*
X163518901Y-100752372D01*
X163518901Y-100752373D01*
X163569148Y-100887091D01*
X163655311Y-101002188D01*
X163770408Y-101088351D01*
X163905126Y-101138598D01*
X163964666Y-101145000D01*
X165157500Y-101145000D01*
X165657500Y-101145000D01*
X166850334Y-101145000D01*
X166909872Y-101138598D01*
X166909873Y-101138598D01*
X167044591Y-101088351D01*
X167159688Y-101002188D01*
X167245851Y-100887091D01*
X167296098Y-100752373D01*
X167296098Y-100752372D01*
X167302500Y-100692834D01*
X167302500Y-100525000D01*
X165657500Y-100525000D01*
X165657500Y-101145000D01*
X165157500Y-101145000D01*
X165157500Y-100525000D01*
X163512500Y-100525000D01*
X163512500Y-100692834D01*
X163283000Y-100692834D01*
X163283000Y-99857165D01*
X163512500Y-99857165D01*
X163512500Y-100025000D01*
X167302500Y-100025000D01*
X167302500Y-99857165D01*
X167296098Y-99797627D01*
X167296098Y-99797626D01*
X167245851Y-99662908D01*
X167159688Y-99547811D01*
X167044590Y-99461647D01*
X167044586Y-99461645D01*
X166984758Y-99439330D01*
X166957310Y-99413775D01*
X166953725Y-99392228D01*
X166953000Y-99392228D01*
X166953000Y-98620180D01*
X166952999Y-98620176D01*
X166944267Y-98576278D01*
X166911004Y-98526495D01*
X166861221Y-98493232D01*
X166817323Y-98484500D01*
X166817320Y-98484500D01*
X163997680Y-98484500D01*
X163997676Y-98484500D01*
X163953778Y-98493232D01*
X163903995Y-98526495D01*
X163870732Y-98576278D01*
X163862000Y-98620176D01*
X163862000Y-99392227D01*
X163860792Y-99392227D01*
X163850982Y-99424521D01*
X163830241Y-99439330D01*
X163770412Y-99461645D01*
X163655311Y-99547811D01*
X163569148Y-99662908D01*
X163518901Y-99797626D01*
X163518901Y-99797627D01*
X163512500Y-99857165D01*
X163283000Y-99857165D01*
X163283000Y-99682674D01*
X163282999Y-99682670D01*
X163278104Y-99670852D01*
X163244864Y-99590603D01*
X163244862Y-99590601D01*
X163244862Y-99590600D01*
X163174397Y-99520136D01*
X162897352Y-99243091D01*
X162883000Y-99208443D01*
X162883000Y-98620180D01*
X162882999Y-98620176D01*
X162874267Y-98576278D01*
X162841004Y-98526495D01*
X162791221Y-98493232D01*
X162747323Y-98484500D01*
X162747320Y-98484500D01*
X159927680Y-98484500D01*
X159927676Y-98484500D01*
X159883778Y-98493232D01*
X159833995Y-98526495D01*
X159800732Y-98576278D01*
X159792000Y-98620176D01*
X143150500Y-98620176D01*
X143150500Y-97350176D01*
X159792000Y-97350176D01*
X159792000Y-98119823D01*
X159800732Y-98163721D01*
X159833995Y-98213504D01*
X159883778Y-98246767D01*
X159927680Y-98255500D01*
X162747320Y-98255500D01*
X162791222Y-98246767D01*
X162841004Y-98213504D01*
X162874267Y-98163722D01*
X162883000Y-98119820D01*
X162883000Y-97350180D01*
X162882999Y-97350176D01*
X163862000Y-97350176D01*
X163862000Y-98119823D01*
X163870732Y-98163721D01*
X163903995Y-98213504D01*
X163953778Y-98246767D01*
X163997680Y-98255500D01*
X166817320Y-98255500D01*
X166861222Y-98246767D01*
X166911004Y-98213504D01*
X166944267Y-98163722D01*
X166953000Y-98119820D01*
X166953000Y-97350180D01*
X166944267Y-97306278D01*
X166911004Y-97256495D01*
X166861221Y-97223232D01*
X166817323Y-97214500D01*
X166817320Y-97214500D01*
X163997680Y-97214500D01*
X163997676Y-97214500D01*
X163953778Y-97223232D01*
X163903995Y-97256495D01*
X163870732Y-97306278D01*
X163862000Y-97350176D01*
X162882999Y-97350176D01*
X162874267Y-97306278D01*
X162841004Y-97256495D01*
X162791221Y-97223232D01*
X162747323Y-97214500D01*
X162747320Y-97214500D01*
X159927680Y-97214500D01*
X159927676Y-97214500D01*
X159883778Y-97223232D01*
X159833995Y-97256495D01*
X159800732Y-97306278D01*
X159792000Y-97350176D01*
X143150500Y-97350176D01*
X143150500Y-96080176D01*
X159792000Y-96080176D01*
X159792000Y-96849823D01*
X159800732Y-96893721D01*
X159833995Y-96943504D01*
X159883778Y-96976767D01*
X159927680Y-96985500D01*
X162747320Y-96985500D01*
X162791222Y-96976767D01*
X162841004Y-96943504D01*
X162874267Y-96893722D01*
X162883000Y-96849820D01*
X162883000Y-96080180D01*
X162882999Y-96080176D01*
X163862000Y-96080176D01*
X163862000Y-96849823D01*
X163870732Y-96893721D01*
X163903995Y-96943504D01*
X163953778Y-96976767D01*
X163997680Y-96985500D01*
X166817320Y-96985500D01*
X166861222Y-96976767D01*
X166911004Y-96943504D01*
X166944267Y-96893722D01*
X166953000Y-96849820D01*
X166953000Y-96080180D01*
X166944267Y-96036278D01*
X166911004Y-95986495D01*
X166861221Y-95953232D01*
X166817323Y-95944500D01*
X166817320Y-95944500D01*
X163997680Y-95944500D01*
X163997676Y-95944500D01*
X163953778Y-95953232D01*
X163903995Y-95986495D01*
X163870732Y-96036278D01*
X163862000Y-96080176D01*
X162882999Y-96080176D01*
X162874267Y-96036278D01*
X162841004Y-95986495D01*
X162791221Y-95953232D01*
X162747323Y-95944500D01*
X162747320Y-95944500D01*
X159927680Y-95944500D01*
X159927676Y-95944500D01*
X159883778Y-95953232D01*
X159833995Y-95986495D01*
X159800732Y-96036278D01*
X159792000Y-96080176D01*
X143150500Y-96080176D01*
X143150500Y-93601280D01*
X143164852Y-93566632D01*
X143173004Y-93560061D01*
X143198049Y-93543967D01*
X143209101Y-93531212D01*
X144023506Y-93531212D01*
X144023506Y-95548188D01*
X144039287Y-95647826D01*
X144039287Y-95647827D01*
X144039288Y-95647829D01*
X144100473Y-95767913D01*
X144100478Y-95767920D01*
X144195785Y-95863227D01*
X144195792Y-95863232D01*
X144315876Y-95924417D01*
X144315880Y-95924419D01*
X144415518Y-95940200D01*
X144415520Y-95940200D01*
X145032492Y-95940200D01*
X145032494Y-95940200D01*
X145132132Y-95924419D01*
X145194705Y-95892536D01*
X145252219Y-95863232D01*
X145252221Y-95863230D01*
X145252226Y-95863228D01*
X145347534Y-95767920D01*
X145408725Y-95647826D01*
X145424506Y-95548188D01*
X145424506Y-93531212D01*
X146563506Y-93531212D01*
X146563506Y-95548188D01*
X146579287Y-95647826D01*
X146579287Y-95647827D01*
X146579288Y-95647829D01*
X146640473Y-95767913D01*
X146640478Y-95767920D01*
X146735785Y-95863227D01*
X146735792Y-95863232D01*
X146855876Y-95924417D01*
X146855880Y-95924419D01*
X146955518Y-95940200D01*
X146955520Y-95940200D01*
X147572492Y-95940200D01*
X147572494Y-95940200D01*
X147672132Y-95924419D01*
X147734705Y-95892536D01*
X147792219Y-95863232D01*
X147792221Y-95863230D01*
X147792226Y-95863228D01*
X147887534Y-95767920D01*
X147948725Y-95647826D01*
X147964506Y-95548188D01*
X147964506Y-94810176D01*
X159792000Y-94810176D01*
X159792000Y-95579823D01*
X159800732Y-95623721D01*
X159833995Y-95673504D01*
X159883778Y-95706767D01*
X159927680Y-95715500D01*
X162747320Y-95715500D01*
X162791222Y-95706767D01*
X162841004Y-95673504D01*
X162874267Y-95623722D01*
X162883000Y-95579820D01*
X162883000Y-94810180D01*
X162882999Y-94810176D01*
X163862000Y-94810176D01*
X163862000Y-95579823D01*
X163870732Y-95623721D01*
X163903995Y-95673504D01*
X163953778Y-95706767D01*
X163997680Y-95715500D01*
X166817320Y-95715500D01*
X166861222Y-95706767D01*
X166911004Y-95673504D01*
X166944267Y-95623722D01*
X166953000Y-95579820D01*
X166953000Y-94810180D01*
X166944267Y-94766278D01*
X166911004Y-94716495D01*
X166861221Y-94683232D01*
X166817323Y-94674500D01*
X166817320Y-94674500D01*
X163997680Y-94674500D01*
X163997676Y-94674500D01*
X163953778Y-94683232D01*
X163903995Y-94716495D01*
X163870732Y-94766278D01*
X163862000Y-94810176D01*
X162882999Y-94810176D01*
X162874267Y-94766278D01*
X162841004Y-94716495D01*
X162791221Y-94683232D01*
X162747323Y-94674500D01*
X162747320Y-94674500D01*
X161637000Y-94674500D01*
X161602352Y-94660148D01*
X161588000Y-94625500D01*
X161588000Y-94036556D01*
X161602352Y-94001908D01*
X161660917Y-93943343D01*
X161750029Y-93854230D01*
X161784676Y-93839879D01*
X161806920Y-93845219D01*
X161837196Y-93860646D01*
X161930981Y-93875500D01*
X162519018Y-93875499D01*
X162612804Y-93860646D01*
X162674799Y-93829058D01*
X162725835Y-93803054D01*
X162725837Y-93803052D01*
X162725842Y-93803050D01*
X162815550Y-93713342D01*
X162872649Y-93601280D01*
X162873144Y-93600309D01*
X162873144Y-93600307D01*
X162873146Y-93600304D01*
X162885076Y-93524980D01*
X163037501Y-93524980D01*
X163047993Y-93627693D01*
X163103142Y-93794122D01*
X163195182Y-93943343D01*
X163319156Y-94067317D01*
X163468377Y-94159357D01*
X163634806Y-94214506D01*
X163737518Y-94224999D01*
X163799999Y-94224999D01*
X164300000Y-94224999D01*
X164362480Y-94224999D01*
X164465193Y-94214506D01*
X164631622Y-94159357D01*
X164780843Y-94067317D01*
X164904817Y-93943343D01*
X164996857Y-93794122D01*
X165052006Y-93627693D01*
X165062500Y-93524981D01*
X165062500Y-93275000D01*
X164300000Y-93275000D01*
X164300000Y-94224999D01*
X163799999Y-94224999D01*
X163800000Y-94224998D01*
X163800000Y-93275000D01*
X163037501Y-93275000D01*
X163037501Y-93524980D01*
X162885076Y-93524980D01*
X162888000Y-93506519D01*
X162887999Y-92543482D01*
X162885075Y-92525018D01*
X163037500Y-92525018D01*
X163037500Y-92775000D01*
X163800000Y-92775000D01*
X164300000Y-92775000D01*
X165062499Y-92775000D01*
X165062499Y-92525019D01*
X165052006Y-92422306D01*
X164996857Y-92255877D01*
X164904817Y-92106656D01*
X164780843Y-91982682D01*
X164631622Y-91890642D01*
X164465193Y-91835493D01*
X164362481Y-91825000D01*
X164300000Y-91825000D01*
X164300000Y-92775000D01*
X163800000Y-92775000D01*
X163800000Y-91825000D01*
X163737519Y-91825000D01*
X163634806Y-91835493D01*
X163468377Y-91890642D01*
X163319156Y-91982682D01*
X163195182Y-92106656D01*
X163103142Y-92255877D01*
X163047993Y-92422306D01*
X163037500Y-92525018D01*
X162885075Y-92525018D01*
X162873146Y-92449696D01*
X162859190Y-92422306D01*
X162815554Y-92336664D01*
X162815549Y-92336657D01*
X162725842Y-92246950D01*
X162725835Y-92246945D01*
X162612808Y-92189355D01*
X162612805Y-92189354D01*
X162612804Y-92189354D01*
X162519019Y-92174500D01*
X162519017Y-92174500D01*
X161930982Y-92174500D01*
X161837196Y-92189353D01*
X161724164Y-92246945D01*
X161724157Y-92246950D01*
X161634450Y-92336657D01*
X161634445Y-92336664D01*
X161576855Y-92449690D01*
X161576855Y-92449692D01*
X161576854Y-92449694D01*
X161576854Y-92449696D01*
X161564924Y-92525018D01*
X161562000Y-92543482D01*
X161562000Y-93313442D01*
X161547648Y-93348090D01*
X161372147Y-93523591D01*
X161337499Y-93537943D01*
X161302851Y-93523591D01*
X160730895Y-92951635D01*
X160720971Y-92937342D01*
X160682882Y-92853937D01*
X160598049Y-92756033D01*
X160489069Y-92685996D01*
X160489066Y-92685995D01*
X160364776Y-92649500D01*
X160364772Y-92649500D01*
X160235228Y-92649500D01*
X160235223Y-92649500D01*
X160110933Y-92685995D01*
X160001950Y-92756033D01*
X159917119Y-92853936D01*
X159917118Y-92853936D01*
X159863301Y-92971776D01*
X159844867Y-93099997D01*
X159844867Y-93100002D01*
X159863301Y-93228223D01*
X159917118Y-93346063D01*
X159991212Y-93431574D01*
X160001951Y-93443967D01*
X160110931Y-93514004D01*
X160169541Y-93531213D01*
X160235223Y-93550499D01*
X160235228Y-93550500D01*
X160364772Y-93550500D01*
X160364776Y-93550499D01*
X160407538Y-93537943D01*
X160489069Y-93514004D01*
X160514094Y-93497920D01*
X160551000Y-93491262D01*
X160575233Y-93504494D01*
X161072648Y-94001908D01*
X161087000Y-94036556D01*
X161087000Y-94625500D01*
X161072648Y-94660148D01*
X161038000Y-94674500D01*
X159927676Y-94674500D01*
X159883778Y-94683232D01*
X159833995Y-94716495D01*
X159800732Y-94766278D01*
X159792000Y-94810176D01*
X147964506Y-94810176D01*
X147964506Y-93531212D01*
X147948725Y-93431574D01*
X147906188Y-93348090D01*
X147887538Y-93311486D01*
X147887533Y-93311479D01*
X147792226Y-93216172D01*
X147792219Y-93216167D01*
X147672135Y-93154982D01*
X147672133Y-93154981D01*
X147672132Y-93154981D01*
X147572494Y-93139200D01*
X146955518Y-93139200D01*
X146855880Y-93154981D01*
X146855878Y-93154981D01*
X146855876Y-93154982D01*
X146735792Y-93216167D01*
X146735785Y-93216172D01*
X146640478Y-93311479D01*
X146640473Y-93311486D01*
X146579288Y-93431570D01*
X146579287Y-93431572D01*
X146579287Y-93431574D01*
X146563506Y-93531212D01*
X145424506Y-93531212D01*
X145408725Y-93431574D01*
X145366188Y-93348090D01*
X145347538Y-93311486D01*
X145347533Y-93311479D01*
X145252226Y-93216172D01*
X145252219Y-93216167D01*
X145132135Y-93154982D01*
X145132133Y-93154981D01*
X145132132Y-93154981D01*
X145032494Y-93139200D01*
X144415518Y-93139200D01*
X144315880Y-93154981D01*
X144315878Y-93154981D01*
X144315876Y-93154982D01*
X144195792Y-93216167D01*
X144195785Y-93216172D01*
X144100478Y-93311479D01*
X144100473Y-93311486D01*
X144039288Y-93431570D01*
X144039287Y-93431572D01*
X144039287Y-93431574D01*
X144023506Y-93531212D01*
X143209101Y-93531212D01*
X143282882Y-93446063D01*
X143336697Y-93328226D01*
X143336697Y-93328224D01*
X143336698Y-93328223D01*
X143355133Y-93200002D01*
X143355133Y-93199997D01*
X143336698Y-93071776D01*
X143329297Y-93055572D01*
X143283049Y-92954303D01*
X152451506Y-92954303D01*
X152451506Y-94085696D01*
X152454407Y-94122567D01*
X152454407Y-94122569D01*
X152500262Y-94280399D01*
X152583923Y-94421862D01*
X152583925Y-94421865D01*
X152700141Y-94538081D01*
X152841606Y-94621743D01*
X152841607Y-94621743D01*
X152841608Y-94621744D01*
X152999437Y-94667598D01*
X153036312Y-94670500D01*
X153036323Y-94670500D01*
X154917689Y-94670500D01*
X154917700Y-94670500D01*
X154954575Y-94667598D01*
X155112404Y-94621744D01*
X155253871Y-94538081D01*
X155370087Y-94421865D01*
X155453750Y-94280398D01*
X155499604Y-94122569D01*
X155502506Y-94085694D01*
X155502506Y-92954306D01*
X155499604Y-92917431D01*
X155491462Y-92889408D01*
X155461418Y-92785995D01*
X155453750Y-92759602D01*
X155370087Y-92618135D01*
X155253871Y-92501919D01*
X155165566Y-92449696D01*
X155112404Y-92418256D01*
X155112406Y-92418256D01*
X154954574Y-92372401D01*
X154917702Y-92369500D01*
X154917700Y-92369500D01*
X153036312Y-92369500D01*
X153036309Y-92369500D01*
X152999438Y-92372401D01*
X152999436Y-92372401D01*
X152841606Y-92418256D01*
X152700143Y-92501917D01*
X152700138Y-92501921D01*
X152583927Y-92618132D01*
X152583923Y-92618137D01*
X152500262Y-92759600D01*
X152454407Y-92917430D01*
X152454407Y-92917432D01*
X152451506Y-92954303D01*
X143283049Y-92954303D01*
X143282882Y-92953937D01*
X143198049Y-92856033D01*
X143089069Y-92785996D01*
X143089066Y-92785995D01*
X142964776Y-92749500D01*
X142964772Y-92749500D01*
X142835228Y-92749500D01*
X142835223Y-92749500D01*
X142710933Y-92785995D01*
X142601950Y-92856033D01*
X142517119Y-92953936D01*
X142517118Y-92953936D01*
X142463301Y-93071776D01*
X142444867Y-93199997D01*
X142444867Y-93200002D01*
X142463301Y-93328223D01*
X142517118Y-93446063D01*
X142569502Y-93506519D01*
X142601951Y-93543967D01*
X142626991Y-93560059D01*
X142648380Y-93590863D01*
X142649500Y-93601280D01*
X142649500Y-107823151D01*
X142635148Y-107857799D01*
X142334148Y-108158799D01*
X142299500Y-108173151D01*
X142264852Y-108158799D01*
X142250500Y-108124151D01*
X142250500Y-92924056D01*
X142264852Y-92889408D01*
X143909408Y-91244852D01*
X143944056Y-91230500D01*
X152402506Y-91230500D01*
X152437154Y-91244852D01*
X152451506Y-91279500D01*
X152451506Y-91545696D01*
X152454407Y-91582567D01*
X152454407Y-91582569D01*
X152500262Y-91740399D01*
X152583923Y-91881862D01*
X152583925Y-91881865D01*
X152700141Y-91998081D01*
X152841606Y-92081743D01*
X152841607Y-92081743D01*
X152841608Y-92081744D01*
X152999437Y-92127598D01*
X153036312Y-92130500D01*
X153036323Y-92130500D01*
X154917689Y-92130500D01*
X154917700Y-92130500D01*
X154954575Y-92127598D01*
X155112404Y-92081744D01*
X155253871Y-91998081D01*
X155370087Y-91881865D01*
X155453750Y-91740398D01*
X155499604Y-91582569D01*
X155502506Y-91545694D01*
X155502506Y-90414306D01*
X155499604Y-90377431D01*
X155453750Y-90219602D01*
X155370087Y-90078135D01*
X155253871Y-89961919D01*
X155112404Y-89878256D01*
X155112406Y-89878256D01*
X154954574Y-89832401D01*
X154917702Y-89829500D01*
X154917700Y-89829500D01*
X153036312Y-89829500D01*
X153036309Y-89829500D01*
X152999438Y-89832401D01*
X152999436Y-89832401D01*
X152841606Y-89878256D01*
X152700143Y-89961917D01*
X152700138Y-89961921D01*
X152583927Y-90078132D01*
X152583923Y-90078137D01*
X152500262Y-90219600D01*
X152454407Y-90377430D01*
X152454407Y-90377432D01*
X152451506Y-90414303D01*
X152451506Y-90680500D01*
X152437154Y-90715148D01*
X152402506Y-90729500D01*
X143875537Y-90729500D01*
X143875529Y-90729499D01*
X143869828Y-90729499D01*
X143770173Y-90729499D01*
X143770171Y-90729499D01*
X143716240Y-90751839D01*
X143678101Y-90767636D01*
X143678100Y-90767637D01*
X143607636Y-90838103D01*
X143607635Y-90838104D01*
X141851211Y-92594527D01*
X141787637Y-92658101D01*
X141749500Y-92750170D01*
X141749500Y-108220942D01*
X141735148Y-108255590D01*
X141437028Y-108553709D01*
X141402380Y-108568061D01*
X141375158Y-108559803D01*
X141300496Y-108509916D01*
X141300492Y-108509914D01*
X141163915Y-108453342D01*
X141163906Y-108453340D01*
X141018921Y-108424500D01*
X141018918Y-108424500D01*
X140871082Y-108424500D01*
X140871078Y-108424500D01*
X140726093Y-108453340D01*
X140726084Y-108453342D01*
X140589508Y-108509914D01*
X140466584Y-108592048D01*
X140362048Y-108696584D01*
X140279915Y-108819506D01*
X140244770Y-108904355D01*
X140218251Y-108930873D01*
X140180748Y-108930873D01*
X140154230Y-108904354D01*
X140150500Y-108885603D01*
X140150500Y-106451849D01*
X140164852Y-106417201D01*
X140199500Y-106402849D01*
X140221745Y-106408189D01*
X140324696Y-106460646D01*
X140418481Y-106475500D01*
X140981518Y-106475499D01*
X141075304Y-106460646D01*
X141136387Y-106429522D01*
X141188335Y-106403054D01*
X141188337Y-106403052D01*
X141188342Y-106403050D01*
X141278050Y-106313342D01*
X141278054Y-106313335D01*
X141335644Y-106200309D01*
X141335644Y-106200307D01*
X141335646Y-106200304D01*
X141350500Y-106106519D01*
X141350499Y-105093482D01*
X141335646Y-104999696D01*
X141335643Y-104999690D01*
X141278054Y-104886664D01*
X141278049Y-104886657D01*
X141188342Y-104796950D01*
X141188335Y-104796945D01*
X141075308Y-104739355D01*
X141075305Y-104739354D01*
X141075304Y-104739354D01*
X140991833Y-104726133D01*
X140959858Y-104706538D01*
X140950500Y-104677737D01*
X140950500Y-104391322D01*
X140964852Y-104356674D01*
X140991835Y-104342925D01*
X141037804Y-104335646D01*
X141099799Y-104304058D01*
X141150835Y-104278054D01*
X141150837Y-104278052D01*
X141150842Y-104278050D01*
X141240550Y-104188342D01*
X141240554Y-104188335D01*
X141298144Y-104075309D01*
X141298144Y-104075307D01*
X141298146Y-104075304D01*
X141313000Y-103981519D01*
X141312999Y-103018482D01*
X141298146Y-102924696D01*
X141298143Y-102924690D01*
X141240554Y-102811664D01*
X141240549Y-102811657D01*
X141150842Y-102721950D01*
X141150835Y-102721945D01*
X141037808Y-102664355D01*
X141037805Y-102664354D01*
X141037804Y-102664354D01*
X140944019Y-102649500D01*
X140944017Y-102649500D01*
X140942117Y-102649199D01*
X140942312Y-102647967D01*
X140912159Y-102632507D01*
X140900500Y-102600779D01*
X140900500Y-87874303D01*
X152451506Y-87874303D01*
X152451506Y-89005696D01*
X152454407Y-89042567D01*
X152454407Y-89042569D01*
X152500262Y-89200399D01*
X152583923Y-89341862D01*
X152583925Y-89341865D01*
X152700141Y-89458081D01*
X152841606Y-89541743D01*
X152841607Y-89541743D01*
X152841608Y-89541744D01*
X152999437Y-89587598D01*
X153036312Y-89590500D01*
X153036323Y-89590500D01*
X154917689Y-89590500D01*
X154917700Y-89590500D01*
X154954575Y-89587598D01*
X155112404Y-89541744D01*
X155253871Y-89458081D01*
X155370087Y-89341865D01*
X155453750Y-89200398D01*
X155499604Y-89042569D01*
X155502506Y-89005694D01*
X155502506Y-87874306D01*
X155499604Y-87837431D01*
X155453750Y-87679602D01*
X155370087Y-87538135D01*
X155253871Y-87421919D01*
X155112404Y-87338256D01*
X155112406Y-87338256D01*
X154954574Y-87292401D01*
X154917702Y-87289500D01*
X154917700Y-87289500D01*
X153036312Y-87289500D01*
X153036309Y-87289500D01*
X152999438Y-87292401D01*
X152999436Y-87292401D01*
X152841606Y-87338256D01*
X152700143Y-87421917D01*
X152700138Y-87421921D01*
X152583927Y-87538132D01*
X152583923Y-87538137D01*
X152500262Y-87679600D01*
X152454407Y-87837430D01*
X152454407Y-87837432D01*
X152451506Y-87874303D01*
X140900500Y-87874303D01*
X140900500Y-85334303D01*
X152451506Y-85334303D01*
X152451506Y-86465696D01*
X152454407Y-86502567D01*
X152454407Y-86502569D01*
X152500262Y-86660399D01*
X152534821Y-86718835D01*
X152583925Y-86801865D01*
X152700141Y-86918081D01*
X152841606Y-87001743D01*
X152841607Y-87001743D01*
X152841608Y-87001744D01*
X152999437Y-87047598D01*
X153036312Y-87050500D01*
X153036323Y-87050500D01*
X154917689Y-87050500D01*
X154917700Y-87050500D01*
X154954575Y-87047598D01*
X155112404Y-87001744D01*
X155253871Y-86918081D01*
X155370087Y-86801865D01*
X155453750Y-86660398D01*
X155499604Y-86502569D01*
X155502506Y-86465694D01*
X155502506Y-85334306D01*
X155499604Y-85297431D01*
X155453750Y-85139602D01*
X155370087Y-84998135D01*
X155253871Y-84881919D01*
X155253868Y-84881917D01*
X155112407Y-84798256D01*
X155053030Y-84781005D01*
X155049153Y-84778712D01*
X156799500Y-84778712D01*
X156799500Y-85021288D01*
X156831162Y-85261789D01*
X156831163Y-85261793D01*
X156831164Y-85261800D01*
X156893944Y-85496095D01*
X156893946Y-85496101D01*
X156986776Y-85720213D01*
X157108062Y-85930286D01*
X157108072Y-85930301D01*
X157255730Y-86122732D01*
X157255740Y-86122744D01*
X157427255Y-86294259D01*
X157427267Y-86294269D01*
X157619698Y-86441927D01*
X157619707Y-86441933D01*
X157619711Y-86441936D01*
X157829788Y-86563224D01*
X158053900Y-86656054D01*
X158053904Y-86656055D01*
X158288199Y-86718835D01*
X158288200Y-86718835D01*
X158288211Y-86718838D01*
X158528712Y-86750500D01*
X158528716Y-86750500D01*
X158771284Y-86750500D01*
X158771288Y-86750500D01*
X159011789Y-86718838D01*
X159246100Y-86656054D01*
X159470212Y-86563224D01*
X159680289Y-86441936D01*
X159872738Y-86294265D01*
X160044265Y-86122738D01*
X160191936Y-85930289D01*
X160313224Y-85720212D01*
X160406054Y-85496100D01*
X160468838Y-85261789D01*
X160500500Y-85021288D01*
X160500500Y-84778712D01*
X160468838Y-84538211D01*
X160406054Y-84303900D01*
X160313224Y-84079788D01*
X160191936Y-83869711D01*
X160191933Y-83869707D01*
X160191927Y-83869698D01*
X160044269Y-83677267D01*
X160044259Y-83677255D01*
X159872744Y-83505740D01*
X159872732Y-83505730D01*
X159680301Y-83358072D01*
X159680286Y-83358062D01*
X159470212Y-83236776D01*
X159470213Y-83236776D01*
X159246101Y-83143946D01*
X159246095Y-83143944D01*
X159011800Y-83081164D01*
X159011793Y-83081163D01*
X159011789Y-83081162D01*
X158771288Y-83049500D01*
X158528712Y-83049500D01*
X158288211Y-83081162D01*
X158288207Y-83081162D01*
X158288199Y-83081164D01*
X158053904Y-83143944D01*
X158053898Y-83143946D01*
X157829786Y-83236776D01*
X157619713Y-83358062D01*
X157619698Y-83358072D01*
X157427267Y-83505730D01*
X157427255Y-83505740D01*
X157255740Y-83677255D01*
X157255730Y-83677267D01*
X157108072Y-83869698D01*
X157108062Y-83869713D01*
X156986776Y-84079786D01*
X156893946Y-84303898D01*
X156893944Y-84303904D01*
X156831164Y-84538199D01*
X156831162Y-84538207D01*
X156831162Y-84538211D01*
X156799500Y-84778712D01*
X155049153Y-84778712D01*
X155032053Y-84768599D01*
X153977006Y-83713552D01*
X152921958Y-84768599D01*
X152900982Y-84781005D01*
X152841603Y-84798257D01*
X152700143Y-84881917D01*
X152700138Y-84881921D01*
X152583927Y-84998132D01*
X152583923Y-84998137D01*
X152500262Y-85139600D01*
X152454407Y-85297430D01*
X152454407Y-85297432D01*
X152451506Y-85334303D01*
X140900500Y-85334303D01*
X140900500Y-82801986D01*
X152102006Y-82801986D01*
X152102006Y-83918013D01*
X152112614Y-84037328D01*
X152168561Y-84232857D01*
X152262729Y-84413132D01*
X152391253Y-84570752D01*
X152403067Y-84580385D01*
X153623454Y-83360000D01*
X153623454Y-83359999D01*
X154330557Y-83359999D01*
X155550943Y-84580386D01*
X155550944Y-84580386D01*
X155562757Y-84570755D01*
X155691282Y-84413132D01*
X155785450Y-84232857D01*
X155841397Y-84037328D01*
X155852005Y-83918013D01*
X155852006Y-83918010D01*
X155852006Y-82801989D01*
X155852005Y-82801986D01*
X155841397Y-82682671D01*
X155785450Y-82487142D01*
X155691282Y-82306867D01*
X155562758Y-82149246D01*
X155550943Y-82139613D01*
X154330557Y-83359999D01*
X153623454Y-83359999D01*
X152403067Y-82139612D01*
X152391249Y-82149250D01*
X152262729Y-82306867D01*
X152168561Y-82487142D01*
X152112614Y-82682671D01*
X152102006Y-82801986D01*
X140900500Y-82801986D01*
X140900500Y-81173531D01*
X140900501Y-81173522D01*
X140900501Y-81068169D01*
X140900500Y-81068165D01*
X140900034Y-81067041D01*
X140878160Y-81014234D01*
X140862364Y-80976097D01*
X140862362Y-80976095D01*
X140862361Y-80976093D01*
X140789107Y-80902840D01*
X140789100Y-80902834D01*
X139947966Y-80061699D01*
X143718665Y-80061699D01*
X143718665Y-80061700D01*
X143737982Y-80257832D01*
X143737982Y-80257833D01*
X143795191Y-80446426D01*
X143888098Y-80620241D01*
X143888100Y-80620244D01*
X143954316Y-80700927D01*
X144013123Y-80772583D01*
X144100433Y-80844237D01*
X144165461Y-80897605D01*
X144165464Y-80897607D01*
X144165468Y-80897610D01*
X144339279Y-80990514D01*
X144527874Y-81047724D01*
X144724006Y-81067041D01*
X144920138Y-81047724D01*
X145108733Y-80990514D01*
X145282544Y-80897610D01*
X145434889Y-80772583D01*
X145559916Y-80620238D01*
X145652820Y-80446427D01*
X145710030Y-80257832D01*
X145729347Y-80061700D01*
X145729347Y-80061699D01*
X146258665Y-80061699D01*
X146258665Y-80061700D01*
X146277982Y-80257832D01*
X146277982Y-80257833D01*
X146335191Y-80446426D01*
X146428098Y-80620241D01*
X146428100Y-80620244D01*
X146494316Y-80700927D01*
X146553123Y-80772583D01*
X146640433Y-80844237D01*
X146705461Y-80897605D01*
X146705464Y-80897607D01*
X146705468Y-80897610D01*
X146879279Y-80990514D01*
X147067874Y-81047724D01*
X147264006Y-81067041D01*
X147460138Y-81047724D01*
X147648733Y-80990514D01*
X147822544Y-80897610D01*
X147974889Y-80772583D01*
X148099916Y-80620238D01*
X148192820Y-80446427D01*
X148250030Y-80257832D01*
X148250378Y-80254303D01*
X152451506Y-80254303D01*
X152451506Y-81385696D01*
X152454407Y-81422567D01*
X152454407Y-81422569D01*
X152500262Y-81580399D01*
X152515884Y-81606814D01*
X152583925Y-81721865D01*
X152700141Y-81838081D01*
X152841607Y-81921743D01*
X152841607Y-81921744D01*
X152900979Y-81938993D01*
X152921957Y-81951399D01*
X153977004Y-83006446D01*
X155032053Y-81951398D01*
X155053024Y-81938995D01*
X155112404Y-81921744D01*
X155253871Y-81838081D01*
X155370087Y-81721865D01*
X155453750Y-81580398D01*
X155499604Y-81422569D01*
X155502506Y-81385694D01*
X155502506Y-80254306D01*
X155499604Y-80217431D01*
X155453750Y-80059602D01*
X155370087Y-79918135D01*
X155253871Y-79801919D01*
X155112404Y-79718256D01*
X155112406Y-79718256D01*
X154954574Y-79672401D01*
X154917702Y-79669500D01*
X154917700Y-79669500D01*
X153036312Y-79669500D01*
X153036309Y-79669500D01*
X152999438Y-79672401D01*
X152999436Y-79672401D01*
X152841606Y-79718256D01*
X152700143Y-79801917D01*
X152700138Y-79801921D01*
X152583927Y-79918132D01*
X152583923Y-79918137D01*
X152500262Y-80059600D01*
X152454407Y-80217430D01*
X152454407Y-80217432D01*
X152451506Y-80254303D01*
X148250378Y-80254303D01*
X148269347Y-80061700D01*
X148250030Y-79865568D01*
X148192820Y-79676973D01*
X148099916Y-79503162D01*
X148099913Y-79503158D01*
X148099911Y-79503155D01*
X148046543Y-79438127D01*
X147974889Y-79350817D01*
X147852461Y-79250342D01*
X147822550Y-79225794D01*
X147822547Y-79225792D01*
X147822545Y-79225791D01*
X147822544Y-79225790D01*
X147740361Y-79181862D01*
X147648732Y-79132885D01*
X147460138Y-79075676D01*
X147264006Y-79056359D01*
X147067873Y-79075676D01*
X147067872Y-79075676D01*
X146879279Y-79132885D01*
X146705464Y-79225792D01*
X146705461Y-79225794D01*
X146553123Y-79350817D01*
X146428100Y-79503155D01*
X146428098Y-79503158D01*
X146335191Y-79676973D01*
X146277982Y-79865566D01*
X146277982Y-79865567D01*
X146258665Y-80061699D01*
X145729347Y-80061699D01*
X145710030Y-79865568D01*
X145652820Y-79676973D01*
X145559916Y-79503162D01*
X145559913Y-79503158D01*
X145559911Y-79503155D01*
X145506543Y-79438127D01*
X145434889Y-79350817D01*
X145312461Y-79250342D01*
X145282550Y-79225794D01*
X145282547Y-79225792D01*
X145282545Y-79225791D01*
X145282544Y-79225790D01*
X145200361Y-79181862D01*
X145108732Y-79132885D01*
X144920138Y-79075676D01*
X144724006Y-79056359D01*
X144527873Y-79075676D01*
X144527872Y-79075676D01*
X144339279Y-79132885D01*
X144165464Y-79225792D01*
X144165461Y-79225794D01*
X144013123Y-79350817D01*
X143888100Y-79503155D01*
X143888098Y-79503158D01*
X143795191Y-79676973D01*
X143737982Y-79865566D01*
X143737982Y-79865567D01*
X143718665Y-80061699D01*
X139947966Y-80061699D01*
X139171257Y-79284990D01*
X139156905Y-79250342D01*
X139171256Y-79215694D01*
X139205087Y-79181865D01*
X139288750Y-79040398D01*
X139334604Y-78882569D01*
X139337506Y-78845694D01*
X139337506Y-77714306D01*
X139334604Y-77677431D01*
X139289359Y-77521699D01*
X143718665Y-77521699D01*
X143718665Y-77521700D01*
X143737982Y-77717832D01*
X143737982Y-77717833D01*
X143795191Y-77906426D01*
X143888098Y-78080241D01*
X143888100Y-78080244D01*
X143954316Y-78160927D01*
X144013123Y-78232583D01*
X144100433Y-78304237D01*
X144165461Y-78357605D01*
X144165464Y-78357607D01*
X144165468Y-78357610D01*
X144339279Y-78450514D01*
X144527874Y-78507724D01*
X144724006Y-78527041D01*
X144920138Y-78507724D01*
X145108733Y-78450514D01*
X145282544Y-78357610D01*
X145434889Y-78232583D01*
X145559916Y-78080238D01*
X145652820Y-77906427D01*
X145710030Y-77717832D01*
X145729347Y-77521700D01*
X145729347Y-77521699D01*
X146258665Y-77521699D01*
X146258665Y-77521700D01*
X146277982Y-77717832D01*
X146277982Y-77717833D01*
X146335191Y-77906426D01*
X146428098Y-78080241D01*
X146428100Y-78080244D01*
X146494316Y-78160927D01*
X146553123Y-78232583D01*
X146640433Y-78304237D01*
X146705461Y-78357605D01*
X146705464Y-78357607D01*
X146705468Y-78357610D01*
X146879279Y-78450514D01*
X147067874Y-78507724D01*
X147264006Y-78527041D01*
X147460138Y-78507724D01*
X147648733Y-78450514D01*
X147822544Y-78357610D01*
X147974889Y-78232583D01*
X148099916Y-78080238D01*
X148192820Y-77906427D01*
X148250030Y-77717832D01*
X148250378Y-77714303D01*
X152451506Y-77714303D01*
X152451506Y-78845696D01*
X152454407Y-78882567D01*
X152454407Y-78882569D01*
X152500262Y-79040399D01*
X152509701Y-79056359D01*
X152583925Y-79181865D01*
X152700141Y-79298081D01*
X152841606Y-79381743D01*
X152841607Y-79381743D01*
X152841608Y-79381744D01*
X152999437Y-79427598D01*
X153036312Y-79430500D01*
X153036323Y-79430500D01*
X154917689Y-79430500D01*
X154917700Y-79430500D01*
X154954575Y-79427598D01*
X155112404Y-79381744D01*
X155253871Y-79298081D01*
X155370087Y-79181865D01*
X155453750Y-79040398D01*
X155499604Y-78882569D01*
X155502506Y-78845694D01*
X155502506Y-77714306D01*
X155499604Y-77677431D01*
X155453750Y-77519602D01*
X155370087Y-77378135D01*
X155253871Y-77261919D01*
X155112404Y-77178256D01*
X155112406Y-77178256D01*
X154954574Y-77132401D01*
X154917702Y-77129500D01*
X154917700Y-77129500D01*
X153036312Y-77129500D01*
X153036309Y-77129500D01*
X152999438Y-77132401D01*
X152999436Y-77132401D01*
X152841606Y-77178256D01*
X152700143Y-77261917D01*
X152700138Y-77261921D01*
X152583927Y-77378132D01*
X152583923Y-77378137D01*
X152500262Y-77519600D01*
X152454407Y-77677430D01*
X152454407Y-77677432D01*
X152451506Y-77714303D01*
X148250378Y-77714303D01*
X148269347Y-77521700D01*
X148250030Y-77325568D01*
X148192820Y-77136973D01*
X148099916Y-76963162D01*
X148099913Y-76963158D01*
X148099911Y-76963155D01*
X148046543Y-76898127D01*
X147974889Y-76810817D01*
X147903233Y-76752010D01*
X147822550Y-76685794D01*
X147822547Y-76685792D01*
X147822545Y-76685791D01*
X147822544Y-76685790D01*
X147742598Y-76643058D01*
X147648732Y-76592885D01*
X147460138Y-76535676D01*
X147264006Y-76516359D01*
X147067873Y-76535676D01*
X147067872Y-76535676D01*
X146879279Y-76592885D01*
X146705464Y-76685792D01*
X146705461Y-76685794D01*
X146553123Y-76810817D01*
X146428100Y-76963155D01*
X146428098Y-76963158D01*
X146335191Y-77136973D01*
X146277982Y-77325566D01*
X146277982Y-77325567D01*
X146258665Y-77521699D01*
X145729347Y-77521699D01*
X145710030Y-77325568D01*
X145652820Y-77136973D01*
X145559916Y-76963162D01*
X145559913Y-76963158D01*
X145559911Y-76963155D01*
X145506543Y-76898127D01*
X145434889Y-76810817D01*
X145363233Y-76752010D01*
X145282550Y-76685794D01*
X145282547Y-76685792D01*
X145282545Y-76685791D01*
X145282544Y-76685790D01*
X145202598Y-76643058D01*
X145108732Y-76592885D01*
X144920138Y-76535676D01*
X144724006Y-76516359D01*
X144527873Y-76535676D01*
X144527872Y-76535676D01*
X144339279Y-76592885D01*
X144165464Y-76685792D01*
X144165461Y-76685794D01*
X144013123Y-76810817D01*
X143888100Y-76963155D01*
X143888098Y-76963158D01*
X143795191Y-77136973D01*
X143737982Y-77325566D01*
X143737982Y-77325567D01*
X143718665Y-77521699D01*
X139289359Y-77521699D01*
X139288750Y-77519602D01*
X139205087Y-77378135D01*
X139088871Y-77261919D01*
X138947404Y-77178256D01*
X138947406Y-77178256D01*
X138789574Y-77132401D01*
X138752702Y-77129500D01*
X138752700Y-77129500D01*
X136871312Y-77129500D01*
X136871309Y-77129500D01*
X136834438Y-77132401D01*
X136834436Y-77132401D01*
X136676606Y-77178256D01*
X136535143Y-77261917D01*
X136535138Y-77261921D01*
X136418927Y-77378132D01*
X136418923Y-77378137D01*
X136335262Y-77519600D01*
X136289407Y-77677430D01*
X136289407Y-77677432D01*
X136286506Y-77714303D01*
X130550500Y-77714303D01*
X130550500Y-75899500D01*
X130564852Y-75864852D01*
X130599500Y-75850500D01*
X161200500Y-75850500D01*
X161235148Y-75864852D01*
G37*
%TD.AperFunction*%
%TD*%
M02*
