%TF.GenerationSoftware,KiCad,Pcbnew,8.0.8*%
%TF.CreationDate,2025-05-27T15:32:41+02:00*%
%TF.ProjectId,gFocus,67466f63-7573-42e6-9b69-6361645f7063,rev?*%
%TF.SameCoordinates,Original*%
%TF.FileFunction,Copper,L2,Bot*%
%TF.FilePolarity,Positive*%
%FSLAX46Y46*%
G04 Gerber Fmt 4.6, Leading zero omitted, Abs format (unit mm)*
G04 Created by KiCad (PCBNEW 8.0.8) date 2025-05-27 15:32:41*
%MOMM*%
%LPD*%
G01*
G04 APERTURE LIST*
G04 Aperture macros list*
%AMRoundRect*
0 Rectangle with rounded corners*
0 $1 Rounding radius*
0 $2 $3 $4 $5 $6 $7 $8 $9 X,Y pos of 4 corners*
0 Add a 4 corners polygon primitive as box body*
4,1,4,$2,$3,$4,$5,$6,$7,$8,$9,$2,$3,0*
0 Add four circle primitives for the rounded corners*
1,1,$1+$1,$2,$3*
1,1,$1+$1,$4,$5*
1,1,$1+$1,$6,$7*
1,1,$1+$1,$8,$9*
0 Add four rect primitives between the rounded corners*
20,1,$1+$1,$2,$3,$4,$5,0*
20,1,$1+$1,$4,$5,$6,$7,0*
20,1,$1+$1,$6,$7,$8,$9,0*
20,1,$1+$1,$8,$9,$2,$3,0*%
G04 Aperture macros list end*
%TA.AperFunction,ComponentPad*%
%ADD10RoundRect,0.250000X-0.350000X-0.575000X0.350000X-0.575000X0.350000X0.575000X-0.350000X0.575000X0*%
%TD*%
%TA.AperFunction,ComponentPad*%
%ADD11O,1.200000X1.650000*%
%TD*%
%TA.AperFunction,ViaPad*%
%ADD12C,0.600000*%
%TD*%
%TA.AperFunction,Conductor*%
%ADD13C,0.200000*%
%TD*%
G04 APERTURE END LIST*
D10*
%TO.P,J3,1,Pin_1*%
%TO.N,unconnected-(J3-Pin_1-Pad1)*%
X138945000Y-109400000D03*
D11*
%TO.P,J3,2,Pin_2*%
%TO.N,unconnected-(J3-Pin_2-Pad2)*%
X138945000Y-111400000D03*
%TO.P,J3,3,Pin_3*%
%TO.N,S_DIN*%
X140945000Y-109400000D03*
%TO.P,J3,4,Pin_4*%
%TO.N,Net-(J3-Pin_4)*%
X140945000Y-111400000D03*
%TO.P,J3,5,Pin_5*%
%TO.N,unconnected-(J3-Pin_5-Pad5)*%
X142945000Y-109400000D03*
%TO.P,J3,6,Pin_6*%
%TO.N,S_CLK*%
X142945000Y-111400000D03*
%TO.P,J3,7,Pin_7*%
%TO.N,unconnected-(J3-Pin_7-Pad7)*%
X144945000Y-109400000D03*
%TO.P,J3,8,Pin_8*%
%TO.N,unconnected-(J3-Pin_8-Pad8)*%
X144945000Y-111400000D03*
%TO.P,J3,9,Pin_9*%
%TO.N,unconnected-(J3-Pin_9-Pad9)*%
X146945000Y-109400000D03*
%TO.P,J3,10,Pin_10*%
%TO.N,unconnected-(J3-Pin_10-Pad10)*%
X146945000Y-111400000D03*
%TO.P,J3,11,Pin_11*%
%TO.N,VDD*%
X148945000Y-109400000D03*
%TO.P,J3,12,Pin_12*%
%TO.N,GND*%
X148945000Y-111400000D03*
%TD*%
D12*
%TO.N,RESET*%
X160300000Y-93100000D03*
X144700000Y-80100000D03*
%TO.N,SWDCLK*%
X147200000Y-77500000D03*
%TO.N,SWDIO*%
X144724006Y-77521700D03*
%TO.N,S_CLK*%
X154000000Y-88400000D03*
X142900000Y-93200000D03*
%TO.N,GND*%
X147300000Y-94600000D03*
X154000000Y-80900000D03*
X147300000Y-80000000D03*
X165407500Y-97715000D03*
X165422500Y-99002500D03*
X138837500Y-106100000D03*
%TO.N,SWDIO*%
X161337500Y-100275000D03*
%TO.N,SWDCLK*%
X161337500Y-99005000D03*
%TO.N,Net-(J3-Pin_4)*%
X138825000Y-103500000D03*
%TD*%
D13*
%TO.N,RESET*%
X144144006Y-77281456D02*
X144144006Y-79544006D01*
X144144006Y-79544006D02*
X144700000Y-80100000D01*
X145061944Y-76941700D02*
X144483762Y-76941700D01*
X144483762Y-76941700D02*
X144144006Y-77281456D01*
X160300000Y-92179756D02*
X145061944Y-76941700D01*
X160300000Y-93100000D02*
X160300000Y-92179756D01*
%TO.N,SWDCLK*%
X147200000Y-77500000D02*
X161337500Y-91637500D01*
X161337500Y-91637500D02*
X161337500Y-99005000D01*
%TO.N,SWDIO*%
X144724006Y-78303762D02*
X144724006Y-77521700D01*
X154580000Y-88159756D02*
X144724006Y-78303762D01*
X161337500Y-100275000D02*
X154580000Y-93517500D01*
X154580000Y-93517500D02*
X154580000Y-88159756D01*
%TO.N,S_CLK*%
X147700000Y-88400000D02*
X142900000Y-93200000D01*
X154000000Y-88400000D02*
X147700000Y-88400000D01*
%TO.N,SWDIO*%
X161337500Y-100275000D02*
X161337500Y-100126471D01*
%TO.N,Net-(J3-Pin_4)*%
X140982500Y-105657500D02*
X138825000Y-103500000D01*
%TD*%
%TA.AperFunction,Conductor*%
%TO.N,GND*%
G36*
X161235148Y-75864852D02*
G01*
X161249500Y-75899500D01*
X161249500Y-81865895D01*
X161283607Y-81993184D01*
X161283608Y-81993188D01*
X161349500Y-82107314D01*
X161442686Y-82200500D01*
X161484457Y-82224617D01*
X161556811Y-82266391D01*
X161556813Y-82266391D01*
X161556814Y-82266392D01*
X161657207Y-82293292D01*
X161684104Y-82300499D01*
X161684105Y-82300500D01*
X161684108Y-82300500D01*
X161815892Y-82300500D01*
X167650500Y-82300500D01*
X167685148Y-82314852D01*
X167699500Y-82349500D01*
X167699500Y-112950500D01*
X167685148Y-112985148D01*
X167650500Y-112999500D01*
X161684105Y-112999500D01*
X161556815Y-113033607D01*
X161556811Y-113033608D01*
X161442685Y-113099500D01*
X161442685Y-113099501D01*
X161349501Y-113192685D01*
X161349500Y-113192685D01*
X161283608Y-113306811D01*
X161283607Y-113306815D01*
X161249500Y-113434104D01*
X161249500Y-119400500D01*
X161235148Y-119435148D01*
X161200500Y-119449500D01*
X130599500Y-119449500D01*
X130564852Y-119435148D01*
X130550500Y-119400500D01*
X130550500Y-113434105D01*
X130550499Y-113434104D01*
X130516392Y-113306815D01*
X130516391Y-113306811D01*
X130450499Y-113192685D01*
X130357314Y-113099500D01*
X130243188Y-113033608D01*
X130243184Y-113033607D01*
X130115895Y-112999500D01*
X130115892Y-112999500D01*
X124149500Y-112999500D01*
X124114852Y-112985148D01*
X124100500Y-112950500D01*
X124100500Y-110278712D01*
X131299500Y-110278712D01*
X131299500Y-110521288D01*
X131331162Y-110761789D01*
X131331163Y-110761793D01*
X131331164Y-110761800D01*
X131393944Y-110996095D01*
X131393946Y-110996101D01*
X131486776Y-111220213D01*
X131608062Y-111430286D01*
X131608072Y-111430301D01*
X131755730Y-111622732D01*
X131755740Y-111622744D01*
X131927255Y-111794259D01*
X131927267Y-111794269D01*
X132119698Y-111941927D01*
X132119707Y-111941933D01*
X132119711Y-111941936D01*
X132329788Y-112063224D01*
X132553900Y-112156054D01*
X132553904Y-112156055D01*
X132788199Y-112218835D01*
X132788200Y-112218835D01*
X132788211Y-112218838D01*
X133028712Y-112250500D01*
X133028716Y-112250500D01*
X133271284Y-112250500D01*
X133271288Y-112250500D01*
X133511789Y-112218838D01*
X133746100Y-112156054D01*
X133970212Y-112063224D01*
X134180289Y-111941936D01*
X134372738Y-111794265D01*
X134544265Y-111622738D01*
X134691936Y-111430289D01*
X134813224Y-111220212D01*
X134906054Y-110996100D01*
X134968838Y-110761789D01*
X135000500Y-110521288D01*
X135000500Y-110278712D01*
X134968838Y-110038211D01*
X134906054Y-109803900D01*
X134813224Y-109579788D01*
X134691936Y-109369711D01*
X134691933Y-109369707D01*
X134691927Y-109369698D01*
X134544269Y-109177267D01*
X134544259Y-109177255D01*
X134372744Y-109005740D01*
X134372732Y-109005730D01*
X134180301Y-108858072D01*
X134180286Y-108858062D01*
X134068430Y-108793482D01*
X138194500Y-108793482D01*
X138194500Y-110006517D01*
X138209353Y-110100303D01*
X138266945Y-110213335D01*
X138266950Y-110213342D01*
X138356657Y-110303049D01*
X138356664Y-110303054D01*
X138469691Y-110360644D01*
X138469692Y-110360644D01*
X138469696Y-110360646D01*
X138563481Y-110375500D01*
X138667677Y-110375499D01*
X138702323Y-110389850D01*
X138716675Y-110424499D01*
X138702324Y-110459147D01*
X138686427Y-110469769D01*
X138589506Y-110509915D01*
X138466584Y-110592048D01*
X138362048Y-110696584D01*
X138279914Y-110819508D01*
X138223342Y-110956084D01*
X138223340Y-110956093D01*
X138194500Y-111101078D01*
X138194500Y-111698921D01*
X138223340Y-111843906D01*
X138223342Y-111843915D01*
X138279914Y-111980491D01*
X138279916Y-111980495D01*
X138362049Y-112103416D01*
X138466584Y-112207951D01*
X138589505Y-112290084D01*
X138657796Y-112318371D01*
X138726084Y-112346657D01*
X138726085Y-112346657D01*
X138726087Y-112346658D01*
X138871082Y-112375500D01*
X139018918Y-112375500D01*
X139163913Y-112346658D01*
X139300495Y-112290084D01*
X139423416Y-112207951D01*
X139527951Y-112103416D01*
X139610084Y-111980495D01*
X139666658Y-111843913D01*
X139695500Y-111698918D01*
X139695500Y-111101082D01*
X139666658Y-110956087D01*
X139610084Y-110819505D01*
X139527951Y-110696584D01*
X139423416Y-110592049D01*
X139300495Y-110509916D01*
X139300492Y-110509914D01*
X139300491Y-110509914D01*
X139203572Y-110469769D01*
X139177053Y-110443251D01*
X139177053Y-110405748D01*
X139203571Y-110379229D01*
X139222322Y-110375499D01*
X139326518Y-110375499D01*
X139420304Y-110360646D01*
X139481387Y-110329522D01*
X139533335Y-110303054D01*
X139533337Y-110303052D01*
X139533342Y-110303050D01*
X139623050Y-110213342D01*
X139632742Y-110194321D01*
X139680644Y-110100309D01*
X139680644Y-110100307D01*
X139680646Y-110100304D01*
X139695500Y-110006519D01*
X139695499Y-109101078D01*
X140194500Y-109101078D01*
X140194500Y-109698921D01*
X140223340Y-109843906D01*
X140223342Y-109843915D01*
X140279914Y-109980491D01*
X140279916Y-109980495D01*
X140318481Y-110038211D01*
X140359971Y-110100307D01*
X140362049Y-110103416D01*
X140466584Y-110207951D01*
X140589505Y-110290084D01*
X140657796Y-110318371D01*
X140726084Y-110346657D01*
X140726093Y-110346660D01*
X140752647Y-110351942D01*
X140783829Y-110372777D01*
X140791145Y-110409560D01*
X140770310Y-110440742D01*
X140752647Y-110448058D01*
X140726093Y-110453339D01*
X140726084Y-110453342D01*
X140589508Y-110509914D01*
X140466584Y-110592048D01*
X140362048Y-110696584D01*
X140279914Y-110819508D01*
X140223342Y-110956084D01*
X140223340Y-110956093D01*
X140194500Y-111101078D01*
X140194500Y-111698921D01*
X140223340Y-111843906D01*
X140223342Y-111843915D01*
X140279914Y-111980491D01*
X140279916Y-111980495D01*
X140362049Y-112103416D01*
X140466584Y-112207951D01*
X140589505Y-112290084D01*
X140657796Y-112318371D01*
X140726084Y-112346657D01*
X140726085Y-112346657D01*
X140726087Y-112346658D01*
X140871082Y-112375500D01*
X141018918Y-112375500D01*
X141163913Y-112346658D01*
X141300495Y-112290084D01*
X141423416Y-112207951D01*
X141527951Y-112103416D01*
X141610084Y-111980495D01*
X141666658Y-111843913D01*
X141695500Y-111698918D01*
X141695500Y-111101082D01*
X141666658Y-110956087D01*
X141610084Y-110819505D01*
X141527951Y-110696584D01*
X141423416Y-110592049D01*
X141300495Y-110509916D01*
X141300492Y-110509914D01*
X141300491Y-110509914D01*
X141163915Y-110453342D01*
X141163906Y-110453340D01*
X141137352Y-110448058D01*
X141106170Y-110427223D01*
X141098854Y-110390440D01*
X141119689Y-110359258D01*
X141137352Y-110351942D01*
X141152966Y-110348835D01*
X141163913Y-110346658D01*
X141300495Y-110290084D01*
X141423416Y-110207951D01*
X141527951Y-110103416D01*
X141610084Y-109980495D01*
X141666658Y-109843913D01*
X141695500Y-109698918D01*
X141695500Y-109101082D01*
X141695499Y-109101078D01*
X142194500Y-109101078D01*
X142194500Y-109698921D01*
X142223340Y-109843906D01*
X142223342Y-109843915D01*
X142279914Y-109980491D01*
X142279916Y-109980495D01*
X142318481Y-110038211D01*
X142359971Y-110100307D01*
X142362049Y-110103416D01*
X142466584Y-110207951D01*
X142589505Y-110290084D01*
X142657796Y-110318371D01*
X142726084Y-110346657D01*
X142726093Y-110346660D01*
X142752647Y-110351942D01*
X142783829Y-110372777D01*
X142791145Y-110409560D01*
X142770310Y-110440742D01*
X142752647Y-110448058D01*
X142726093Y-110453339D01*
X142726084Y-110453342D01*
X142589508Y-110509914D01*
X142466584Y-110592048D01*
X142362048Y-110696584D01*
X142279914Y-110819508D01*
X142223342Y-110956084D01*
X142223340Y-110956093D01*
X142194500Y-111101078D01*
X142194500Y-111698921D01*
X142223340Y-111843906D01*
X142223342Y-111843915D01*
X142279914Y-111980491D01*
X142279916Y-111980495D01*
X142362049Y-112103416D01*
X142466584Y-112207951D01*
X142589505Y-112290084D01*
X142657796Y-112318371D01*
X142726084Y-112346657D01*
X142726085Y-112346657D01*
X142726087Y-112346658D01*
X142871082Y-112375500D01*
X143018918Y-112375500D01*
X143163913Y-112346658D01*
X143300495Y-112290084D01*
X143423416Y-112207951D01*
X143527951Y-112103416D01*
X143610084Y-111980495D01*
X143666658Y-111843913D01*
X143695500Y-111698918D01*
X143695500Y-111101082D01*
X143666658Y-110956087D01*
X143610084Y-110819505D01*
X143527951Y-110696584D01*
X143423416Y-110592049D01*
X143300495Y-110509916D01*
X143300492Y-110509914D01*
X143300491Y-110509914D01*
X143163915Y-110453342D01*
X143163906Y-110453340D01*
X143137352Y-110448058D01*
X143106170Y-110427223D01*
X143098854Y-110390440D01*
X143119689Y-110359258D01*
X143137352Y-110351942D01*
X143152966Y-110348835D01*
X143163913Y-110346658D01*
X143300495Y-110290084D01*
X143423416Y-110207951D01*
X143527951Y-110103416D01*
X143610084Y-109980495D01*
X143666658Y-109843913D01*
X143695500Y-109698918D01*
X143695500Y-109101082D01*
X143695499Y-109101078D01*
X144194500Y-109101078D01*
X144194500Y-109698921D01*
X144223340Y-109843906D01*
X144223342Y-109843915D01*
X144279914Y-109980491D01*
X144279916Y-109980495D01*
X144318481Y-110038211D01*
X144359971Y-110100307D01*
X144362049Y-110103416D01*
X144466584Y-110207951D01*
X144589505Y-110290084D01*
X144657796Y-110318371D01*
X144726084Y-110346657D01*
X144726093Y-110346660D01*
X144752647Y-110351942D01*
X144783829Y-110372777D01*
X144791145Y-110409560D01*
X144770310Y-110440742D01*
X144752647Y-110448058D01*
X144726093Y-110453339D01*
X144726084Y-110453342D01*
X144589508Y-110509914D01*
X144466584Y-110592048D01*
X144362048Y-110696584D01*
X144279914Y-110819508D01*
X144223342Y-110956084D01*
X144223340Y-110956093D01*
X144194500Y-111101078D01*
X144194500Y-111698921D01*
X144223340Y-111843906D01*
X144223342Y-111843915D01*
X144279914Y-111980491D01*
X144279916Y-111980495D01*
X144362049Y-112103416D01*
X144466584Y-112207951D01*
X144589505Y-112290084D01*
X144657796Y-112318371D01*
X144726084Y-112346657D01*
X144726085Y-112346657D01*
X144726087Y-112346658D01*
X144871082Y-112375500D01*
X145018918Y-112375500D01*
X145163913Y-112346658D01*
X145300495Y-112290084D01*
X145423416Y-112207951D01*
X145527951Y-112103416D01*
X145610084Y-111980495D01*
X145666658Y-111843913D01*
X145695500Y-111698918D01*
X145695500Y-111101082D01*
X145666658Y-110956087D01*
X145610084Y-110819505D01*
X145527951Y-110696584D01*
X145423416Y-110592049D01*
X145300495Y-110509916D01*
X145300492Y-110509914D01*
X145300491Y-110509914D01*
X145163915Y-110453342D01*
X145163906Y-110453340D01*
X145137352Y-110448058D01*
X145106170Y-110427223D01*
X145098854Y-110390440D01*
X145119689Y-110359258D01*
X145137352Y-110351942D01*
X145152966Y-110348835D01*
X145163913Y-110346658D01*
X145300495Y-110290084D01*
X145423416Y-110207951D01*
X145527951Y-110103416D01*
X145610084Y-109980495D01*
X145666658Y-109843913D01*
X145695500Y-109698918D01*
X145695500Y-109101082D01*
X145695499Y-109101078D01*
X146194500Y-109101078D01*
X146194500Y-109698921D01*
X146223340Y-109843906D01*
X146223342Y-109843915D01*
X146279914Y-109980491D01*
X146279916Y-109980495D01*
X146318481Y-110038211D01*
X146359971Y-110100307D01*
X146362049Y-110103416D01*
X146466584Y-110207951D01*
X146589505Y-110290084D01*
X146657796Y-110318371D01*
X146726084Y-110346657D01*
X146726093Y-110346660D01*
X146752647Y-110351942D01*
X146783829Y-110372777D01*
X146791145Y-110409560D01*
X146770310Y-110440742D01*
X146752647Y-110448058D01*
X146726093Y-110453339D01*
X146726084Y-110453342D01*
X146589508Y-110509914D01*
X146466584Y-110592048D01*
X146362048Y-110696584D01*
X146279914Y-110819508D01*
X146223342Y-110956084D01*
X146223340Y-110956093D01*
X146194500Y-111101078D01*
X146194500Y-111698921D01*
X146223340Y-111843906D01*
X146223342Y-111843915D01*
X146279914Y-111980491D01*
X146279916Y-111980495D01*
X146362049Y-112103416D01*
X146466584Y-112207951D01*
X146589505Y-112290084D01*
X146657796Y-112318371D01*
X146726084Y-112346657D01*
X146726085Y-112346657D01*
X146726087Y-112346658D01*
X146871082Y-112375500D01*
X147018918Y-112375500D01*
X147163913Y-112346658D01*
X147300495Y-112290084D01*
X147423416Y-112207951D01*
X147527951Y-112103416D01*
X147610084Y-111980495D01*
X147666658Y-111843913D01*
X147695500Y-111698918D01*
X147695500Y-111101082D01*
X147692983Y-111088428D01*
X147845000Y-111088428D01*
X147845000Y-111150000D01*
X148598590Y-111150000D01*
X148548963Y-111235956D01*
X148520000Y-111344048D01*
X148520000Y-111455952D01*
X148548963Y-111564044D01*
X148598590Y-111650000D01*
X147845000Y-111650000D01*
X147845000Y-111711571D01*
X147872085Y-111882581D01*
X147872086Y-111882584D01*
X147925589Y-112047251D01*
X148004197Y-112201527D01*
X148004199Y-112201530D01*
X148105968Y-112341603D01*
X148105972Y-112341608D01*
X148228392Y-112464028D01*
X148228396Y-112464031D01*
X148368469Y-112565800D01*
X148368472Y-112565802D01*
X148522748Y-112644410D01*
X148687416Y-112697914D01*
X148695000Y-112699115D01*
X148695000Y-111746409D01*
X148780956Y-111796037D01*
X148889048Y-111825000D01*
X149000952Y-111825000D01*
X149109044Y-111796037D01*
X149195000Y-111746409D01*
X149195000Y-112699114D01*
X149202583Y-112697914D01*
X149367251Y-112644410D01*
X149521527Y-112565802D01*
X149521530Y-112565800D01*
X149661603Y-112464031D01*
X149661608Y-112464028D01*
X149784028Y-112341608D01*
X149784031Y-112341603D01*
X149885800Y-112201530D01*
X149885802Y-112201527D01*
X149964410Y-112047251D01*
X150017913Y-111882584D01*
X150017914Y-111882581D01*
X150045000Y-111711571D01*
X150045000Y-111650000D01*
X149291410Y-111650000D01*
X149341037Y-111564044D01*
X149370000Y-111455952D01*
X149370000Y-111344048D01*
X149341037Y-111235956D01*
X149291410Y-111150000D01*
X150045000Y-111150000D01*
X150045000Y-111088428D01*
X150017914Y-110917418D01*
X150017913Y-110917415D01*
X149964410Y-110752748D01*
X149885802Y-110598472D01*
X149885800Y-110598469D01*
X149784031Y-110458396D01*
X149784028Y-110458392D01*
X149661608Y-110335972D01*
X149661603Y-110335968D01*
X149582797Y-110278712D01*
X156799500Y-110278712D01*
X156799500Y-110521288D01*
X156831162Y-110761789D01*
X156831163Y-110761793D01*
X156831164Y-110761800D01*
X156893944Y-110996095D01*
X156893946Y-110996101D01*
X156986776Y-111220213D01*
X157108062Y-111430286D01*
X157108072Y-111430301D01*
X157255730Y-111622732D01*
X157255740Y-111622744D01*
X157427255Y-111794259D01*
X157427267Y-111794269D01*
X157619698Y-111941927D01*
X157619707Y-111941933D01*
X157619711Y-111941936D01*
X157829788Y-112063224D01*
X158053900Y-112156054D01*
X158053904Y-112156055D01*
X158288199Y-112218835D01*
X158288200Y-112218835D01*
X158288211Y-112218838D01*
X158528712Y-112250500D01*
X158528716Y-112250500D01*
X158771284Y-112250500D01*
X158771288Y-112250500D01*
X159011789Y-112218838D01*
X159246100Y-112156054D01*
X159470212Y-112063224D01*
X159680289Y-111941936D01*
X159872738Y-111794265D01*
X160044265Y-111622738D01*
X160191936Y-111430289D01*
X160313224Y-111220212D01*
X160406054Y-110996100D01*
X160468838Y-110761789D01*
X160500500Y-110521288D01*
X160500500Y-110278712D01*
X160468838Y-110038211D01*
X160406054Y-109803900D01*
X160313224Y-109579788D01*
X160191936Y-109369711D01*
X160191933Y-109369707D01*
X160191927Y-109369698D01*
X160044269Y-109177267D01*
X160044259Y-109177255D01*
X159872744Y-109005740D01*
X159872732Y-109005730D01*
X159680301Y-108858072D01*
X159680286Y-108858062D01*
X159470212Y-108736776D01*
X159470213Y-108736776D01*
X159246101Y-108643946D01*
X159246095Y-108643944D01*
X159011800Y-108581164D01*
X159011793Y-108581163D01*
X159011789Y-108581162D01*
X158771288Y-108549500D01*
X158528712Y-108549500D01*
X158288211Y-108581162D01*
X158288207Y-108581162D01*
X158288199Y-108581164D01*
X158053904Y-108643944D01*
X158053898Y-108643946D01*
X157829786Y-108736776D01*
X157619713Y-108858062D01*
X157619698Y-108858072D01*
X157427267Y-109005730D01*
X157427255Y-109005740D01*
X157255740Y-109177255D01*
X157255730Y-109177267D01*
X157108072Y-109369698D01*
X157108062Y-109369713D01*
X156986776Y-109579786D01*
X156893946Y-109803898D01*
X156893944Y-109803904D01*
X156831164Y-110038199D01*
X156831162Y-110038207D01*
X156831162Y-110038211D01*
X156799500Y-110278712D01*
X149582797Y-110278712D01*
X149521530Y-110234199D01*
X149521527Y-110234197D01*
X149499236Y-110222839D01*
X149474880Y-110194321D01*
X149477823Y-110156934D01*
X149486828Y-110144538D01*
X149527951Y-110103416D01*
X149610084Y-109980495D01*
X149666658Y-109843913D01*
X149695500Y-109698918D01*
X149695500Y-109101082D01*
X149666658Y-108956087D01*
X149610084Y-108819505D01*
X149527951Y-108696584D01*
X149423416Y-108592049D01*
X149415346Y-108586657D01*
X149382810Y-108564917D01*
X149300495Y-108509916D01*
X149300492Y-108509914D01*
X149300491Y-108509914D01*
X149163915Y-108453342D01*
X149163906Y-108453340D01*
X149018921Y-108424500D01*
X149018918Y-108424500D01*
X148871082Y-108424500D01*
X148871078Y-108424500D01*
X148726093Y-108453340D01*
X148726084Y-108453342D01*
X148589508Y-108509914D01*
X148466584Y-108592048D01*
X148362048Y-108696584D01*
X148279914Y-108819508D01*
X148223342Y-108956084D01*
X148223340Y-108956093D01*
X148194500Y-109101078D01*
X148194500Y-109698921D01*
X148223340Y-109843906D01*
X148223342Y-109843915D01*
X148279914Y-109980491D01*
X148279916Y-109980495D01*
X148318481Y-110038211D01*
X148362048Y-110103415D01*
X148403165Y-110144532D01*
X148417517Y-110179180D01*
X148403165Y-110213828D01*
X148390764Y-110222839D01*
X148368473Y-110234197D01*
X148228396Y-110335968D01*
X148105968Y-110458396D01*
X148004199Y-110598469D01*
X148004197Y-110598472D01*
X147925589Y-110752748D01*
X147872086Y-110917415D01*
X147872085Y-110917418D01*
X147845000Y-111088428D01*
X147692983Y-111088428D01*
X147666658Y-110956087D01*
X147610084Y-110819505D01*
X147527951Y-110696584D01*
X147423416Y-110592049D01*
X147300495Y-110509916D01*
X147300492Y-110509914D01*
X147300491Y-110509914D01*
X147163915Y-110453342D01*
X147163906Y-110453340D01*
X147137352Y-110448058D01*
X147106170Y-110427223D01*
X147098854Y-110390440D01*
X147119689Y-110359258D01*
X147137352Y-110351942D01*
X147152966Y-110348835D01*
X147163913Y-110346658D01*
X147300495Y-110290084D01*
X147423416Y-110207951D01*
X147527951Y-110103416D01*
X147610084Y-109980495D01*
X147666658Y-109843913D01*
X147695500Y-109698918D01*
X147695500Y-109101082D01*
X147666658Y-108956087D01*
X147610084Y-108819505D01*
X147527951Y-108696584D01*
X147423416Y-108592049D01*
X147415346Y-108586657D01*
X147382810Y-108564917D01*
X147300495Y-108509916D01*
X147300492Y-108509914D01*
X147300491Y-108509914D01*
X147163915Y-108453342D01*
X147163906Y-108453340D01*
X147018921Y-108424500D01*
X147018918Y-108424500D01*
X146871082Y-108424500D01*
X146871078Y-108424500D01*
X146726093Y-108453340D01*
X146726084Y-108453342D01*
X146589508Y-108509914D01*
X146466584Y-108592048D01*
X146362048Y-108696584D01*
X146279914Y-108819508D01*
X146223342Y-108956084D01*
X146223340Y-108956093D01*
X146194500Y-109101078D01*
X145695499Y-109101078D01*
X145666658Y-108956087D01*
X145610084Y-108819505D01*
X145527951Y-108696584D01*
X145423416Y-108592049D01*
X145415346Y-108586657D01*
X145382810Y-108564917D01*
X145300495Y-108509916D01*
X145300492Y-108509914D01*
X145300491Y-108509914D01*
X145163915Y-108453342D01*
X145163906Y-108453340D01*
X145018921Y-108424500D01*
X145018918Y-108424500D01*
X144871082Y-108424500D01*
X144871078Y-108424500D01*
X144726093Y-108453340D01*
X144726084Y-108453342D01*
X144589508Y-108509914D01*
X144466584Y-108592048D01*
X144362048Y-108696584D01*
X144279914Y-108819508D01*
X144223342Y-108956084D01*
X144223340Y-108956093D01*
X144194500Y-109101078D01*
X143695499Y-109101078D01*
X143666658Y-108956087D01*
X143610084Y-108819505D01*
X143527951Y-108696584D01*
X143423416Y-108592049D01*
X143415346Y-108586657D01*
X143382810Y-108564917D01*
X143300495Y-108509916D01*
X143300492Y-108509914D01*
X143300491Y-108509914D01*
X143163915Y-108453342D01*
X143163906Y-108453340D01*
X143018921Y-108424500D01*
X143018918Y-108424500D01*
X142871082Y-108424500D01*
X142871078Y-108424500D01*
X142726093Y-108453340D01*
X142726084Y-108453342D01*
X142589508Y-108509914D01*
X142466584Y-108592048D01*
X142362048Y-108696584D01*
X142279914Y-108819508D01*
X142223342Y-108956084D01*
X142223340Y-108956093D01*
X142194500Y-109101078D01*
X141695499Y-109101078D01*
X141666658Y-108956087D01*
X141610084Y-108819505D01*
X141527951Y-108696584D01*
X141423416Y-108592049D01*
X141415346Y-108586657D01*
X141382810Y-108564917D01*
X141300495Y-108509916D01*
X141300492Y-108509914D01*
X141300491Y-108509914D01*
X141163915Y-108453342D01*
X141163906Y-108453340D01*
X141018921Y-108424500D01*
X141018918Y-108424500D01*
X140871082Y-108424500D01*
X140871078Y-108424500D01*
X140726093Y-108453340D01*
X140726084Y-108453342D01*
X140589508Y-108509914D01*
X140466584Y-108592048D01*
X140362048Y-108696584D01*
X140279914Y-108819508D01*
X140223342Y-108956084D01*
X140223340Y-108956093D01*
X140194500Y-109101078D01*
X139695499Y-109101078D01*
X139695499Y-108793482D01*
X139680646Y-108699696D01*
X139652239Y-108643944D01*
X139623054Y-108586664D01*
X139623049Y-108586657D01*
X139533342Y-108496950D01*
X139533335Y-108496945D01*
X139420308Y-108439355D01*
X139420305Y-108439354D01*
X139420304Y-108439354D01*
X139326519Y-108424500D01*
X139326517Y-108424500D01*
X138563482Y-108424500D01*
X138469696Y-108439353D01*
X138356664Y-108496945D01*
X138356657Y-108496950D01*
X138266950Y-108586657D01*
X138266945Y-108586664D01*
X138209355Y-108699690D01*
X138209355Y-108699692D01*
X138194500Y-108793482D01*
X134068430Y-108793482D01*
X133970212Y-108736776D01*
X133970213Y-108736776D01*
X133746101Y-108643946D01*
X133746095Y-108643944D01*
X133511800Y-108581164D01*
X133511793Y-108581163D01*
X133511789Y-108581162D01*
X133271288Y-108549500D01*
X133028712Y-108549500D01*
X132788211Y-108581162D01*
X132788207Y-108581162D01*
X132788199Y-108581164D01*
X132553904Y-108643944D01*
X132553898Y-108643946D01*
X132329786Y-108736776D01*
X132119713Y-108858062D01*
X132119698Y-108858072D01*
X131927267Y-109005730D01*
X131927255Y-109005740D01*
X131755740Y-109177255D01*
X131755730Y-109177267D01*
X131608072Y-109369698D01*
X131608062Y-109369713D01*
X131486776Y-109579786D01*
X131393946Y-109803898D01*
X131393944Y-109803904D01*
X131331164Y-110038199D01*
X131331162Y-110038207D01*
X131331162Y-110038211D01*
X131299500Y-110278712D01*
X124100500Y-110278712D01*
X124100500Y-103499997D01*
X138369867Y-103499997D01*
X138369867Y-103500002D01*
X138388301Y-103628223D01*
X138442118Y-103746063D01*
X138526951Y-103843967D01*
X138635931Y-103914004D01*
X138705093Y-103934311D01*
X138760223Y-103950499D01*
X138760228Y-103950500D01*
X138889765Y-103950500D01*
X138889772Y-103950500D01*
X138889778Y-103950498D01*
X138892994Y-103950035D01*
X138929334Y-103959302D01*
X138934626Y-103963887D01*
X140840602Y-105869863D01*
X140840603Y-105869863D01*
X140840604Y-105869864D01*
X140932672Y-105908001D01*
X140932674Y-105908001D01*
X141032326Y-105908001D01*
X141032328Y-105908001D01*
X141124397Y-105869864D01*
X141124399Y-105869862D01*
X141124400Y-105869862D01*
X141194862Y-105799400D01*
X141194862Y-105799399D01*
X141194864Y-105799397D01*
X141233001Y-105707328D01*
X141233001Y-105607672D01*
X141194864Y-105515604D01*
X141194863Y-105515603D01*
X141194863Y-105515602D01*
X139284795Y-103605535D01*
X139270443Y-103570887D01*
X139270940Y-103563928D01*
X139280133Y-103500000D01*
X139280133Y-103499997D01*
X139261698Y-103371776D01*
X139254297Y-103355572D01*
X139207882Y-103253937D01*
X139123049Y-103156033D01*
X139014069Y-103085996D01*
X139014066Y-103085995D01*
X138889776Y-103049500D01*
X138889772Y-103049500D01*
X138760228Y-103049500D01*
X138760223Y-103049500D01*
X138635933Y-103085995D01*
X138526950Y-103156033D01*
X138442119Y-103253936D01*
X138442118Y-103253936D01*
X138388301Y-103371776D01*
X138369867Y-103499997D01*
X124100500Y-103499997D01*
X124100500Y-93199997D01*
X142444867Y-93199997D01*
X142444867Y-93200002D01*
X142463301Y-93328223D01*
X142493087Y-93393443D01*
X142517118Y-93446063D01*
X142601951Y-93543967D01*
X142710931Y-93614004D01*
X142780093Y-93634311D01*
X142835223Y-93650499D01*
X142835228Y-93650500D01*
X142964772Y-93650500D01*
X142964776Y-93650499D01*
X142985324Y-93644465D01*
X143089069Y-93614004D01*
X143198049Y-93543967D01*
X143282882Y-93446063D01*
X143336697Y-93328226D01*
X143336697Y-93328224D01*
X143336698Y-93328223D01*
X143355133Y-93200001D01*
X143355133Y-93200000D01*
X143355133Y-93199997D01*
X143345942Y-93136084D01*
X143355216Y-93099748D01*
X143359788Y-93094471D01*
X147789409Y-88664852D01*
X147824057Y-88650500D01*
X153598585Y-88650500D01*
X153633233Y-88664852D01*
X153635617Y-88667412D01*
X153701951Y-88743967D01*
X153810931Y-88814004D01*
X153880093Y-88834311D01*
X153935223Y-88850499D01*
X153935228Y-88850500D01*
X154064772Y-88850500D01*
X154064776Y-88850499D01*
X154083240Y-88845077D01*
X154189069Y-88814004D01*
X154254009Y-88772270D01*
X154290916Y-88765611D01*
X154321721Y-88787000D01*
X154329500Y-88813491D01*
X154329500Y-93467672D01*
X154329500Y-93567328D01*
X154367636Y-93659397D01*
X154367637Y-93659398D01*
X154367637Y-93659399D01*
X160877703Y-100169464D01*
X160892055Y-100204112D01*
X160891556Y-100211085D01*
X160882367Y-100274998D01*
X160882367Y-100275001D01*
X160900801Y-100403223D01*
X160954618Y-100521063D01*
X161039451Y-100618967D01*
X161148431Y-100689004D01*
X161217593Y-100709311D01*
X161272723Y-100725499D01*
X161272728Y-100725500D01*
X161402272Y-100725500D01*
X161402276Y-100725499D01*
X161422824Y-100719465D01*
X161526569Y-100689004D01*
X161635549Y-100618967D01*
X161720382Y-100521063D01*
X161774197Y-100403226D01*
X161774197Y-100403224D01*
X161774198Y-100403223D01*
X161792633Y-100275002D01*
X161792633Y-100274997D01*
X161774198Y-100146776D01*
X161766797Y-100130572D01*
X161720382Y-100028937D01*
X161635549Y-99931033D01*
X161526569Y-99860996D01*
X161526566Y-99860995D01*
X161402276Y-99824500D01*
X161402272Y-99824500D01*
X161272728Y-99824500D01*
X161272724Y-99824500D01*
X161269487Y-99824965D01*
X161233150Y-99815686D01*
X161227872Y-99811111D01*
X154844852Y-93428091D01*
X154830500Y-93393443D01*
X154830500Y-88109930D01*
X154830499Y-88109926D01*
X154792364Y-88017859D01*
X154792362Y-88017857D01*
X154792362Y-88017856D01*
X154721897Y-87947392D01*
X144988858Y-78214353D01*
X144974506Y-78179705D01*
X144974506Y-77922980D01*
X144988858Y-77888332D01*
X144997010Y-77881761D01*
X145022055Y-77865667D01*
X145106888Y-77767763D01*
X145160703Y-77649926D01*
X145160703Y-77649924D01*
X145160704Y-77649923D01*
X145178852Y-77523693D01*
X145197988Y-77491440D01*
X145234326Y-77482165D01*
X145262001Y-77496018D01*
X160035148Y-92269165D01*
X160049500Y-92303813D01*
X160049500Y-92698719D01*
X160035148Y-92733367D01*
X160026991Y-92739941D01*
X160001950Y-92756033D01*
X159917119Y-92853936D01*
X159917118Y-92853936D01*
X159863301Y-92971776D01*
X159844867Y-93099997D01*
X159844867Y-93100002D01*
X159863301Y-93228223D01*
X159917118Y-93346063D01*
X159988194Y-93428091D01*
X160001951Y-93443967D01*
X160110931Y-93514004D01*
X160180093Y-93534311D01*
X160235223Y-93550499D01*
X160235228Y-93550500D01*
X160364772Y-93550500D01*
X160364776Y-93550499D01*
X160387025Y-93543966D01*
X160489069Y-93514004D01*
X160598049Y-93443967D01*
X160682882Y-93346063D01*
X160736697Y-93228226D01*
X160736697Y-93228224D01*
X160736698Y-93228223D01*
X160755133Y-93100002D01*
X160755133Y-93099997D01*
X160736698Y-92971776D01*
X160683839Y-92856033D01*
X160682882Y-92853937D01*
X160598049Y-92756033D01*
X160573008Y-92739940D01*
X160551620Y-92709135D01*
X160550500Y-92698719D01*
X160550500Y-92129930D01*
X160550499Y-92129926D01*
X160512364Y-92037859D01*
X160512362Y-92037857D01*
X160512362Y-92037856D01*
X160441897Y-91967392D01*
X145974503Y-77499997D01*
X146744867Y-77499997D01*
X146744867Y-77500002D01*
X146763301Y-77628223D01*
X146773213Y-77649926D01*
X146817118Y-77746063D01*
X146901951Y-77843967D01*
X147010931Y-77914004D01*
X147080093Y-77934311D01*
X147135223Y-77950499D01*
X147135228Y-77950500D01*
X147264765Y-77950500D01*
X147264772Y-77950500D01*
X147264778Y-77950498D01*
X147267994Y-77950035D01*
X147304334Y-77959302D01*
X147309626Y-77963887D01*
X161072648Y-91726909D01*
X161087000Y-91761557D01*
X161087000Y-98603719D01*
X161072648Y-98638367D01*
X161064491Y-98644941D01*
X161039450Y-98661033D01*
X160954619Y-98758936D01*
X160954618Y-98758936D01*
X160900801Y-98876776D01*
X160882367Y-99004997D01*
X160882367Y-99005002D01*
X160900801Y-99133223D01*
X160954618Y-99251063D01*
X161039451Y-99348967D01*
X161148431Y-99419004D01*
X161217593Y-99439311D01*
X161272723Y-99455499D01*
X161272728Y-99455500D01*
X161402272Y-99455500D01*
X161402276Y-99455499D01*
X161422824Y-99449465D01*
X161526569Y-99419004D01*
X161635549Y-99348967D01*
X161720382Y-99251063D01*
X161774197Y-99133226D01*
X161774197Y-99133224D01*
X161774198Y-99133223D01*
X161792633Y-99005002D01*
X161792633Y-99004997D01*
X161774198Y-98876776D01*
X161766797Y-98860572D01*
X161720382Y-98758937D01*
X161635549Y-98661033D01*
X161610508Y-98644940D01*
X161589120Y-98614135D01*
X161588000Y-98603719D01*
X161588000Y-91587674D01*
X161587999Y-91587670D01*
X161549864Y-91495603D01*
X161549862Y-91495601D01*
X161549862Y-91495600D01*
X161479397Y-91425136D01*
X154832973Y-84778712D01*
X156799500Y-84778712D01*
X156799500Y-85021288D01*
X156831162Y-85261789D01*
X156831163Y-85261793D01*
X156831164Y-85261800D01*
X156893944Y-85496095D01*
X156893946Y-85496101D01*
X156986776Y-85720213D01*
X157108062Y-85930286D01*
X157108072Y-85930301D01*
X157255730Y-86122732D01*
X157255740Y-86122744D01*
X157427255Y-86294259D01*
X157427267Y-86294269D01*
X157619698Y-86441927D01*
X157619707Y-86441933D01*
X157619711Y-86441936D01*
X157829788Y-86563224D01*
X158053900Y-86656054D01*
X158053904Y-86656055D01*
X158288199Y-86718835D01*
X158288200Y-86718835D01*
X158288211Y-86718838D01*
X158528712Y-86750500D01*
X158528716Y-86750500D01*
X158771284Y-86750500D01*
X158771288Y-86750500D01*
X159011789Y-86718838D01*
X159246100Y-86656054D01*
X159470212Y-86563224D01*
X159680289Y-86441936D01*
X159872738Y-86294265D01*
X160044265Y-86122738D01*
X160191936Y-85930289D01*
X160313224Y-85720212D01*
X160406054Y-85496100D01*
X160468838Y-85261789D01*
X160500500Y-85021288D01*
X160500500Y-84778712D01*
X160468838Y-84538211D01*
X160406054Y-84303900D01*
X160313224Y-84079788D01*
X160191936Y-83869711D01*
X160191933Y-83869707D01*
X160191927Y-83869698D01*
X160044269Y-83677267D01*
X160044259Y-83677255D01*
X159872744Y-83505740D01*
X159872732Y-83505730D01*
X159680301Y-83358072D01*
X159680286Y-83358062D01*
X159470212Y-83236776D01*
X159470213Y-83236776D01*
X159246101Y-83143946D01*
X159246095Y-83143944D01*
X159011800Y-83081164D01*
X159011793Y-83081163D01*
X159011789Y-83081162D01*
X158771288Y-83049500D01*
X158528712Y-83049500D01*
X158288211Y-83081162D01*
X158288207Y-83081162D01*
X158288199Y-83081164D01*
X158053904Y-83143944D01*
X158053898Y-83143946D01*
X157829786Y-83236776D01*
X157619713Y-83358062D01*
X157619698Y-83358072D01*
X157427267Y-83505730D01*
X157427255Y-83505740D01*
X157255740Y-83677255D01*
X157255730Y-83677267D01*
X157108072Y-83869698D01*
X157108062Y-83869713D01*
X156986776Y-84079786D01*
X156893946Y-84303898D01*
X156893944Y-84303904D01*
X156831164Y-84538199D01*
X156831162Y-84538207D01*
X156831162Y-84538211D01*
X156799500Y-84778712D01*
X154832973Y-84778712D01*
X147659795Y-77605534D01*
X147645443Y-77570886D01*
X147645940Y-77563927D01*
X147655133Y-77500000D01*
X147655133Y-77499997D01*
X147636698Y-77371776D01*
X147629297Y-77355572D01*
X147582882Y-77253937D01*
X147498049Y-77156033D01*
X147389069Y-77085996D01*
X147389066Y-77085995D01*
X147264776Y-77049500D01*
X147264772Y-77049500D01*
X147135228Y-77049500D01*
X147135223Y-77049500D01*
X147010933Y-77085995D01*
X146901950Y-77156033D01*
X146817119Y-77253936D01*
X146817118Y-77253936D01*
X146763301Y-77371776D01*
X146744867Y-77499997D01*
X145974503Y-77499997D01*
X145203843Y-76729337D01*
X145111773Y-76691200D01*
X145111772Y-76691200D01*
X144539299Y-76691200D01*
X144539291Y-76691199D01*
X144533590Y-76691199D01*
X144433935Y-76691199D01*
X144433933Y-76691199D01*
X144380002Y-76713539D01*
X144341863Y-76729336D01*
X144341862Y-76729337D01*
X144271398Y-76799803D01*
X144271397Y-76799804D01*
X143995217Y-77075983D01*
X143931643Y-77139557D01*
X143893506Y-77231626D01*
X143893506Y-77231628D01*
X143893506Y-79494178D01*
X143893506Y-79593834D01*
X143931642Y-79685903D01*
X143931643Y-79685904D01*
X143931643Y-79685905D01*
X144240203Y-79994464D01*
X144254555Y-80029112D01*
X144254056Y-80036085D01*
X144244867Y-80099997D01*
X144244867Y-80100002D01*
X144263301Y-80228223D01*
X144317118Y-80346063D01*
X144401951Y-80443967D01*
X144510931Y-80514004D01*
X144580093Y-80534311D01*
X144635223Y-80550499D01*
X144635228Y-80550500D01*
X144764772Y-80550500D01*
X144764776Y-80550499D01*
X144785324Y-80544465D01*
X144889069Y-80514004D01*
X144998049Y-80443967D01*
X145082882Y-80346063D01*
X145136697Y-80228226D01*
X145136697Y-80228224D01*
X145136698Y-80228223D01*
X145155133Y-80100002D01*
X145155133Y-80099997D01*
X145136698Y-79971776D01*
X145129297Y-79955572D01*
X145082882Y-79853937D01*
X144998049Y-79756033D01*
X144889069Y-79685996D01*
X144888756Y-79685904D01*
X144764776Y-79649500D01*
X144764772Y-79649500D01*
X144635228Y-79649500D01*
X144635224Y-79649500D01*
X144631987Y-79649965D01*
X144595650Y-79640686D01*
X144590372Y-79636111D01*
X144408858Y-79454597D01*
X144394506Y-79419949D01*
X144394506Y-78409206D01*
X144408858Y-78374558D01*
X144443506Y-78360206D01*
X144478154Y-78374558D01*
X144488776Y-78390455D01*
X144511642Y-78445659D01*
X144511643Y-78445661D01*
X153938870Y-87872887D01*
X153953222Y-87907535D01*
X153938870Y-87942183D01*
X153918027Y-87954550D01*
X153810933Y-87985995D01*
X153701953Y-88056031D01*
X153701951Y-88056032D01*
X153635617Y-88132588D01*
X153602081Y-88149375D01*
X153598585Y-88149500D01*
X147650170Y-88149500D01*
X147558101Y-88187637D01*
X147558099Y-88187638D01*
X143009626Y-92736111D01*
X142974978Y-92750463D01*
X142968009Y-92749965D01*
X142964773Y-92749500D01*
X142964772Y-92749500D01*
X142835228Y-92749500D01*
X142835223Y-92749500D01*
X142710933Y-92785995D01*
X142601950Y-92856033D01*
X142517119Y-92953936D01*
X142517118Y-92953936D01*
X142463301Y-93071776D01*
X142444867Y-93199997D01*
X124100500Y-93199997D01*
X124100500Y-84778712D01*
X131299500Y-84778712D01*
X131299500Y-85021288D01*
X131331162Y-85261789D01*
X131331163Y-85261793D01*
X131331164Y-85261800D01*
X131393944Y-85496095D01*
X131393946Y-85496101D01*
X131486776Y-85720213D01*
X131608062Y-85930286D01*
X131608072Y-85930301D01*
X131755730Y-86122732D01*
X131755740Y-86122744D01*
X131927255Y-86294259D01*
X131927267Y-86294269D01*
X132119698Y-86441927D01*
X132119707Y-86441933D01*
X132119711Y-86441936D01*
X132329788Y-86563224D01*
X132553900Y-86656054D01*
X132553904Y-86656055D01*
X132788199Y-86718835D01*
X132788200Y-86718835D01*
X132788211Y-86718838D01*
X133028712Y-86750500D01*
X133028716Y-86750500D01*
X133271284Y-86750500D01*
X133271288Y-86750500D01*
X133511789Y-86718838D01*
X133746100Y-86656054D01*
X133970212Y-86563224D01*
X134180289Y-86441936D01*
X134372738Y-86294265D01*
X134544265Y-86122738D01*
X134691936Y-85930289D01*
X134813224Y-85720212D01*
X134906054Y-85496100D01*
X134968838Y-85261789D01*
X135000500Y-85021288D01*
X135000500Y-84778712D01*
X134968838Y-84538211D01*
X134906054Y-84303900D01*
X134813224Y-84079788D01*
X134691936Y-83869711D01*
X134691933Y-83869707D01*
X134691927Y-83869698D01*
X134544269Y-83677267D01*
X134544259Y-83677255D01*
X134372744Y-83505740D01*
X134372732Y-83505730D01*
X134180301Y-83358072D01*
X134180286Y-83358062D01*
X133970212Y-83236776D01*
X133970213Y-83236776D01*
X133746101Y-83143946D01*
X133746095Y-83143944D01*
X133511800Y-83081164D01*
X133511793Y-83081163D01*
X133511789Y-83081162D01*
X133271288Y-83049500D01*
X133028712Y-83049500D01*
X132788211Y-83081162D01*
X132788207Y-83081162D01*
X132788199Y-83081164D01*
X132553904Y-83143944D01*
X132553898Y-83143946D01*
X132329786Y-83236776D01*
X132119713Y-83358062D01*
X132119698Y-83358072D01*
X131927267Y-83505730D01*
X131927255Y-83505740D01*
X131755740Y-83677255D01*
X131755730Y-83677267D01*
X131608072Y-83869698D01*
X131608062Y-83869713D01*
X131486776Y-84079786D01*
X131393946Y-84303898D01*
X131393944Y-84303904D01*
X131331164Y-84538199D01*
X131331162Y-84538207D01*
X131331162Y-84538211D01*
X131299500Y-84778712D01*
X124100500Y-84778712D01*
X124100500Y-82349500D01*
X124114852Y-82314852D01*
X124149500Y-82300500D01*
X130115895Y-82300500D01*
X130115895Y-82300499D01*
X130243186Y-82266392D01*
X130357314Y-82200500D01*
X130450500Y-82107314D01*
X130516392Y-81993186D01*
X130550499Y-81865895D01*
X130550500Y-81865895D01*
X130550500Y-75899500D01*
X130564852Y-75864852D01*
X130599500Y-75850500D01*
X161200500Y-75850500D01*
X161235148Y-75864852D01*
G37*
%TD.AperFunction*%
%TD*%
M02*
