M48
; DRILL file {KiCad 8.0.8} date 2025-05-27T15:32:35+0200
; FORMAT={-:-/ absolute / metric / decimal}
; #@! TF.CreationDate,2025-05-27T15:32:35+02:00
; #@! TF.GenerationSoftware,Kicad,Pcbnew,8.0.8
; #@! TF.FileFunction,Plated,1,2,PTH
FMAT,2
METRIC
; #@! TA.AperFunction,Plated,PTH,ViaDrill
T1C0.300
; #@! TA.AperFunction,Plated,PTH,ComponentDrill
T2C0.850
%
G90
G05
T1
X138.825Y-103.5
X138.838Y-106.1
X142.9Y-93.2
X144.7Y-80.1
X144.724Y-77.522
X147.2Y-77.5
X147.3Y-80.0
X147.3Y-94.6
X154.0Y-80.9
X154.0Y-88.4
X160.3Y-93.1
X161.338Y-99.005
X161.338Y-100.275
X165.407Y-97.715
X165.422Y-99.002
T2
X138.945Y-109.4
X138.945Y-111.4
X140.945Y-109.4
X140.945Y-111.4
X142.945Y-109.4
X142.945Y-111.4
X144.945Y-109.4
X144.945Y-111.4
X146.945Y-109.4
X146.945Y-111.4
X148.945Y-109.4
X148.945Y-111.4
M30
